SplineFontDB: 3.2
FontName: Samaano-Bold-Slanted
FullName: Samaano Bold Slanted
FamilyName: Samaano
Weight: Bold
Copyright: Copyright 2024 The Samaano Project Authors (https://github.com/mitradranirban/samaano-fonts)
UComments: "2024-8-27: Created with FontForge (http://fontforge.org)"
Version: 1.512
ItalicAngle: -20
UnderlinePosition: 0
UnderlineWidth: 102
Ascent: 1638
Descent: 410
InvalidEm: 0
UFOAscent: 1638
UFODescent: -410
LayerCount: 2
Layer: 0 0 "Back" 1
Layer: 1 0 "public.default" 0 "glyphs"
StyleMap: 0x0021
FSType: 0
OS2Version: 0
OS2_WeightWidthSlopeOnly: 0
OS2_UseTypoMetrics: 0
CreationTime: 1730795284
ModificationTime: 1730803348
PfmFamily: 16
TTFWeight: 700
TTFWidth: 5
LineGap: 0
VLineGap: 0
Panose: 2 7 8 9 2 2 5 2 4 4
OS2TypoAscent: 2457
OS2TypoAOffset: 0
OS2TypoDescent: -615
OS2TypoDOffset: 0
OS2TypoLinegap: 0
OS2WinAscent: 3225
OS2WinAOffset: 0
OS2WinDescent: 978
OS2WinDOffset: 0
HheadAscent: 2457
HheadAOffset: 0
HheadDescent: -615
HheadDOffset: 0
OS2CapHeight: 1548
OS2XHeight: 1023
OS2FamilyClass: 1031
OS2Vendor: 'anir'
Lookup: 4 0 1 "ligaStandardLigaturesinLatinlookup0" { "ligaStandardLigaturesinLatinlookup0 subtable"  } ['liga' ('latn' <'dflt' > 'DFLT' <'dflt' > ) ]
Lookup: 4 0 0 "nuktNuktaFormsinDevanagari2lookup0" { "nuktNuktaFormsinDevanagari2lookup0 subtable"  } ['nukt' ('dev2' <'dflt' > 'DFLT' <'dflt' > ) ]
Lookup: 4 0 0 "akhnAkhandinDevanagari2lookup0" { "akhnAkhandinDevanagari2lookup0 subtable"  } ['akhn' ('dev2' <'dflt' > 'DFLT' <'dflt' > ) ]
Lookup: 4 0 0 "rphfRephForminDevanagari2lookup0" { "rphfRephForminDevanagari2lookup0 subtable"  } ['rphf' ('dev2' <'dflt' > 'DFLT' <'dflt' > ) ]
Lookup: 4 0 0 "blwfBelowBaseFormsinDevanagari2lookup0" { "blwfBelowBaseFormsinDevanagari2lookup0 subtable"  } ['blwf' ('dev2' <'dflt' > 'DFLT' <'dflt' > ) ]
Lookup: 4 0 0 "rkrfRakarVariantsinDevanagari2lookup0" { "rkrfRakarVariantsinDevanagari2lookup0 subtable"  } ['rkrf' ('dev2' <'dflt' > 'DFLT' <'dflt' > ) ]

StartChar: .notdef
Encoding: 256 0 0
GlifName: _notdef
Width: 1024
VWidth: 0
Flags: W
LayerCount: 2
Fore
SplineSet
-285.455 -26 m 257
 712.545 -26 l 257
 1309.46 1614 l 257
 311.455 1614 l 257
 -285.455 -26 l 257
-182.338 54 m 257
 357.43 1537 l 257
 488.371 817 l 257
 -182.338 54 l 257
-90.3379 54 m 257
 498.346 740 l 257
 589.662 54 l 257
 -90.3379 54 l 257
481.434 1548 m 257
 1112.43 1548 l 257
 558.217 899 l 257
 481.434 1548 l 257
568.191 822 m 257
 1208.43 1548 l 257
 664.662 54 l 257
 568.191 822 l 257
EndSplineSet
EndChar

StartChar: A
Encoding: 257 65 1
GlifName: A_
Width: 1024
VWidth: 0
GlyphClass: 2
Flags: W
AnchorPoint: "top" 809 1641 basechar 0
AnchorPoint: "base" 546 0 basechar 0
LayerCount: 2
Fore
SplineSet
-168.213 0 m 257
 30.7871 0 l 257
 594.213 1548 l 257
 395.213 1548 l 257
 -168.213 0 l 257
377.596 1332 m 257
 1038.6 1332 l 257
 1117.21 1548 l 257
 456.213 1548 l 257
 377.596 1332 l 257
283.129 1023 m 257
 219.798 849 l 257
 850.798 849 l 257
 914.129 1023 l 257
 283.129 1023 l 257
428.787 0 m 257
 628.787 0 l 257
 1192.21 1548 l 257
 992.213 1548 l 257
 428.787 0 l 257
EndSplineSet
EndChar

StartChar: AE
Encoding: 258 198 2
GlifName: A_E_
Width: 1024
VWidth: 0
GlyphClass: 2
Flags: W
LayerCount: 2
Fore
SplineSet
713.335 185 m 257
 646 0 l 257
 996 0 l 257
 1063.33 185 l 257
 713.335 185 l 257
125 0 m 257
 324 0 l 257
 887.426 1548 l 257
 688.426 1548 l 257
 125 0 l 257
670.809 1332 m 257
 1458.81 1332 l 257
 1537.43 1548 l 257
 749.426 1548 l 257
 670.809 1332 l 257
576.342 1023 m 257
 513.011 849 l 257
 1231.01 849 l 257
 1294.34 1023 l 257
 576.342 1023 l 257
551 0 m 257
 751 0 l 257
 1314.43 1548 l 257
 1114.43 1548 l 257
 551 0 l 257
EndSplineSet
EndChar

StartChar: B
Encoding: 270 66 14
GlifName: B_
Width: 1024
VWidth: 0
GlyphClass: 2
Flags: W
AnchorPoint: "top" 668 1657 basechar 0
AnchorPoint: "base" 250 -67 basechar 0
LayerCount: 2
Fore
SplineSet
-128.111 0 m 257
 79.8887 0 l 257
 639.311 1537 l 257
 431.311 1537 l 257
 -128.111 0 l 257
680.332 1331 m 257
 1068.86 989 l 257
 1151.11 1215 l 257
 755.311 1537 l 257
 680.332 1331 l 257
493.344 820 m 257
 1070.58 991 l 257
 1152.11 1215 l 257
 567.23 1023 l 257
 493.344 820 l 257
210.047 201 m 257
 136.889 0 l 257
 823.373 364 l 257
 904.902 588 l 257
 210.047 201 l 257
410.26 567 m 257
 823.373 364 l 257
 904.174 586 l 257
 482.689 766 l 257
 410.26 567 l 257
405.23 1023 m 257
 331.344 820 l 257
 493.344 820 l 257
 567.23 1023 l 257
 405.23 1023 l 257
310.689 766 m 257
 238.26 567 l 257
 410.26 567 l 257
 482.689 766 l 257
 310.689 766 l 257
42.6816 200 m 257
 -30.1113 0 l 257
 136.889 0 l 257
 209.682 200 l 257
 42.6816 200 l 257
591.311 1537 m 257
 516.332 1331 l 257
 679.332 1331 l 257
 754.311 1537 l 257
 591.311 1537 l 257
EndSplineSet
EndChar

StartChar: C
Encoding: 271 67 15
GlifName: C_
Width: 1024
VWidth: 0
GlyphClass: 2
Flags: W
AnchorPoint: "top" 470 1637 basechar 0
AnchorPoint: "base" 518 -47 basechar 0
LayerCount: 2
Fore
SplineSet
350.711 1537 m 257
 -208.711 0 l 257
 -8.71094 0 l 257
 550.711 1537 l 257
 350.711 1537 l 257
449.711 1537 m 257
 377.281 1338 l 257
 1160.28 1338 l 257
 1232.71 1537 l 257
 449.711 1537 l 257
-51.2812 199 m 257
 -123.711 0 l 257
 671.289 0 l 257
 743.719 199 l 257
 -51.2812 199 l 257
EndSplineSet
EndChar

StartChar: D
Encoding: 277 68 21
GlifName: D_
Width: 1024
VWidth: 0
GlyphClass: 2
Flags: W
AnchorPoint: "base" 124 -108 basechar 0
AnchorPoint: "top" 685 1660 basechar 0
LayerCount: 2
Fore
SplineSet
484.755 1548 m 257
 -78.6709 0 l 257
 123.329 0 l 257
 686.755 1548 l 257
 484.755 1548 l 257
810.755 1548 m 257
 738.688 1350 l 257
 1009.49 767 l 257
 1102.67 1023 l 257
 810.755 1548 l 257
328.487 201 m 257
 255.329 0 l 257
 1007.22 769 l 257
 1099.67 1023 l 257
 328.487 201 l 257
648.755 1548 m 257
 576.325 1349 l 257
 738.325 1349 l 257
 810.755 1548 l 257
 648.755 1548 l 257
166.123 200 m 257
 93.3291 0 l 257
 255.329 0 l 257
 328.123 200 l 257
 166.123 200 l 257
EndSplineSet
EndChar

StartChar: Dcroat
Encoding: 279 272 23
GlifName: D_croat
Width: 1024
VWidth: 0
GlyphClass: 2
Flags: W
AnchorPoint: "top" 922 1631 basechar 0
AnchorPoint: "base" 248 -124 basechar 0
LayerCount: 2
Fore
SplineSet
340.312 935 m 257
 265.698 730 l 257
 741.698 730 l 257
 816.312 935 l 257
 340.312 935 l 257
670.426 1548 m 257
 107 0 l 257
 309 0 l 257
 872.426 1548 l 257
 670.426 1548 l 257
996.426 1548 m 257
 924.359 1350 l 257
 1195.17 767 l 257
 1288.34 1023 l 257
 996.426 1548 l 257
514.158 201 m 257
 441 0 l 257
 1192.89 769 l 257
 1285.34 1023 l 257
 514.158 201 l 257
834.426 1548 m 257
 761.996 1349 l 257
 923.996 1349 l 257
 996.426 1548 l 257
 834.426 1548 l 257
351.794 200 m 257
 279 0 l 257
 441 0 l 257
 513.794 200 l 257
 351.794 200 l 257
EndSplineSet
EndChar

StartChar: E
Encoding: 280 69 24
GlifName: E_
Width: 1024
VWidth: 0
GlyphClass: 2
Flags: W
AnchorPoint: "top" 822 1645 basechar 0
AnchorPoint: "base" 294 -84 basechar 0
LayerCount: 2
Fore
SplineSet
393.211 1537 m 257
 -166.211 0 l 257
 33.7891 0 l 257
 593.211 1537 l 257
 393.211 1537 l 257
471.211 1537 m 257
 396.961 1333 l 257
 1115.96 1333 l 257
 1190.21 1537 l 257
 471.211 1537 l 257
-25.3252 203 m 257
 -99.2109 0 l 257
 646.789 0 l 257
 720.675 203 l 257
 -25.3252 203 l 257
223.995 888 m 257
 151.2 688 l 257
 650.2 688 l 257
 722.995 888 l 257
 223.995 888 l 257
EndSplineSet
EndChar

StartChar: Eng
Encoding: 289 330 33
GlifName: E_ng
Width: 1024
VWidth: 0
GlyphClass: 2
Flags: W
AnchorPoint: "top" 498 1627 basechar 0
AnchorPoint: "base" 524 -511 basechar 0
LayerCount: 2
Fore
SplineSet
524 -211 m 257
 524 -406 l 257
 911 -406 l 257
 911 -211 l 257
 524 -211 l 257
112 1490 m 257
 112 0 l 257
 313 0 l 257
 313 1490 l 257
 112 1490 l 257
711 1476 m 257
 711 -406 l 257
 912 -406 l 257
 912 1476 l 257
 711 1476 l 257
112 1548 m 257
 112 1353 l 257
 911 1353 l 257
 911 1548 l 257
 112 1548 l 257
EndSplineSet
EndChar

StartChar: Eth
Encoding: 291 208 35
GlifName: E_th
Width: 1024
VWidth: 0
GlyphClass: 2
Flags: W
AnchorPoint: "top" 958 1645 basechar 0
AnchorPoint: "base" 292 -132 basechar 0
LayerCount: 2
Fore
SplineSet
340.312 935 m 257
 265.698 730 l 257
 741.698 730 l 257
 816.312 935 l 257
 340.312 935 l 257
670.426 1548 m 257
 107 0 l 257
 309 0 l 257
 872.426 1548 l 257
 670.426 1548 l 257
996.426 1548 m 257
 924.359 1350 l 257
 1195.17 767 l 257
 1288.34 1023 l 257
 996.426 1548 l 257
514.158 201 m 257
 441 0 l 257
 1192.89 769 l 257
 1285.34 1023 l 257
 514.158 201 l 257
834.426 1548 m 257
 761.996 1349 l 257
 923.996 1349 l 257
 996.426 1548 l 257
 834.426 1548 l 257
351.794 200 m 257
 279 0 l 257
 441 0 l 257
 513.794 200 l 257
 351.794 200 l 257
EndSplineSet
EndChar

StartChar: Euro
Encoding: 292 8364 36
GlifName: E_uro
Width: 1024
VWidth: 0
GlyphClass: 2
Flags: W
LayerCount: 2
Fore
SplineSet
303.265 520 m 257
 249.396 372 l 257
 1045.4 372 l 257
 1099.26 520 l 257
 303.265 520 l 257
466.312 935 m 257
 412.809 788 l 257
 1192.81 788 l 257
 1246.31 935 l 257
 466.312 935 l 257
754.342 1023 m 257
 447.15 179 l 257
 637.15 179 l 257
 944.342 1023 l 257
 754.342 1023 l 257
1294.36 1633 m 257
 753.342 1023 l 257
 944.342 1023 l 257
 1402.72 1601 l 257
 1294.36 1633 l 257
447.15 179 m 257
 578.229 -406 l 257
 730.229 -406 l 257
 637.15 179 l 257
 447.15 179 l 257
EndSplineSet
EndChar

StartChar: F
Encoding: 293 70 37
GlifName: F_
Width: 1024
VWidth: 0
GlyphClass: 2
Flags: W
AnchorPoint: "top" 815 1648 basechar 0
AnchorPoint: "base" 266 -71 basechar 0
LayerCount: 2
Fore
SplineSet
425.713 1548 m 257
 -137.713 0 l 257
 62.2871 0 l 257
 625.713 1548 l 257
 425.713 1548 l 257
527.713 1548 m 257
 454.555 1347 l 257
 1088.55 1347 l 257
 1161.71 1548 l 257
 527.713 1548 l 257
270.761 875 m 257
 196.875 672 l 257
 745.875 672 l 257
 819.761 875 l 257
 270.761 875 l 257
EndSplineSet
EndChar

StartChar: G
Encoding: 294 71 38
GlifName: G_
Width: 1024
VWidth: 0
GlyphClass: 2
Flags: W
AnchorPoint: "top" 826 1637 basechar 0
AnchorPoint: "base" 268 -58 basechar 0
LayerCount: 2
Fore
SplineSet
414.713 1548 m 257
 -148.713 0 l 257
 53.2871 0 l 257
 616.713 1548 l 257
 414.713 1548 l 257
472.713 1548 m 257
 399.555 1347 l 257
 1099.55 1347 l 257
 1172.71 1548 l 257
 472.713 1548 l 257
-44.1904 202 m 257
 -117.713 0 l 257
 645.287 0 l 257
 718.81 202 l 257
 -44.1904 202 l 257
650.475 561 m 257
 452.839 18 l 257
 651.839 18 l 257
 849.475 561 l 257
 650.475 561 l 257
EndSplineSet
EndChar

StartChar: H
Encoding: 298 72 42
GlifName: H_
Width: 1024
VWidth: 0
GlyphClass: 2
Flags: W
AnchorPoint: "top" 820 1642 basechar 0
AnchorPoint: "base" 208 -46 basechar 0
LayerCount: 2
Fore
SplineSet
393.711 1537 m 257
 -165.711 0 l 257
 34.2891 0 l 257
 593.711 1537 l 257
 393.711 1537 l 257
979.711 1537 m 257
 420.289 0 l 257
 630.289 0 l 257
 1189.71 1537 l 257
 979.711 1537 l 257
326.631 1023 m 257
 252.017 818 l 257
 798.017 818 l 257
 872.631 1023 l 257
 326.631 1023 l 257
EndSplineSet
EndChar

StartChar: Hbar
Encoding: 299 294 43
GlifName: H_bar
Width: 1024
VWidth: 0
GlyphClass: 2
Flags: W
LayerCount: 2
Fore
SplineSet
648.422 1537 m 257
 89 0 l 257
 289 0 l 257
 848.422 1537 l 257
 648.422 1537 l 257
1234.42 1537 m 257
 675 0 l 257
 885 0 l 257
 1444.42 1537 l 257
 1234.42 1537 l 257
581.342 1023 m 257
 506.728 818 l 257
 1052.73 818 l 257
 1127.34 1023 l 257
 581.342 1023 l 257
549.934 1434 m 257
 474.228 1226 l 257
 1399.23 1226 l 257
 1474.93 1434 l 257
 549.934 1434 l 257
EndSplineSet
EndChar

StartChar: I
Encoding: 301 73 45
GlifName: I_
Width: 1024
VWidth: 0
GlyphClass: 2
Flags: W
AnchorPoint: "top" 790 1645 basechar 0
AnchorPoint: "base" 236 -50 basechar 0
LayerCount: 2
Fore
SplineSet
450.119 1537 m 257
 376.598 1335 l 257
 1077.6 1335 l 257
 1151.12 1537 l 257
 450.119 1537 l 257
658.006 1468 m 257
 154.271 84 l 257
 354.271 84 l 257
 858.006 1468 l 257
 658.006 1468 l 257
-55.0527 204 m 257
 -127.119 6 l 257
 628.881 6 l 257
 700.947 204 l 257
 -55.0527 204 l 257
EndSplineSet
EndChar

StartChar: J
Encoding: 312 74 56
GlifName: J_
Width: 1024
VWidth: 0
GlyphClass: 2
Flags: W
AnchorPoint: "base" 534 -67 basechar 0
AnchorPoint: "top" 1071 1602 basechar 0
LayerCount: 2
Fore
SplineSet
976.891 1527 m 257
 421.109 0 l 257
 621.109 0 l 257
 1176.89 1527 l 257
 976.891 1527 l 257
-77.1855 208 m 257
 -152.891 0 l 257
 462.109 0 l 257
 537.814 208 l 257
 -77.1855 208 l 257
29.1855 503 m 257
 -134.965 52 l 257
 63.0352 52 l 257
 227.186 503 l 257
 29.1855 503 l 257
EndSplineSet
EndChar

StartChar: K
Encoding: 314 75 58
GlifName: K_
Width: 1024
VWidth: 0
GlyphClass: 2
Flags: W
AnchorPoint: "base" 202 -86 basechar 0
AnchorPoint: "top" 524 1642 basechar 0
LayerCount: 2
Fore
SplineSet
381.756 1537 m 257
 -175.846 5 l 257
 25.1543 5 l 257
 582.756 1537 l 257
 381.756 1537 l 257
230.941 999 m 257
 290.25 835 l 257
 1199.85 1529 l 257
 932.846 1529 l 257
 230.941 999 l 257
287.783 798 m 257
 94.3672 643 l 257
 415.334 0 l 257
 696.334 0 l 257
 287.783 798 l 257
EndSplineSet
EndChar

StartChar: L
Encoding: 315 76 59
GlifName: L_
Width: 1024
VWidth: 0
GlyphClass: 2
Flags: W
AnchorPoint: "base" 498 -43 basechar 0
AnchorPoint: "top" 780 1663 basechar 0
LayerCount: 2
Fore
SplineSet
618.98 1542 m 257
 57.7383 0 l 257
 255.738 0 l 257
 816.98 1542 l 257
 618.98 1542 l 257
240.262 202 m 257
 166.738 0 l 257
 892.738 0 l 257
 966.262 202 l 257
 240.262 202 l 257
EndSplineSet
EndChar

StartChar: Lcaron
Encoding: 317 317 61
GlifName: L_caron
Width: 1024
VWidth: 0
GlyphClass: 2
Flags: W
LayerCount: 2
Fore
SplineSet
614.242 1542 m 257
 53 0 l 257
 251 0 l 257
 812.242 1542 l 257
 614.242 1542 l 257
235.522 202 m 257
 162 0 l 257
 888 0 l 257
 961.522 202 l 257
 235.522 202 l 257
991.499 1496 m 257
 907.059 1264 l 257
 1037.06 1264 l 257
 1121.5 1496 l 257
 991.499 1496 l 257
EndSplineSet
EndChar

StartChar: Lslash
Encoding: 319 321 63
GlifName: L_slash
Width: 1024
VWidth: 0
GlyphClass: 2
Flags: W
LayerCount: 2
Fore
SplineSet
732.242 1542 m 257
 171 0 l 257
 369 0 l 257
 930.242 1542 l 257
 732.242 1542 l 257
353.522 202 m 257
 280 0 l 257
 1006 0 l 257
 1079.52 202 l 257
 353.522 202 l 257
344.301 902 m 257
 361.698 730 l 257
 869.221 932 l 257
 851.823 1104 l 257
 344.301 902 l 257
EndSplineSet
EndChar

StartChar: M
Encoding: 320 77 64
GlifName: M_
Width: 1024
VWidth: 0
GlyphClass: 2
Flags: W
AnchorPoint: "base" 288 -67 basechar 0
AnchorPoint: "top" 814 1620 basechar 0
LayerCount: 2
Fore
SplineSet
384.215 1548 m 257
 -179.211 0 l 257
 23.7891 0 l 257
 587.215 1548 l 257
 384.215 1548 l 257
1001.21 1537 m 257
 441.789 0 l 257
 643.789 0 l 257
 1203.21 1537 l 257
 1001.21 1537 l 257
377.902 1429 m 257
 523.042 1031 l 257
 711.042 1031 l 257
 563.215 1548 l 257
 377.902 1429 l 257
1028.21 1537 m 257
 519.131 1023 l 257
 706.131 1023 l 257
 1176.38 1488 l 257
 1028.21 1537 l 257
EndSplineSet
EndChar

StartChar: N
Encoding: 321 78 65
GlifName: N_
Width: 1024
VWidth: 0
GlyphClass: 2
Flags: W
AnchorPoint: "top" 820 1617 basechar 0
AnchorPoint: "base" 256 -55 basechar 0
LayerCount: 2
Fore
SplineSet
379.213 1548 m 257
 -184.213 0 l 257
 20.7871 0 l 257
 584.213 1548 l 257
 379.213 1548 l 257
1006.21 1548 m 257
 442.787 0 l 257
 644.787 0 l 257
 1208.21 1548 l 257
 1006.21 1548 l 257
380.213 1548 m 257
 443.787 0 l 257
 646.787 0 l 257
 585.213 1548 l 257
 380.213 1548 l 257
EndSplineSet
EndChar

StartChar: O
Encoding: 325 79 69
GlifName: O_
Width: 1024
VWidth: 0
GlyphClass: 2
Flags: W
AnchorPoint: "top" 857 1630 basechar 0
AnchorPoint: "base" 524 -109 basechar 0
LayerCount: 2
Fore
SplineSet
391.711 1537 m 257
 -167.711 0 l 257
 33.2891 0 l 257
 592.711 1537 l 257
 391.711 1537 l 257
988.711 1537 m 257
 429.289 0 l 257
 632.289 0 l 257
 1191.71 1537 l 257
 988.711 1537 l 257
455.711 1537 m 257
 382.917 1337 l 257
 1025.92 1337 l 257
 1098.71 1537 l 257
 455.711 1537 l 257
-53.4609 204 m 257
 -127.711 0 l 257
 545.289 0 l 257
 619.539 204 l 257
 -53.4609 204 l 257
EndSplineSet
EndChar

StartChar: OE
Encoding: 326 338 70
GlifName: O_E_
Width: 1024
VWidth: 0
GlyphClass: 2
Flags: W
AnchorPoint: "top" 755 1650 basechar 0
AnchorPoint: "base" 126 -78 basechar 0
LayerCount: 2
Fore
SplineSet
393 1548 m 257
 -171 0 l 257
 30 0 l 257
 594 1548 l 257
 393 1548 l 257
785 1548 m 257
 221 0 l 257
 422 0 l 257
 986 1548 l 257
 785 1548 l 257
430 1548 m 257
 357 1349 l 257
 1089 1349 l 257
 1162 1548 l 257
 430 1548 l 257
-59 200 m 257
 -132 0 l 257
 606 0 l 257
 679 200 l 257
 -59 200 l 257
637 859 m 257
 564 659 l 257
 808 659 l 257
 881 859 l 257
 637 859 l 257
EndSplineSet
EndChar

StartChar: Oslash
Encoding: 335 216 79
GlifName: O_slash
Width: 1024
VWidth: 0
GlyphClass: 2
Flags: W
AnchorPoint: "top" 1137 1639 basechar 0
AnchorPoint: "base" 553 -87 basechar 0
LayerCount: 2
Fore
SplineSet
1394.74 1667 m 257
 18.6211 -45 l 257
 180.052 -118 l 257
 1556.17 1594 l 257
 1394.74 1667 l 257
669.422 1537 m 257
 110 0 l 257
 311 0 l 257
 870.422 1537 l 257
 669.422 1537 l 257
1266.42 1537 m 257
 707 0 l 257
 910 0 l 257
 1469.42 1537 l 257
 1266.42 1537 l 257
733.422 1537 m 257
 660.628 1337 l 257
 1303.63 1337 l 257
 1376.42 1537 l 257
 733.422 1537 l 257
224.25 204 m 257
 150 0 l 257
 823 0 l 257
 897.25 204 l 257
 224.25 204 l 257
EndSplineSet
EndChar

StartChar: P
Encoding: 338 80 82
GlifName: P_
Width: 1024
VWidth: 0
GlyphClass: 2
Flags: W
AnchorPoint: "base" 508 -19 basechar 0
AnchorPoint: "top" 730 1658 basechar 0
LayerCount: 2
Fore
SplineSet
414.575 1548 m 257
 -145.575 9 l 257
 44.4248 9 l 257
 604.575 1548 l 257
 414.575 1548 l 257
493.575 1548 m 257
 420.054 1346 l 257
 1076.05 1346 l 257
 1149.58 1548 l 257
 493.575 1548 l 257
969.575 1548 m 257
 726.808 881 l 257
 926.808 881 l 257
 1169.58 1548 l 257
 969.575 1548 l 257
302.869 1068 m 257
 230.075 868 l 257
 917.075 868 l 257
 989.869 1068 l 257
 302.869 1068 l 257
EndSplineSet
EndChar

StartChar: Q
Encoding: 339 81 83
GlifName: Q_
Width: 1024
VWidth: 0
GlyphClass: 2
Flags: W
AnchorPoint: "base" 226 -35 basechar 0
AnchorPoint: "top" 765 1626 basechar 0
LayerCount: 2
Fore
SplineSet
390.801 1537 m 257
 -166.801 5 l 257
 32.1992 5 l 257
 589.801 1537 l 257
 390.801 1537 l 257
989.801 1537 m 257
 430.379 0 l 257
 631.379 0 l 257
 1190.8 1537 l 257
 989.801 1537 l 257
454.801 1537 m 257
 382.007 1337 l 257
 1025.01 1337 l 257
 1097.8 1537 l 257
 454.801 1537 l 257
-54.0068 205 m 257
 -128.621 0 l 257
 544.379 0 l 257
 618.993 205 l 257
 -54.0068 205 l 257
287.022 21 m 257
 361.647 -285 l 257
 594.868 -169 l 257
 520.243 137 l 257
 287.022 21 l 257
EndSplineSet
EndChar

StartChar: R
Encoding: 340 82 84
GlifName: R_
Width: 1024
VWidth: 0
GlyphClass: 2
Flags: W
AnchorPoint: "base" 275 -59 basechar 0
AnchorPoint: "top" 803 1636 basechar 0
LayerCount: 2
Fore
SplineSet
410.711 1537 m 257
 -148.711 0 l 257
 52.2891 0 l 257
 611.711 1537 l 257
 410.711 1537 l 257
489.711 1537 m 257
 416.189 1335 l 257
 1072.19 1335 l 257
 1145.71 1537 l 257
 489.711 1537 l 257
972.711 1537 m 257
 730.671 872 l 257
 930.671 872 l 257
 1172.71 1537 l 257
 972.711 1537 l 257
307.013 1079 m 257
 230.215 868 l 257
 917.215 868 l 257
 994.013 1079 l 257
 307.013 1079 l 257
371.399 874 m 257
 455.289 0 l 257
 695.289 0 l 257
 597.671 872 l 257
 371.399 874 l 257
EndSplineSet
EndChar

StartChar: S
Encoding: 343 83 87
GlifName: S_
Width: 1024
VWidth: 0
GlyphClass: 2
Flags: W
AnchorPoint: "top" 834 1644 basechar 0
AnchorPoint: "base" 330 -77 basechar 0
LayerCount: 2
Fore
SplineSet
478.711 1537 m 257
 405.554 1336 l 257
 1003.55 1336 l 257
 1076.71 1537 l 257
 478.711 1537 l 257
480.531 1542 m 257
 293.45 1028 l 257
 495.45 1028 l 257
 682.531 1542 l 257
 480.531 1542 l 257
19.7188 199 m 257
 -52.7109 0 l 257
 655.289 0 l 257
 727.719 199 l 257
 19.7188 199 l 257
490.289 0 m 257
 691.289 0 l 257
 820.498 355 l 257
 619.498 355 l 257
 490.289 0 l 257
293.45 1028 m 257
 619.498 355 l 257
 820.498 355 l 257
 495.45 1028 l 257
 293.45 1028 l 257
EndSplineSet
EndChar

StartChar: T
Encoding: 348 84 92
GlifName: T_
Width: 1024
VWidth: 0
GlyphClass: 2
Flags: W
AnchorPoint: "top" 704 1629 basechar 0
AnchorPoint: "base" 100 -79 basechar 0
LayerCount: 2
Fore
SplineSet
262.121 1548 m 257
 189.327 1348 l 257
 963.327 1348 l 257
 1036.12 1548 l 257
 262.121 1548 l 257
508.356 1436 m 257
 -12.1211 6 l 257
 187.879 6 l 257
 708.356 1436 l 257
 508.356 1436 l 257
EndSplineSet
EndChar

StartChar: Thorn
Encoding: 350 222 94
GlifName: T_horn
Width: 1024
VWidth: 0
GlyphClass: 2
Flags: W
LayerCount: 2
Fore
SplineSet
673.242 1542 m 257
 115.275 9 l 257
 305.275 9 l 257
 863.242 1542 l 257
 673.242 1542 l 257
640.14 1234 m 257
 567.709 1035 l 257
 1223.71 1035 l 257
 1296.14 1234 l 257
 640.14 1234 l 257
1115.78 1233 m 257
 874.099 569 l 257
 1074.1 569 l 257
 1315.78 1233 l 257
 1115.78 1233 l 257
427.956 684 m 257
 355.161 484 l 257
 1042.16 484 l 257
 1114.96 684 l 257
 427.956 684 l 257
EndSplineSet
EndChar

StartChar: U
Encoding: 351 85 95
GlifName: U_
Width: 1024
VWidth: 0
GlyphClass: 2
Flags: W
AnchorPoint: "top" 778 1642 basechar 0
AnchorPoint: "base" 201 -100 basechar 0
LayerCount: 2
Fore
SplineSet
436.711 1537 m 257
 -122.711 0 l 257
 77.2891 0 l 257
 636.711 1537 l 257
 436.711 1537 l 257
947.711 1537 m 257
 388.289 0 l 257
 587.289 0 l 257
 1146.71 1537 l 257
 947.711 1537 l 257
-2.91699 200 m 257
 -75.7109 0 l 257
 544.289 0 l 257
 617.083 200 l 257
 -2.91699 200 l 257
EndSplineSet
EndChar

StartChar: V
Encoding: 363 86 107
GlifName: V_
Width: 1024
VWidth: 0
GlyphClass: 2
Flags: W
AnchorPoint: "top" 681 1642 basechar 0
AnchorPoint: "base" 103 -82 basechar 0
LayerCount: 2
Fore
SplineSet
258.213 1548 m 257
 -45.2129 0 l 257
 175.787 0 l 257
 459.213 1548 l 257
 258.213 1548 l 257
868.213 1548 m 257
 79.7871 0 l 257
 302.787 0 l 257
 1069.21 1548 l 257
 868.213 1548 l 257
EndSplineSet
EndChar

StartChar: W
Encoding: 364 87 108
GlifName: W_
Width: 1024
VWidth: 0
GlyphClass: 2
Flags: W
AnchorPoint: "base" 234 -67 basechar 0
AnchorPoint: "top" 822 1627 basechar 0
LayerCount: 2
Fore
SplineSet
385.213 1548 m 257
 -178.213 0 l 257
 22.7871 0 l 257
 586.213 1548 l 257
 385.213 1548 l 257
1002.21 1548 m 257
 443.154 12 l 257
 644.154 12 l 257
 1203.21 1548 l 257
 1002.21 1548 l 257
504.948 1028 m 257
 130.787 0 l 257
 331.787 0 l 257
 705.948 1028 l 257
 504.948 1028 l 257
-106.055 201 m 257
 -179.213 0 l 257
 639.787 0 l 257
 712.945 201 l 257
 -106.055 201 l 257
EndSplineSet
EndChar

StartChar: X
Encoding: 369 88 113
GlifName: X_
Width: 1024
VWidth: 0
GlyphClass: 2
Flags: W
AnchorPoint: "top" 811 1627 basechar 0
AnchorPoint: "base" 288 -32 basechar 0
LayerCount: 2
Fore
SplineSet
374.121 1548 m 257
 452.695 0 l 257
 652.695 0 l 257
 573.121 1548 l 257
 374.121 1548 l 257
-184.121 6 m 257
 16.8789 6 l 257
 1208.12 1548 l 257
 1009.12 1548 l 257
 -184.121 6 l 257
EndSplineSet
EndChar

StartChar: Y
Encoding: 370 89 114
GlifName: Y_
Width: 1024
VWidth: 0
GlyphClass: 2
Flags: W
AnchorPoint: "top" 662 1638 basechar 0
AnchorPoint: "base" 75 -123 basechar 0
LayerCount: 2
Fore
SplineSet
330.269 897 m 257
 3.78711 0 l 257
 205.787 0 l 257
 532.269 897 l 257
 330.269 897 l 257
316.213 1548 m 257
 65.4375 859 l 257
 265.438 859 l 257
 516.213 1548 l 257
 316.213 1548 l 257
821.213 1548 m 257
 570.438 859 l 257
 769.438 859 l 257
 1020.21 1548 l 257
 821.213 1548 l 257
193.129 1023 m 257
 133.438 859 l 257
 679.438 859 l 257
 739.129 1023 l 257
 193.129 1023 l 257
EndSplineSet
EndChar

StartChar: Z
Encoding: 375 90 119
GlifName: Z_
Width: 1024
VWidth: 0
GlyphClass: 2
Flags: W
AnchorPoint: "top" 784 1649 basechar 0
AnchorPoint: "base" 178 -84 basechar 0
LayerCount: 2
Fore
SplineSet
376.213 1548 m 257
 299.052 1336 l 257
 1133.05 1336 l 257
 1210.21 1548 l 257
 376.213 1548 l 257
-109.051 212 m 257
 -186.213 0 l 257
 641.787 0 l 257
 718.949 212 l 257
 -109.051 212 l 257
871.688 1335 m 257
 -109.415 211 l 257
 97.585 211 l 257
 1116.69 1335 l 257
 871.688 1335 l 257
EndSplineSet
EndChar

StartChar: a
Encoding: 379 97 123
GlifName: a
Width: 1024
VWidth: 0
GlyphClass: 2
Flags: W
AnchorPoint: "top" 659 1144 basechar 0
AnchorPoint: "base" 347 -76 basechar 0
LayerCount: 2
Fore
SplineSet
353.671 1023 m 257
 281.24 824 l 257
 887.24 824 l 257
 959.671 1023 l 257
 353.671 1023 l 257
846.671 1023 m 257
 474.329 0 l 257
 668.329 0 l 257
 1040.67 1023 l 257
 846.671 1023 l 257
203.348 599 m 257
 130.917 400 l 257
 754.917 400 l 257
 827.348 599 l 257
 203.348 599 l 257
194.612 575 m 257
 -14.6709 0 l 257
 186.329 0 l 257
 395.612 575 l 257
 194.612 575 l 257
56.4873 201 m 257
 -16.6709 0 l 257
 673.329 0 l 257
 746.487 201 l 257
 56.4873 201 l 257
EndSplineSet
EndChar

StartChar: acute
Encoding: 383 180 127
GlifName: acute
Width: 1024
VWidth: 0
GlyphClass: 2
Flags: W
LayerCount: 2
Fore
SplineSet
586.914 1556 m 257
 364.465 1302 l 257
 435.723 1256 l 257
 659.535 1511 l 257
 586.914 1556 l 257
EndSplineSet
EndChar

StartChar: acutecomb
Encoding: 384 769 128
GlifName: acutecomb
Width: 0
VWidth: 0
GlyphClass: 4
Flags: W
AnchorPoint: "top" -8 779 mark 0
LayerCount: 2
Fore
SplineSet
172 1077 m 257
 -50 823 l 257
 21 777 l 257
 245 1032 l 257
 172 1077 l 257
EndSplineSet
EndChar

StartChar: ae
Encoding: 386 230 130
GlifName: ae
Width: 1024
VWidth: 0
GlyphClass: 2
Flags: W
AnchorPoint: "top" 1459 1109 basechar 0
AnchorPoint: "base" 1011 -118 basechar 0
AnchorPoint: "top" 955 1125 basechar 0
AnchorPoint: "base" 507 -102 basechar 0
LayerCount: 2
Fore
SplineSet
420.342 1023 m 257
 347.911 824 l 257
 1166.91 824 l 257
 1239.34 1023 l 257
 420.342 1023 l 257
821.342 1023 m 257
 449 0 l 257
 643 0 l 257
 1015.34 1023 l 257
 821.342 1023 l 257
289.019 599 m 257
 216.588 400 l 257
 1013.59 400 l 257
 1086.02 599 l 257
 289.019 599 l 257
280.283 575 m 257
 71 0 l 257
 272 0 l 257
 481.283 575 l 257
 280.283 575 l 257
142.158 201 m 257
 69 0 l 257
 989 0 l 257
 1062.16 201 l 257
 142.158 201 l 257
1145.34 1023 m 257
 918.588 400 l 257
 1113.59 400 l 257
 1340.34 1023 l 257
 1145.34 1023 l 257
EndSplineSet
EndChar

StartChar: ampersand
Encoding: 390 38 134
GlifName: ampersand
Width: 1024
VWidth: 0
GlyphClass: 2
Flags: W
LayerCount: 2
Fore
SplineSet
594.619 1537 m 257
 487.564 12 l 257
 649.58 56 l 257
 756.619 1537 l 257
 594.619 1537 l 257
1089.12 1401 m 257
 1138.62 1537 l 257
 672.619 1537 l 257
 623.119 1401 l 257
 1089.12 1401 l 257
945.498 1446 m 257
 752.958 917 l 257
 912.958 917 l 257
 1105.5 1446 l 257
 945.498 1446 l 257
263.546 1045 m 257
 190.024 843 l 257
 886.024 843 l 257
 959.546 1045 l 257
 263.546 1045 l 257
263.546 1045 m 257
 -108.067 24 l 257
 101.933 24 l 257
 473.546 1045 l 257
 263.546 1045 l 257
-47.6484 190 m 257
 -114.619 6 l 257
 693.381 6 l 257
 760.352 190 l 257
 -47.6484 190 l 257
EndSplineSet
EndChar

StartChar: asciicircum
Encoding: 394 94 138
GlifName: asciicircum
Width: 1024
VWidth: 0
GlyphClass: 2
Flags: W
LayerCount: 2
Fore
SplineSet
812.98 1023 m 257
 663.98 1023 l 257
 174.773 407 l 257
 302.207 345 l 257
 812.98 1023 l 257
626.668 904 m 257
 678.48 343 l 257
 849.227 400 l 257
 812.98 1023 l 257
 626.668 904 l 257
EndSplineSet
EndChar

StartChar: asciitilde
Encoding: 395 126 139
GlifName: asciitilde
Width: 1024
VWidth: 0
GlyphClass: 2
Flags: W
LayerCount: 2
Fore
SplineSet
384.377 815 m 257
 348.344 716 l 257
 676.142 655 l 257
 712.175 754 l 257
 384.377 815 l 257
125.267 757 m 257
 104.598 659 l 257
 348.344 716 l 257
 384.377 815 l 257
 125.267 757 l 257
712.175 754 m 257
 676.142 655 l 257
 908.462 796 l 257
 919.402 892 l 257
 712.175 754 l 257
EndSplineSet
EndChar

StartChar: asterisk
Encoding: 396 42 140
GlifName: asterisk
Width: 1024
VWidth: 0
GlyphClass: 2
Flags: W
LayerCount: 2
Fore
SplineSet
587.666 1297 m 257
 224.787 300 l 257
 454.787 300 l 257
 817.666 1297 l 257
 587.666 1297 l 257
158.6 1099 m 257
 617.625 360 l 257
 829.037 504 l 257
 365.283 1241 l 257
 158.6 1099 l 257
959.008 1232 m 257
 -21.3203 525 l 257
 64.9922 372 l 257
 1045.32 1079 l 257
 959.008 1232 l 257
EndSplineSet
EndChar

StartChar: at
Encoding: 397 64 141
GlifName: at
Width: 1024
VWidth: 0
GlyphClass: 2
Flags: W
LayerCount: 2
Fore
SplineSet
336.307 1023 m 257
 283.895 879 l 257
 1102.89 879 l 257
 1155.31 1023 l 257
 336.307 1023 l 257
715.436 592 m 257
 499.965 0 l 257
 652.965 0 l 257
 868.436 592 l 257
 715.436 592 l 257
385.348 600 m 257
 328.568 444 l 257
 753.568 444 l 257
 810.348 600 l 257
 385.348 600 l 257
378.344 589 m 257
 168.332 12 l 257
 342.332 12 l 257
 552.344 589 l 257
 378.344 589 l 257
230.393 188 m 257
 161.965 0 l 257
 655.965 0 l 257
 724.393 188 l 257
 230.393 188 l 257
248.307 1023 m 257
 -205.199 -223 l 257
 -29.1992 -223 l 257
 424.307 1023 l 257
 248.307 1023 l 257
-157.336 -86 m 257
 -219.939 -258 l 257
 728.061 -258 l 257
 790.664 -86 l 257
 -157.336 -86 l 257
1092.94 1011 m 257
 724.965 0 l 257
 875.965 0 l 257
 1243.94 1011 l 257
 1092.94 1011 l 257
660.66 175 m 257
 596.965 0 l 257
 805.965 0 l 257
 869.66 175 l 257
 660.66 175 l 257
EndSplineSet
EndChar

StartChar: b
Encoding: 399 98 143
GlifName: b
Width: 1024
VWidth: 0
GlyphClass: 2
Flags: W
AnchorPoint: "base" 314 -60 basechar 0
AnchorPoint: "top" 632 1639 basechar 0
LayerCount: 2
Fore
SplineSet
506.432 1537 m 257
 -52.9902 0 l 257
 146.01 0 l 257
 705.432 1537 l 257
 506.432 1537 l 257
419.99 1033 m 257
 347.561 834 l 257
 865.561 834 l 257
 937.99 1033 l 257
 419.99 1033 l 257
877.99 1033 m 257
 502.01 0 l 257
 701.01 0 l 257
 1076.99 1033 l 257
 877.99 1033 l 257
147.352 207 m 257
 72.0098 0 l 257
 622.01 0 l 257
 697.352 207 l 257
 147.352 207 l 257
EndSplineSet
EndChar

StartChar: backslash
Encoding: 400 92 144
GlifName: backslash
Width: 1024
VWidth: 0
GlyphClass: 2
Flags: W
LayerCount: 2
Fore
SplineSet
353.412 1441 m 257
 451.199 -13 l 257
 670.588 65 l 257
 573.801 1519 l 257
 353.412 1441 l 257
EndSplineSet
EndChar

StartChar: bar
Encoding: 401 124 145
GlifName: bar
Width: 1024
VWidth: 0
GlyphClass: 2
Flags: W
LayerCount: 2
Fore
SplineSet
688.027 1435 m 257
 132.973 -90 l 257
 335.973 -90 l 257
 891.027 1435 l 257
 688.027 1435 l 257
EndSplineSet
EndChar

StartChar: braceleft
Encoding: 402 123 146
GlifName: braceleft
Width: 1024
VWidth: 0
GlyphClass: 2
Flags: W
LayerCount: 2
Fore
SplineSet
693.252 1548 m 257
 434.832 838 l 257
 580.832 838 l 257
 839.252 1548 l 257
 693.252 1548 l 257
296.148 424 m 257
 37.7305 -286 l 257
 183.73 -286 l 257
 442.148 424 l 257
 296.148 424 l 257
91.9648 690 m 257
 70.127 630 l 257
 580.832 838 l 257
 434.832 838 l 257
 91.9648 690 l 257
91.9648 690 m 257
 70.127 630 l 257
 294.514 425 l 257
 443.514 425 l 257
 91.9648 690 l 257
714.27 1603 m 257
 659.311 1452 l 257
 971.715 1574 l 257
 986.27 1603 l 257
 714.27 1603 l 257
91.8691 -140 m 257
 38.3672 -287 l 257
 314.367 -287 l 257
 319.098 -274 l 257
 91.8691 -140 l 257
EndSplineSet
EndChar

StartChar: braceright
Encoding: 403 125 147
GlifName: braceright
Width: 1024
VWidth: 0
GlyphClass: 2
Flags: W
LayerCount: 2
Fore
SplineSet
987.387 1548 m 257
 825.387 1548 l 257
 566.969 838 l 257
 728.969 838 l 257
 987.387 1548 l 257
564.285 424 m 257
 404.285 424 l 257
 145.865 -286 l 257
 305.865 -286 l 257
 564.285 424 l 257
948.102 690 m 257
 723.969 838 l 257
 562.969 838 l 257
 926.262 630 l 257
 948.102 690 l 257
948.102 690 m 257
 404.285 424 l 257
 564.285 424 l 257
 926.262 630 l 257
 948.102 690 l 257
1008.41 1603 m 257
 733.406 1603 l 257
 726.85 1574 l 257
 953.445 1452 l 257
 1008.41 1603 l 257
344.006 -140 m 257
 19.2344 -274 l 257
 15.5938 -284 l 257
 291.594 -284 l 257
 344.006 -140 l 257
EndSplineSet
EndChar

StartChar: bracketleft
Encoding: 404 91 148
GlifName: bracketleft
Width: 1024
VWidth: 0
GlyphClass: 2
Flags: W
LayerCount: 2
Fore
SplineSet
704.979 1542 m 257
 55.6562 -242 l 257
 177.656 -242 l 257
 826.979 1542 l 257
 704.979 1542 l 257
759.344 1543 m 257
 713.119 1416 l 257
 922.119 1416 l 257
 968.344 1543 l 257
 759.344 1543 l 257
164.616 -91 m 257
 109.656 -242 l 257
 323.656 -242 l 257
 378.616 -91 l 257
 164.616 -91 l 257
EndSplineSet
EndChar

StartChar: bracketright
Encoding: 405 93 149
GlifName: bracketright
Width: 1024
VWidth: 0
GlyphClass: 2
Flags: W
LayerCount: 2
Fore
SplineSet
850.662 1542 m 257
 201.338 -242 l 257
 323.338 -242 l 257
 972.662 1542 l 257
 850.662 1542 l 257
701.025 1543 m 257
 654.801 1416 l 257
 863.801 1416 l 257
 910.025 1543 l 257
 701.025 1543 l 257
106.299 -91 m 257
 51.3379 -242 l 257
 265.338 -242 l 257
 320.299 -91 l 257
 106.299 -91 l 257
EndSplineSet
EndChar

StartChar: breve
Encoding: 406 728 150
GlifName: breve
Width: 1024
VWidth: 0
GlyphClass: 2
Flags: W
LayerCount: 2
Fore
SplineSet
659.348 1548 m 257
 634.598 1480 l 257
 824.348 1548 l 257
 859.652 1645 l 257
 659.348 1548 l 257
335.348 1548 m 257
 310.598 1480 l 257
 634.598 1480 l 257
 659.348 1548 l 257
 335.348 1548 l 257
194.193 1630 m 257
 164.348 1548 l 257
 310.598 1480 l 257
 335.348 1548 l 257
 194.193 1630 l 257
EndSplineSet
EndChar

StartChar: brokenbar
Encoding: 407 166 151
GlifName: brokenbar
Width: 1024
VWidth: 0
GlyphClass: 2
Flags: W
LayerCount: 2
Fore
SplineSet
97.3535 -332 m 257
 207.354 -332 l 257
 576.419 682 l 257
 466.419 682 l 257
 97.3535 -332 l 257
508.728 790 m 257
 618.728 790 l 257
 926.646 1636 l 257
 816.646 1636 l 257
 508.728 790 l 257
EndSplineSet
EndChar

StartChar: bullet
Encoding: 408 8226 152
GlifName: bullet
Width: 1024
VWidth: 0
GlyphClass: 2
Flags: W
LayerCount: 2
Fore
SplineSet
416.452 1023 m 257
 322.548 765 l 257
 607.548 765 l 257
 701.452 1023 l 257
 416.452 1023 l 257
EndSplineSet
EndChar

StartChar: c
Encoding: 409 99 153
GlifName: c
Width: 1024
VWidth: 0
GlyphClass: 2
Flags: W
AnchorPoint: "base" 352 -67 basechar 0
AnchorPoint: "top" 677 1116 basechar 0
LayerCount: 2
Fore
SplineSet
349.171 1023 m 257
 277.469 826 l 257
 973.469 826 l 257
 1045.17 1023 l 257
 349.171 1023 l 257
336.976 984 m 257
 -21.1709 0 l 257
 180.829 0 l 257
 538.976 984 l 257
 336.976 984 l 257
157.987 201 m 257
 84.8291 0 l 257
 666.829 0 l 257
 739.987 201 l 257
 157.987 201 l 257
EndSplineSet
EndChar

StartChar: caron
Encoding: 411 711 155
GlifName: caron
Width: 1024
VWidth: 0
GlyphClass: 2
Flags: W
LayerCount: 2
Fore
SplineSet
433.938 1083 m 257
 424.783 1437 l 257
 334.772 1404 l 257
 355.938 1083 l 257
 433.938 1083 l 257
381.868 1146 m 257
 433.938 1083 l 257
 689.228 1408 l 257
 621.783 1437 l 257
 381.868 1146 l 257
EndSplineSet
EndChar

StartChar: cedilla
Encoding: 416 184 160
GlifName: cedilla
Width: 1024
VWidth: 0
GlyphClass: 2
Flags: W
LayerCount: 2
Fore
SplineSet
427.765 242 m 257
 309.838 -82 l 257
 465.838 -82 l 257
 583.765 242 l 257
 427.765 242 l 257
258.427 -226 m 257
 214.75 -346 l 257
 660.75 -346 l 257
 704.427 -226 l 257
 258.427 -226 l 257
657.25 62 m 257
 521.853 -310 l 257
 673.853 -310 l 257
 809.25 62 l 257
 657.25 62 l 257
363.25 62 m 257
 306.471 -94 l 257
 752.471 -94 l 257
 809.25 62 l 257
 363.25 62 l 257
EndSplineSet
EndChar

StartChar: cent
Encoding: 417 162 161
GlifName: cent
Width: 1024
VWidth: 0
GlyphClass: 2
Flags: W
LayerCount: 2
Fore
SplineSet
934.406 1183 m 257
 787.406 1183 l 257
 325.527 -86 l 257
 472.527 -86 l 257
 934.406 1183 l 257
349.171 1023 m 257
 277.469 826 l 257
 973.469 826 l 257
 1045.17 1023 l 257
 349.171 1023 l 257
336.976 984 m 257
 -21.1709 0 l 257
 180.829 0 l 257
 538.976 984 l 257
 336.976 984 l 257
157.987 201 m 257
 84.8291 0 l 257
 666.829 0 l 257
 739.987 201 l 257
 157.987 201 l 257
EndSplineSet
EndChar

StartChar: circumflex
Encoding: 418 710 162
GlifName: circumflex
Width: 1024
VWidth: 0
GlyphClass: 2
Flags: W
LayerCount: 2
Fore
SplineSet
632.946 1330 m 257
 572.946 1330 l 257
 377.046 1083 l 257
 427.946 1058 l 257
 632.946 1330 l 257
557.476 1282 m 257
 578.946 1058 l 257
 646.954 1080 l 257
 632.946 1330 l 257
 557.476 1282 l 257
EndSplineSet
EndChar

StartChar: colon
Encoding: 419 58 163
GlifName: colon
Width: 1024
VWidth: 0
GlyphClass: 2
Flags: W
LayerCount: 2
Fore
SplineSet
275.439 430 m 257
 192.09 201 l 257
 440.09 201 l 257
 523.439 430 l 257
 275.439 430 l 257
565.91 1294 m 257
 476.01 1047 l 257
 742.01 1047 l 257
 831.91 1294 l 257
 565.91 1294 l 257
EndSplineSet
EndChar

StartChar: comma
Encoding: 420 44 164
GlifName: comma
Width: 1024
VWidth: 0
GlyphClass: 2
Flags: W
LayerCount: 2
Fore
SplineSet
467.7 237 m 257
 384.352 8 l 257
 632.352 8 l 257
 715.7 237 l 257
 467.7 237 l 257
528.575 135 m 257
 308.3 -146 l 257
 430.462 -206 l 257
 627.439 0 l 257
 528.575 135 l 257
EndSplineSet
EndChar

StartChar: copyright
Encoding: 421 169 165
GlifName: copyright
Width: 1024
VWidth: 0
GlyphClass: 2
Flags: W
LayerCount: 2
Fore
SplineSet
291.211 1537 m 257
 -268.211 0 l 257
 -67.2109 0 l 257
 492.211 1537 l 257
 291.211 1537 l 257
1089.21 1537 m 257
 529.789 0 l 257
 732.789 0 l 257
 1292.21 1537 l 257
 1089.21 1537 l 257
401.211 1537 m 257
 328.417 1337 l 257
 1019.42 1337 l 257
 1092.21 1537 l 257
 401.211 1537 l 257
-59.9609 204 m 257
 -134.211 0 l 257
 538.789 0 l 257
 613.039 204 l 257
 -59.9609 204 l 257
413.462 1197 m 257
 340.304 996 l 257
 775.304 996 l 257
 848.462 1197 l 257
 413.462 1197 l 257
398.811 1154 m 257
 102.539 340 l 257
 271.539 340 l 257
 567.811 1154 l 257
 398.811 1154 l 257
158.954 495 m 257
 85.7959 294 l 257
 525.796 294 l 257
 598.954 495 l 257
 158.954 495 l 257
EndSplineSet
EndChar

StartChar: currency
Encoding: 422 164 166
GlifName: currency
Width: 1024
VWidth: 0
GlyphClass: 2
Flags: W
LayerCount: 2
Fore
SplineSet
278.613 1202 m 257
 -93.3633 180 l 257
 106.637 180 l 257
 478.613 1202 l 257
 278.613 1202 l 257
894.342 1204 m 257
 521.637 180 l 257
 723.637 180 l 257
 1096.34 1204 l 257
 894.342 1204 l 257
402.342 1204 m 257
 328.82 1002 l 257
 914.82 1002 l 257
 988.342 1204 l 257
 402.342 1204 l 257
106.43 380 m 257
 34 181 l 257
 606 181 l 257
 678.43 380 l 257
 106.43 380 l 257
255.666 1356 m 257
 165.764 1109 l 257
 433.764 1109 l 257
 523.666 1356 l 257
 255.666 1356 l 257
944.566 1331 m 257
 854.666 1084 l 257
 1118.67 1084 l 257
 1208.57 1331 l 257
 944.566 1331 l 257
-94.666 366 m 257
 -184.566 119 l 257
 79.4336 119 l 257
 169.334 366 l 257
 -94.666 366 l 257
577.154 371 m 257
 487.254 124 l 257
 751.254 124 l 257
 841.154 371 l 257
 577.154 371 l 257
EndSplineSet
EndChar

StartChar: d
Encoding: 423 100 167
GlifName: d
Width: 1024
VWidth: 0
GlyphClass: 2
Flags: W
AnchorPoint: "base" 298 -63 basechar 0
AnchorPoint: "top" 1032 1632 basechar 0
LayerCount: 2
Fore
SplineSet
969.391 1527 m 257
 413.609 0 l 257
 614.609 0 l 257
 1170.39 1527 l 257
 969.391 1527 l 257
321.951 1023 m 257
 248.793 822 l 257
 801.793 822 l 257
 874.951 1023 l 257
 321.951 1023 l 257
225.951 1023 m 257
 -146.391 0 l 257
 54.6094 0 l 257
 426.951 1023 l 257
 225.951 1023 l 257
20.584 195 m 257
 -50.3906 0 l 257
 566.609 0 l 257
 637.584 195 l 257
 20.584 195 l 257
EndSplineSet
EndChar

StartChar: dagger
Encoding: 424 8224 168
GlifName: dagger
Width: 1024
VWidth: 0
GlyphClass: 2
Flags: W
LayerCount: 2
Fore
SplineSet
324.664 1251 m 257
 264.607 1086 l 257
 870.607 1086 l 257
 930.664 1251 l 257
 324.664 1251 l 257
656.762 1548 m 257
 93.3359 0 l 257
 238.336 0 l 257
 801.762 1548 l 257
 656.762 1548 l 257
EndSplineSet
EndChar

StartChar: daggerdbl
Encoding: 425 8225 169
GlifName: daggerdbl
Width: 1024
VWidth: 0
GlyphClass: 2
Flags: W
LayerCount: 2
Fore
SplineSet
210.377 937 m 257
 150.322 772 l 257
 756.322 772 l 257
 816.377 937 l 257
 210.377 937 l 257
324.664 1251 m 257
 264.607 1086 l 257
 870.607 1086 l 257
 930.664 1251 l 257
 324.664 1251 l 257
656.762 1548 m 257
 93.3359 0 l 257
 238.336 0 l 257
 801.762 1548 l 257
 656.762 1548 l 257
EndSplineSet
EndChar

StartChar: dcaron
Encoding: 426 271 170
GlifName: dcaron
Width: 1024
VWidth: 0
GlyphClass: 2
Flags: W
LayerCount: 2
Fore
SplineSet
1168.78 1527 m 257
 613 0 l 257
 814 0 l 257
 1369.78 1527 l 257
 1168.78 1527 l 257
521.342 1023 m 257
 448.184 822 l 257
 1001.18 822 l 257
 1074.34 1023 l 257
 521.342 1023 l 257
425.342 1023 m 257
 53 0 l 257
 254 0 l 257
 626.342 1023 l 257
 425.342 1023 l 257
219.975 195 m 257
 149 0 l 257
 766 0 l 257
 836.975 195 l 257
 219.975 195 l 257
1404.5 1496 m 257
 1320.06 1264 l 257
 1450.06 1264 l 257
 1534.5 1496 l 257
 1404.5 1496 l 257
EndSplineSet
EndChar

StartChar: dcroat
Encoding: 427 273 171
GlifName: dcroat
Width: 1024
VWidth: 0
GlyphClass: 2
Flags: W
AnchorPoint: "top" 1338 1627 basechar 0
AnchorPoint: "base" 522 -86 basechar 0
LayerCount: 2
Fore
SplineSet
1247.78 1527 m 257
 692 0 l 257
 893 0 l 257
 1448.78 1527 l 257
 1247.78 1527 l 257
600.342 1023 m 257
 527.184 822 l 257
 1080.18 822 l 257
 1153.34 1023 l 257
 600.342 1023 l 257
504.342 1023 m 257
 132 0 l 257
 333 0 l 257
 705.342 1023 l 257
 504.342 1023 l 257
298.975 195 m 257
 228 0 l 257
 845 0 l 257
 915.975 195 l 257
 298.975 195 l 257
1065.65 1403 m 257
 992.492 1202 l 257
 1436.49 1202 l 257
 1509.65 1403 l 257
 1065.65 1403 l 257
EndSplineSet
EndChar

StartChar: degree
Encoding: 428 176 172
GlifName: degree
Width: 1024
VWidth: 0
GlyphClass: 2
Flags: W
LayerCount: 2
Fore
SplineSet
459.93 1456 m 257
 607.93 1456 l 257
 560.615 1326 l 257
 412.615 1326 l 257
 459.93 1456 l 257
388.416 1548 m 257
 275.584 1238 l 257
 635.584 1238 l 257
 748.416 1548 l 257
 388.416 1548 l 257
EndSplineSet
EndChar

StartChar: dieresis
Encoding: 429 168 173
GlifName: dieresis
Width: 1024
VWidth: 0
GlyphClass: 2
Flags: W
LayerCount: 2
Fore
SplineSet
353.381 1030 m 257
 316.619 929 l 257
 428.619 929 l 257
 465.381 1030 l 257
 353.381 1030 l 257
595.381 1030 m 257
 558.619 929 l 257
 670.619 929 l 257
 707.381 1030 l 257
 595.381 1030 l 257
EndSplineSet
EndChar

StartChar: divide
Encoding: 430 247 174
GlifName: divide
Width: 1024
VWidth: 0
GlyphClass: 2
Flags: W
LayerCount: 2
Fore
SplineSet
556.507 430 m 257
 473.158 201 l 257
 721.158 201 l 257
 804.507 430 l 257
 556.507 430 l 257
846.978 1294 m 257
 757.077 1047 l 257
 1023.08 1047 l 257
 1112.98 1294 l 257
 846.978 1294 l 257
393.088 808 m 257
 317.382 600 l 257
 1143.38 600 l 257
 1219.09 808 l 257
 393.088 808 l 257
EndSplineSet
EndChar

StartChar: dollar
Encoding: 431 36 175
GlifName: dollar
Width: 1024
VWidth: 0
GlyphClass: 2
Flags: W
LayerCount: 2
Fore
SplineSet
478.711 1537 m 257
 413.561 1358 l 257
 1011.56 1358 l 257
 1076.71 1537 l 257
 478.711 1537 l 257
480.531 1542 m 257
 293.45 1028 l 257
 498.45 1028 l 257
 685.531 1542 l 257
 480.531 1542 l 257
6.61621 163 m 257
 -52.7109 0 l 257
 655.289 0 l 257
 714.616 163 l 257
 6.61621 163 l 257
485.289 0 m 257
 691.289 0 l 257
 820.498 355 l 257
 614.498 355 l 257
 485.289 0 l 257
293.45 1028 m 257
 614.498 355 l 257
 820.498 355 l 257
 498.45 1028 l 257
 293.45 1028 l 257
773.744 1636 m 257
 100.035 -215 l 257
 314.035 -215 l 257
 987.744 1636 l 257
 773.744 1636 l 257
EndSplineSet
EndChar

StartChar: dotaccent
Encoding: 432 729 176
GlifName: dotaccent
Width: 1024
VWidth: 0
GlyphClass: 2
Flags: W
AnchorPoint: "top" -28 1468 mark 0
LayerCount: 2
Fore
SplineSet
455.48 1053 m 257
 400.52 902 l 257
 568.52 902 l 257
 623.48 1053 l 257
 455.48 1053 l 257
EndSplineSet
EndChar

StartChar: dotbelowcomb
Encoding: 433 803 177
GlifName: dotbelowcomb
Width: 0
VWidth: 0
GlyphClass: 4
Flags: W
AnchorPoint: "base" -70 -191 mark 0
LayerCount: 2
Fore
SplineSet
-206.25 -204 m 257
 -296.15 -451 l 257
 -32.1504 -451 l 257
 57.75 -204 l 257
 -206.25 -204 l 257
EndSplineSet
EndChar

StartChar: dotlessi
Encoding: 434 305 178
GlifName: dotlessi
Width: 1024
VWidth: 0
GlyphClass: 2
Flags: W
AnchorPoint: "top" 925.488 1191 basechar 0
AnchorPoint: "base" 1178.72 -9 basechar 0
LayerCount: 2
Fore
SplineSet
781.521 1018 m 257
 461.592 139 l 257
 663.592 139 l 257
 983.521 1018 l 257
 781.521 1018 l 257
215.25 204 m 257
 143.184 6 l 257
 885.184 6 l 257
 957.25 204 l 257
 215.25 204 l 257
561.521 1018 m 257
 488.728 818 l 257
 864.728 818 l 257
 937.521 1018 l 257
 561.521 1018 l 257
EndSplineSet
EndChar

StartChar: e
Encoding: 435 101 179
GlifName: e
Width: 1024
VWidth: 0
GlyphClass: 2
Flags: W
AnchorPoint: "top" 730 1156 basechar 0
AnchorPoint: "base" 329 -75 basechar 0
LayerCount: 2
Fore
SplineSet
405.671 1023 m 257
 328.873 812 l 257
 963.873 812 l 257
 1040.67 1023 l 257
 405.671 1023 l 257
355.671 1023 m 257
 -16.6709 0 l 257
 185.329 0 l 257
 557.671 1023 l 257
 355.671 1023 l 257
158.487 201 m 257
 85.3291 0 l 257
 667.329 0 l 257
 740.487 201 l 257
 158.487 201 l 257
280.811 625 m 257
 215.66 446 l 257
 805.66 446 l 257
 870.811 625 l 257
 280.811 625 l 257
832.752 993 m 257
 633.296 445 l 257
 828.296 445 l 257
 1027.75 993 l 257
 832.752 993 l 257
EndSplineSet
EndChar

StartChar: eight
Encoding: 443 56 187
GlifName: eight
Width: 1024
VWidth: 0
GlyphClass: 2
Flags: W
LayerCount: 2
Fore
SplineSet
337.213 1548 m 257
 -226.213 0 l 257
 686.787 0 l 257
 1250.21 1548 l 257
 337.213 1548 l 257
761.04 759 m 257
 556.489 197 l 257
 49.4893 197 l 257
 254.04 759 l 257
 761.04 759 l 257
834.835 959 m 257
 326.835 959 l 257
 469.146 1350 l 257
 977.146 1350 l 257
 834.835 959 l 257
EndSplineSet
EndChar

StartChar: ellipsis
Encoding: 444 8230 188
GlifName: ellipsis
Width: 1024
VWidth: 0
GlyphClass: 2
Flags: W
LayerCount: 2
Fore
SplineSet
200.746 114 m 257
 159.254 0 l 257
 301.254 0 l 257
 342.746 114 l 257
 200.746 114 l 257
456.746 114 m 257
 415.254 0 l 257
 559.254 0 l 257
 600.746 114 l 257
 456.746 114 l 257
722.746 114 m 257
 681.254 0 l 257
 823.254 0 l 257
 864.746 114 l 257
 722.746 114 l 257
EndSplineSet
EndChar

StartChar: emdash
Encoding: 446 8212 190
GlifName: emdash
Width: 1024
VWidth: 0
GlyphClass: 2
Flags: W
LayerCount: 2
Fore
SplineSet
-37.8535 600 m 257
 986.146 600 l 257
 1061.85 808 l 257
 37.8535 808 l 257
 -37.8535 600 l 257
EndSplineSet
EndChar

StartChar: endash
Encoding: 447 8211 191
GlifName: endash
Width: 1024
VWidth: 0
GlyphClass: 2
Flags: W
LayerCount: 2
Fore
SplineSet
317.382 600 m 257
 1143.38 600 l 257
 1219.09 808 l 257
 393.088 808 l 257
 317.382 600 l 257
EndSplineSet
EndChar

StartChar: eng
Encoding: 448 331 192
GlifName: eng
Width: 1024
VWidth: 0
GlyphClass: 2
Flags: W
AnchorPoint: "top" 800 1119 basechar 0
AnchorPoint: "base" 304 -441 basechar 0
LayerCount: 2
Fore
SplineSet
267 -211 m 257
 196 -406 l 257
 583 -406 l 257
 654 -211 l 257
 267 -211 l 257
492 990 m 257
 132 0 l 257
 333 0 l 257
 693 990 l 257
 492 990 l 257
886 976 m 257
 383 -406 l 257
 584 -406 l 257
 1087 976 l 257
 886 976 l 257
325 1023 m 257
 253 826 l 257
 1031 826 l 257
 1103 1023 l 257
 325 1023 l 257
EndSplineSet
EndChar

StartChar: equal
Encoding: 450 61 194
GlifName: equal
Width: 1024
VWidth: 0
GlyphClass: 2
Flags: W
LayerCount: 2
Fore
SplineSet
206.64 914 m 257
 137.485 724 l 257
 953.485 724 l 257
 1022.64 914 l 257
 206.64 914 l 257
70.5146 540 m 257
 1.36035 350 l 257
 817.36 350 l 257
 886.515 540 l 257
 70.5146 540 l 257
EndSplineSet
EndChar

StartChar: eth
Encoding: 451 240 195
GlifName: eth
Width: 1024
VWidth: 0
GlyphClass: 2
Flags: W
AnchorPoint: "top" 869 1634 basechar 0
AnchorPoint: "base" 513 -132 basechar 0
LayerCount: 2
Fore
SplineSet
804.426 1548 m 257
 692 0 l 257
 893 0 l 257
 1005.43 1548 l 257
 804.426 1548 l 257
600.342 1023 m 257
 527.184 822 l 257
 868.184 822 l 257
 941.342 1023 l 257
 600.342 1023 l 257
504.342 1023 m 257
 132 0 l 257
 333 0 l 257
 705.342 1023 l 257
 504.342 1023 l 257
298.975 195 m 257
 228 0 l 257
 845 0 l 257
 915.975 195 l 257
 298.975 195 l 257
676.382 1416 m 257
 608.319 1229 l 257
 1140.32 1229 l 257
 1208.38 1416 l 257
 676.382 1416 l 257
EndSplineSet
EndChar

StartChar: exclam
Encoding: 452 33 196
GlifName: exclam
Width: 1024
VWidth: 0
GlyphClass: 2
Flags: W
LayerCount: 2
Fore
SplineSet
169.477 17 m 257
 313.477 17 l 257
 403.741 265 l 257
 259.741 265 l 257
 169.477 17 l 257
356.002 502 m 257
 484.002 502 l 257
 854.523 1520 l 257
 726.523 1520 l 257
 356.002 502 l 257
EndSplineSet
EndChar

StartChar: exclamdown
Encoding: 453 161 197
GlifName: exclamdown
Width: 1024
VWidth: 0
GlyphClass: 2
Flags: W
LayerCount: 2
Fore
SplineSet
854.523 1520 m 257
 710.523 1520 l 257
 620.259 1272 l 257
 764.259 1272 l 257
 854.523 1520 l 257
667.998 1035 m 257
 539.998 1035 l 257
 169.477 17 l 257
 297.477 17 l 257
 667.998 1035 l 257
EndSplineSet
EndChar

StartChar: f
Encoding: 454 102 198
GlifName: f
Width: 1024
VWidth: 0
GlyphClass: 2
Flags: W
AnchorPoint: "top" 811 1647 basechar 0
AnchorPoint: "base" 95 -88 basechar 0
LayerCount: 2
Fore
SplineSet
503 1551 m 257
 -20 -6 l 257
 180 -6 l 257
 703 1551 l 257
 503 1551 l 257
565 1551 m 257
 495 1359 l 257
 977 1359 l 257
 1047 1551 l 257
 565 1551 l 257
147 959 m 257
 73 756 l 257
 704 756 l 257
 778 959 l 257
 147 959 l 257
EndSplineSet
EndChar

StartChar: five
Encoding: 455 53 199
GlifName: five
Width: 1024
VWidth: 0
GlyphClass: 2
Flags: W
LayerCount: 2
Fore
SplineSet
755.54 759 m 257
 551.354 198 l 257
 -161.646 198 l 257
 -233.713 0 l 257
 684.287 0 l 257
 1033.33 959 l 257
 316.335 959 l 257
 459.375 1352 l 257
 1186.38 1352 l 257
 1257.71 1548 l 257
 330.713 1548 l 257
 43.54 759 l 257
 755.54 759 l 257
EndSplineSet
EndChar

StartChar: four
Encoding: 456 52 200
GlifName: four
Width: 1024
VWidth: 0
GlyphClass: 2
Flags: W
LayerCount: 2
Fore
SplineSet
-50.2227 761 m 257
 591.777 761 l 257
 317.344 7 l 257
 513.344 7 l 257
 1074.22 1548 l 257
 875.223 1548 l 257
 661.572 961 l 257
 222.572 961 l 257
 436.223 1548 l 257
 236.223 1548 l 257
 -50.2227 761 l 257
EndSplineSet
EndChar

StartChar: g
Encoding: 457 103 201
GlifName: g
Width: 1024
VWidth: 0
GlyphClass: 2
Flags: W
AnchorPoint: "top" 758 1134 basechar 0
AnchorPoint: "base" 237 -467 basechar 0
LayerCount: 2
Fore
SplineSet
487.33 1023 m 257
 114.988 0 l 257
 306.988 0 l 257
 679.33 1023 l 257
 487.33 1023 l 257
527.33 1023 m 257
 454.537 823 l 257
 970.537 823 l 257
 1043.33 1023 l 257
 527.33 1023 l 257
871.33 1023 m 257
 349.396 -411 l 257
 543.396 -411 l 257
 1065.33 1023 l 257
 871.33 1023 l 257
250.055 198 m 257
 177.988 0 l 257
 634.988 0 l 257
 707.055 198 l 257
 250.055 198 l 257
31.0996 -214 m 257
 -41.3301 -413 l 257
 493.67 -413 l 257
 566.1 -214 l 257
 31.0996 -214 l 257
EndSplineSet
EndChar

StartChar: germandbls
Encoding: 461 223 205
GlifName: germandbls
Width: 1024
VWidth: 0
GlyphClass: 2
Flags: W
LayerCount: 2
Fore
SplineSet
18 1221 m 257
 18 1023 l 257
 269 1023 l 257
 269 1221 l 257
 18 1221 l 257
204 1548 m 257
 204 0 l 257
 410 0 l 257
 410 1548 l 257
 204 1548 l 257
410 1548 m 257
 410 1328 l 257
 805 1328 l 257
 805 1548 l 257
 410 1548 l 257
690 1548 m 257
 690 1023 l 257
 889 1023 l 257
 889 1548 l 257
 690 1548 l 257
690 1062 m 257
 490 1062 l 257
 490 826 l 257
 690 826 l 257
 690 1062 l 257
690 848 m 257
 690 175 l 257
 890 175 l 257
 890 848 l 257
 690 848 l 257
547 251 m 257
 547 40 l 257
 890 40 l 257
 890 251 l 257
 547 251 l 257
EndSplineSet
EndChar

StartChar: grave
Encoding: 462 96 206
GlifName: grave
Width: 1024
VWidth: 0
GlyphClass: 2
Flags: W
LayerCount: 2
Fore
SplineSet
406.674 1358 m 257
 442.119 1057 l 257
 617.326 1129 l 257
 580.881 1430 l 257
 406.674 1358 l 257
EndSplineSet
EndChar

StartChar: gravecomb
Encoding: 463 768 207
GlifName: gravecomb
Width: 0
VWidth: 0
GlyphClass: 4
Flags: W
AnchorPoint: "top" 16 885 mark 0
LayerCount: 2
Fore
SplineSet
-68 1114 m 257
 -34 878 l 257
 69 929 l 257
 36 1166 l 257
 -68 1114 l 257
EndSplineSet
EndChar

StartChar: greater
Encoding: 464 62 208
GlifName: greater
Width: 1024
VWidth: 0
GlyphClass: 2
Flags: W
LayerCount: 2
Fore
SplineSet
1041.2 777 m 257
 305.098 1013 l 257
 230.119 807 l 257
 967.131 568 l 257
 1041.2 777 l 257
1041.2 777 m 257
 54.502 319 l 257
 -17.2002 122 l 257
 967.131 568 l 257
 1041.2 777 l 257
EndSplineSet
EndChar

StartChar: guillemotleft
Encoding: 465 171 209
GlifName: guillemotleft
Width: 1024
VWidth: 0
GlyphClass: 2
Flags: W
LayerCount: 2
Fore
SplineSet
116.361 609 m 257
 59.9453 454 l 257
 493.367 631 l 257
 549.055 784 l 257
 116.361 609 l 257
116.361 609 m 257
 59.9453 454 l 257
 307.107 122 l 257
 360.246 268 l 257
 116.361 609 l 257
531.361 609 m 257
 474.945 454 l 257
 908.367 631 l 257
 964.055 784 l 257
 531.361 609 l 257
531.361 609 m 257
 474.945 454 l 257
 722.107 122 l 257
 775.246 268 l 257
 531.361 609 l 257
EndSplineSet
EndChar

StartChar: guillemotright
Encoding: 466 187 210
GlifName: guillemotright
Width: 1024
VWidth: 0
GlyphClass: 2
Flags: W
LayerCount: 2
Fore
SplineSet
992.127 609 m 257
 686.821 784 l 257
 631.134 631 l 257
 935.711 454 l 257
 992.127 609 l 257
992.127 609 m 257
 500.013 268 l 257
 446.873 122 l 257
 935.711 454 l 257
 992.127 609 l 257
577.127 609 m 257
 271.821 784 l 257
 216.134 631 l 257
 520.711 454 l 257
 577.127 609 l 257
577.127 609 m 257
 85.0127 268 l 257
 31.873 122 l 257
 520.711 454 l 257
 577.127 609 l 257
EndSplineSet
EndChar

StartChar: guilsinglleft
Encoding: 467 8249 211
GlifName: guilsinglleft
Width: 1024
VWidth: 0
GlyphClass: 2
Flags: W
LayerCount: 2
Fore
SplineSet
97.9043 777 m 257
 22.1982 569 l 257
 926.823 807 l 257
 1001.8 1013 l 257
 97.9043 777 l 257
97.9043 777 m 257
 22.1982 569 l 257
 675.504 122 l 257
 747.206 319 l 257
 97.9043 777 l 257
EndSplineSet
EndChar

StartChar: guilsinglright
Encoding: 468 8250 212
GlifName: guilsinglright
Width: 1024
VWidth: 0
GlyphClass: 2
Flags: W
LayerCount: 2
Fore
SplineSet
1041.2 777 m 257
 305.098 1013 l 257
 230.119 807 l 257
 967.131 568 l 257
 1041.2 777 l 257
1041.2 777 m 257
 54.502 319 l 257
 -17.2002 122 l 257
 967.131 568 l 257
 1041.2 777 l 257
EndSplineSet
EndChar

StartChar: h
Encoding: 469 104 213
GlifName: h
Width: 1024
VWidth: 0
GlyphClass: 2
Flags: W
AnchorPoint: "top" 685 1636 basechar 0
AnchorPoint: "base" 321 -36 basechar 0
LayerCount: 2
Fore
SplineSet
546.159 1537 m 257
 -11.0791 6 l 257
 188.921 6 l 257
 746.159 1537 l 257
 546.159 1537 l 257
496.079 1023 m 257
 424.377 826 l 257
 955.377 826 l 257
 1027.08 1023 l 257
 496.079 1023 l 257
836.079 1023 m 257
 463.737 0 l 257
 662.737 0 l 257
 1035.08 1023 l 257
 836.079 1023 l 257
EndSplineSet
EndChar

StartChar: hbar
Encoding: 470 295 214
GlifName: hbar
Width: 1024
VWidth: 0
GlyphClass: 2
Flags: W
LayerCount: 2
Fore
SplineSet
733.422 1537 m 257
 176.184 6 l 257
 376.184 6 l 257
 933.422 1537 l 257
 733.422 1537 l 257
683.342 1023 m 257
 611.64 826 l 257
 1142.64 826 l 257
 1214.34 1023 l 257
 683.342 1023 l 257
1023.34 1023 m 257
 651 0 l 257
 850 0 l 257
 1222.34 1023 l 257
 1023.34 1023 l 257
558.113 1429 m 257
 482.407 1221 l 257
 938.407 1221 l 257
 1014.11 1429 l 257
 558.113 1429 l 257
EndSplineSet
EndChar

StartChar: hookabovecomb
Encoding: 472 777 216
GlifName: hookabovecomb
Width: 0
VWidth: 0
GlyphClass: 4
Flags: W
AnchorPoint: "top" -8 769 mark 0
LayerCount: 2
Fore
SplineSet
17 1075 m 257
 -14 999 l 257
 206 999 l 257
 237 1075 l 257
 17 1075 l 257
139 1075 m 257
 79 927 l 257
 179 927 l 257
 240 1075 l 257
 139 1075 l 257
3 936 m 257
 -27 865 l 257
 153 865 l 257
 183 936 l 257
 3 936 l 257
3 936 m 257
 -44 823 l 257
 44 823 l 257
 90 936 l 257
 3 936 l 257
EndSplineSet
EndChar

StartChar: hungarumlaut
Encoding: 473 733 217
GlifName: hungarumlaut
Width: 1024
VWidth: 0
GlyphClass: 2
Flags: W
LayerCount: 2
Fore
SplineSet
194.867 122 m 257
 338.867 122 l 257
 429.133 370 l 257
 285.133 370 l 257
 194.867 122 l 257
594.867 122 m 257
 738.867 122 l 257
 829.133 370 l 257
 685.133 370 l 257
 594.867 122 l 257
EndSplineSet
EndChar

StartChar: hyphen
Encoding: 474 45 218
GlifName: hyphen
Width: 1024
VWidth: 0
GlyphClass: 2
Flags: W
LayerCount: 2
Fore
SplineSet
136.854 808 m 257
 61.1465 600 l 257
 887.146 600 l 257
 962.854 808 l 257
 136.854 808 l 257
EndSplineSet
EndChar

StartChar: i
Encoding: 475 105 219
GlifName: i
Width: 1024
VWidth: 0
GlyphClass: 2
Flags: W
AnchorPoint: "top" 885 1457 basechar 0
AnchorPoint: "base" 486 -78 basechar 0
LayerCount: 2
Fore
SplineSet
700.292 1018 m 257
 380.362 139 l 257
 582.362 139 l 257
 902.292 1018 l 257
 700.292 1018 l 257
134.021 204 m 257
 61.9541 6 l 257
 803.954 6 l 257
 876.021 204 l 257
 134.021 204 l 257
764.046 1369 m 257
 690.888 1168 l 257
 888.888 1168 l 257
 962.046 1369 l 257
 764.046 1369 l 257
480.292 1018 m 257
 407.498 818 l 257
 783.498 818 l 257
 856.292 1018 l 257
 480.292 1018 l 257
EndSplineSet
EndChar

StartChar: j
Encoding: 485 106 229
GlifName: j
Width: 1024
VWidth: 0
GlyphClass: 2
Flags: W
AnchorPoint: "top" 1070 1521 basechar 0
AnchorPoint: "base" 176 -455 basechar 0
LayerCount: 2
Fore
SplineSet
819.582 1023 m 257
 297.648 -411 l 257
 496.648 -411 l 257
 1018.58 1023 l 257
 819.582 1023 l 257
-58.8281 -209 m 257
 -130.531 -406 l 257
 399.469 -406 l 257
 471.172 -209 l 257
 -58.8281 -209 l 257
16.0566 -6 m 257
 -109.514 -351 l 257
 90.4863 -351 l 257
 216.057 -6 l 257
 16.0566 -6 l 257
953.531 1413 m 257
 881.102 1214 l 257
 1082.1 1214 l 257
 1154.53 1413 l 257
 953.531 1413 l 257
EndSplineSet
EndChar

StartChar: k
Encoding: 487 107 231
GlifName: k
Width: 1024
VWidth: 0
GlyphClass: 2
Flags: W
AnchorPoint: "base" 328 -31 basechar 0
AnchorPoint: "top" 615 1621 basechar 0
LayerCount: 2
Fore
SplineSet
491.841 1537 m 257
 -65.7607 5 l 257
 134.239 5 l 257
 691.841 1537 l 257
 491.841 1537 l 257
169.228 516 m 257
 138.882 298 l 257
 1089.76 1023 l 257
 872.761 1023 l 257
 169.228 516 l 257
468.084 631 m 257
 262.217 483 l 257
 536.419 0 l 257
 774.419 0 l 257
 468.084 631 l 257
EndSplineSet
EndChar

StartChar: kgreenlandic
Encoding: 488 312 232
GlifName: kgreenlandic
Width: 1024
VWidth: 0
GlyphClass: 2
Flags: W
AnchorPoint: "base" 297 -89 basechar 0
AnchorPoint: "top" 329 1141 basechar 0
LayerCount: 2
Fore
SplineSet
228 1022 m 257
 -142 5 l 257
 58 5 l 257
 428 1022 l 257
 228 1022 l 257
93 516 m 257
 62 298 l 257
 1198 1023 l 257
 981 1023 l 257
 93 516 l 257
467 631 m 257
 186 483 l 257
 579 0 l 257
 817 0 l 257
 467 631 l 257
EndSplineSet
EndChar

StartChar: l
Encoding: 489 108 233
GlifName: l
Width: 1024
VWidth: 0
GlyphClass: 2
Flags: W
AnchorPoint: "base" 347 -61 basechar 0
AnchorPoint: "top" 925 1640 basechar 0
LayerCount: 2
Fore
SplineSet
96.2188 209 m 257
 23.4248 9 l 257
 657.425 9 l 257
 730.219 209 l 257
 96.2188 209 l 257
800.575 1548 m 257
 268.451 86 l 257
 468.451 86 l 257
 1000.58 1548 l 257
 800.575 1548 l 257
644.575 1548 m 257
 572.146 1349 l 257
 807.146 1349 l 257
 879.575 1548 l 257
 644.575 1548 l 257
EndSplineSet
EndChar

StartChar: lcaron
Encoding: 491 318 235
GlifName: lcaron
Width: 1024
VWidth: 0
GlyphClass: 2
Flags: W
LayerCount: 2
Fore
SplineSet
209.069 209 m 257
 136.275 9 l 257
 770.275 9 l 257
 843.069 209 l 257
 209.069 209 l 257
913.426 1548 m 257
 381.302 86 l 257
 581.302 86 l 257
 1113.43 1548 l 257
 913.426 1548 l 257
757.426 1548 m 257
 684.996 1349 l 257
 919.996 1349 l 257
 992.426 1548 l 257
 757.426 1548 l 257
1174.5 1496 m 257
 1090.06 1264 l 257
 1220.06 1264 l 257
 1304.5 1496 l 257
 1174.5 1496 l 257
EndSplineSet
EndChar

StartChar: less
Encoding: 493 60 237
GlifName: less
Width: 1024
VWidth: 0
GlyphClass: 2
Flags: W
LayerCount: 2
Fore
SplineSet
97.9043 777 m 257
 22.1982 569 l 257
 926.823 807 l 257
 1001.8 1013 l 257
 97.9043 777 l 257
97.9043 777 m 257
 22.1982 569 l 257
 675.504 122 l 257
 747.206 319 l 257
 97.9043 777 l 257
EndSplineSet
EndChar

StartChar: logicalnot
Encoding: 494 172 238
GlifName: logicalnot
Width: 1024
VWidth: 0
GlyphClass: 2
Flags: W
LayerCount: 2
Fore
SplineSet
685.199 935 m 257
 577.828 640 l 257
 687.828 640 l 257
 795.199 935 l 257
 685.199 935 l 257
255.199 935 m 257
 218.801 835 l 257
 768.801 835 l 257
 805.199 935 l 257
 255.199 935 l 257
EndSplineSet
EndChar

StartChar: lslash
Encoding: 495 322 239
GlifName: lslash
Width: 1024
VWidth: 0
GlyphClass: 2
Flags: W
LayerCount: 2
Fore
SplineSet
271.069 209 m 257
 198.275 9 l 257
 832.275 9 l 257
 905.069 209 l 257
 271.069 209 l 257
975.426 1548 m 257
 443.302 86 l 257
 643.302 86 l 257
 1175.43 1548 l 257
 975.426 1548 l 257
819.426 1548 m 257
 746.996 1349 l 257
 981.996 1349 l 257
 1054.43 1548 l 257
 819.426 1548 l 257
1256.5 1213 m 257
 414.096 830 l 257
 452.765 656 l 257
 1295.17 1039 l 257
 1256.5 1213 l 257
EndSplineSet
EndChar

StartChar: m
Encoding: 496 109 240
GlifName: m
Width: 1024
VWidth: 0
GlyphClass: 2
Flags: W
AnchorPoint: "base" 321 -112 basechar 0
AnchorPoint: "top" 716 1110 basechar 0
LayerCount: 2
Fore
SplineSet
272.752 993 m 257
 -88.6709 0 l 257
 111.329 0 l 257
 472.752 993 l 257
 272.752 993 l 257
580.108 972 m 257
 226.329 0 l 257
 426.329 0 l 257
 780.108 972 l 257
 580.108 972 l 257
896.564 976 m 257
 541.329 0 l 257
 741.329 0 l 257
 1096.56 976 l 257
 896.564 976 l 257
206.671 1023 m 257
 134.969 826 l 257
 1040.97 826 l 257
 1112.67 1023 l 257
 206.671 1023 l 257
EndSplineSet
EndChar

StartChar: macron
Encoding: 497 175 241
GlifName: macron
Width: 1024
VWidth: 0
GlyphClass: 2
Flags: W
LayerCount: 2
Fore
SplineSet
246.377 1023 m 257
 217.623 944 l 257
 777.623 944 l 257
 806.377 1023 l 257
 246.377 1023 l 257
EndSplineSet
EndChar

StartChar: mu
Encoding: 499 181 243
GlifName: mu
Width: 1024
VWidth: 0
GlyphClass: 2
Flags: W
LayerCount: 2
Fore
SplineSet
972.91 935 m 257
 632.598 0 l 257
 742.598 0 l 257
 1082.91 935 l 257
 972.91 935 l 257
241.273 120 m 257
 197.598 0 l 257
 712.598 0 l 257
 756.273 120 l 257
 241.273 120 l 257
437.91 935 m 257
 -58.9102 -430 l 257
 36.0898 -430 l 257
 532.91 935 l 257
 437.91 935 l 257
EndSplineSet
EndChar

StartChar: multiply
Encoding: 500 215 244
GlifName: multiply
Width: 1024
VWidth: 0
GlyphClass: 2
Flags: W
LayerCount: 2
Fore
SplineSet
91 302 m 257
 292 302 l 257
 927 1323 l 257
 728 1323 l 257
 91 302 l 257
93 1325 m 257
 735 298 l 257
 934 298 l 257
 295 1325 l 257
 93 1325 l 257
EndSplineSet
EndChar

StartChar: n
Encoding: 501 110 245
GlifName: n
Width: 1024
VWidth: 0
GlyphClass: 2
Flags: W
AnchorPoint: "base" 322 -33 basechar 0
AnchorPoint: "top" 724 1127 basechar 0
LayerCount: 2
Fore
SplineSet
386.659 990 m 257
 26.3291 0 l 257
 227.329 0 l 257
 587.659 990 l 257
 386.659 990 l 257
780.564 976 m 257
 425.329 0 l 257
 626.329 0 l 257
 981.564 976 l 257
 780.564 976 l 257
219.671 1023 m 257
 147.969 826 l 257
 925.969 826 l 257
 997.671 1023 l 257
 219.671 1023 l 257
EndSplineSet
EndChar

StartChar: nine
Encoding: 504 57 248
GlifName: nine
Width: 1024
VWidth: 0
GlyphClass: 2
Flags: W
LayerCount: 2
Fore
SplineSet
758.448 759 m 257
 554.989 200 l 257
 -147.011 200 l 257
 -219.805 0 l 257
 678.195 0 l 257
 1243.8 1554 l 257
 323.805 1554 l 257
 317.617 1537 l 257
 34.4482 759 l 257
 758.448 759 l 257
828.243 959 m 257
 307.243 959 l 257
 451.011 1354 l 257
 972.011 1354 l 257
 828.243 959 l 257
EndSplineSet
EndChar

StartChar: numbersign
Encoding: 506 35 250
GlifName: numbersign
Width: 1024
VWidth: 0
GlyphClass: 2
Flags: W
LayerCount: 2
Fore
SplineSet
404.976 1347 m 257
 28.6309 313 l 257
 168.631 313 l 257
 544.976 1347 l 257
 404.976 1347 l 257
816.067 1350 m 257
 426.256 279 l 257
 594.256 279 l 257
 984.067 1350 l 257
 816.067 1350 l 257
205.821 1157 m 257
 152.318 1010 l 257
 970.318 1010 l 257
 1023.82 1157 l 257
 205.821 1157 l 257
63.873 767 m 257
 0.178711 592 l 257
 828.179 592 l 257
 891.873 767 l 257
 63.873 767 l 257
EndSplineSet
EndChar

StartChar: o
Encoding: 507 111 251
GlifName: o
Width: 1024
VWidth: 0
GlyphClass: 2
Flags: W
AnchorPoint: "top" 695 1127 basechar 0
AnchorPoint: "base" 304 -69 basechar 0
LayerCount: 2
Fore
SplineSet
289.671 1023 m 257
 -82.6709 0 l 257
 117.329 0 l 257
 489.671 1023 l 257
 289.671 1023 l 257
904.671 1023 m 257
 532.329 0 l 257
 734.329 0 l 257
 1106.67 1023 l 257
 904.671 1023 l 257
412.671 1023 m 257
 339.513 822 l 257
 925.513 822 l 257
 998.671 1023 l 257
 412.671 1023 l 257
117.123 200 m 257
 44.3291 0 l 257
 616.329 0 l 257
 689.123 200 l 257
 117.123 200 l 257
EndSplineSet
EndChar

StartChar: oe
Encoding: 512 339 256
GlifName: oe
Width: 1024
VWidth: 0
GlyphClass: 2
Flags: W
AnchorPoint: "top" 754 1152 basechar 0
AnchorPoint: "base" 362 -128 basechar 0
LayerCount: 2
Fore
SplineSet
646 645 m 257
 573 446 l 257
 800 446 l 257
 873 645 l 257
 646 645 l 257
985 1023 m 257
 775 445 l 257
 975 445 l 257
 1185 1023 l 257
 985 1023 l 257
289 1023 m 257
 -83 0 l 257
 117 0 l 257
 489 1023 l 257
 289 1023 l 257
637 1023 m 257
 265 0 l 257
 465 0 l 257
 837 1023 l 257
 637 1023 l 257
344 1023 m 257
 271 823 l 257
 972 823 l 257
 1045 1023 l 257
 344 1023 l 257
36 200 m 257
 -37 0 l 257
 813 0 l 257
 886 200 l 257
 36 200 l 257
EndSplineSet
EndChar

StartChar: ogonek
Encoding: 513 731 257
GlifName: ogonek
Width: 1024
VWidth: 0
GlyphClass: 2
Flags: W
LayerCount: 2
Fore
SplineSet
210.062 -288 m 257
 167.114 -406 l 257
 709.114 -406 l 257
 752.062 -288 l 257
 210.062 -288 l 257
314.886 0 m 257
 167.114 -406 l 257
 285.114 -406 l 257
 432.886 0 l 257
 314.886 0 l 257
314.886 0 m 257
 270.846 -121 l 257
 812.846 -121 l 257
 856.886 0 l 257
 314.886 0 l 257
EndSplineSet
EndChar

StartChar: one
Encoding: 518 49 262
GlifName: one
Width: 1024
VWidth: 0
GlyphClass: 2
Flags: W
LayerCount: 2
Fore
SplineSet
130.787 0 m 257
 329.787 0 l 257
 893.213 1548 l 257
 694.213 1548 l 257
 130.787 0 l 257
698.213 1548 m 257
 392.478 1252 l 257
 506.081 1152 l 257
 812.18 1449 l 257
 698.213 1548 l 257
EndSplineSet
EndChar

StartChar: onehalf
Encoding: 519 189 263
GlifName: onehalf
Width: 1024
VWidth: 0
GlyphClass: 2
Flags: W
LayerCount: 2
Fore
SplineSet
983.844 1483 m 257
 -123.74 6 l 257
 40.1562 -30 l 257
 1147.74 1447 l 257
 983.844 1483 l 257
353.182 863 m 257
 436.182 863 l 257
 685.502 1548 l 257
 602.502 1548 l 257
 353.182 863 l 257
604.502 1548 m 257
 475.549 1419 l 257
 521.17 1374 l 257
 651.215 1506 l 257
 604.502 1548 l 257
614.549 603 m 257
 813.549 603 l 257
 742.211 407 l 257
 545.211 407 l 257
 397.076 0 l 257
 654.076 0 l 257
 686.832 90 l 257
 495.832 90 l 257
 578.455 317 l 257
 774.455 317 l 257
 911.307 693 l 257
 647.307 693 l 257
 614.549 603 l 257
EndSplineSet
EndChar

StartChar: onequarter
Encoding: 520 188 264
GlifName: onequarter
Width: 1024
VWidth: 0
GlyphClass: 2
Flags: W
LayerCount: 2
Fore
SplineSet
1021.52 1480 m 257
 -100.518 10 l 257
 2.48242 10 l 257
 1124.52 1480 l 257
 1021.52 1480 l 257
504.191 1045 m 257
 558.191 1045 l 257
 741.268 1548 l 257
 687.268 1548 l 257
 504.191 1045 l 257
692.268 1548 m 257
 538.592 1428 l 257
 545.125 1391 l 257
 717.264 1537 l 257
 692.268 1548 l 257
522.787 379 m 257
 827.787 379 l 257
 692.391 7 l 257
 751.391 7 l 257
 1028.37 768 l 257
 968.371 768 l 257
 850.809 445 l 257
 605.809 445 l 257
 724.1 770 l 257
 665.1 770 l 257
 522.787 379 l 257
EndSplineSet
EndChar

StartChar: ordfeminine
Encoding: 521 170 265
GlifName: ordfeminine
Width: 1024
VWidth: 0
GlyphClass: 2
Flags: W
LayerCount: 2
Fore
SplineSet
453.857 1319 m 257
 381.062 1119 l 257
 987.062 1119 l 257
 1059.86 1319 l 257
 453.857 1319 l 257
947.221 1320 m 257
 574.516 296 l 257
 768.516 296 l 257
 1141.22 1320 l 257
 947.221 1320 l 257
303.17 894 m 257
 230.738 695 l 257
 854.738 695 l 257
 927.17 894 l 257
 303.17 894 l 257
294.434 870 m 257
 84.4238 293 l 257
 285.424 293 l 257
 495.434 870 l 257
 294.434 870 l 257
156.309 496 m 257
 83.5156 296 l 257
 773.516 296 l 257
 846.309 496 l 257
 156.309 496 l 257
-58.2578 162 m 257
 -117.221 0 l 257
 750.779 0 l 257
 809.742 162 l 257
 -58.2578 162 l 257
EndSplineSet
EndChar

StartChar: ordmasculine
Encoding: 522 186 266
GlifName: ordmasculine
Width: 1024
VWidth: 0
GlyphClass: 2
Flags: W
LayerCount: 2
Fore
SplineSet
368.921 1023 m 257
 -3.4209 0 l 257
 196.579 0 l 257
 568.921 1023 l 257
 368.921 1023 l 257
983.921 1023 m 257
 611.579 0 l 257
 813.579 0 l 257
 1185.92 1023 l 257
 983.921 1023 l 257
491.921 1023 m 257
 418.763 822 l 257
 1004.76 822 l 257
 1077.92 1023 l 257
 491.921 1023 l 257
196.373 200 m 257
 123.579 0 l 257
 695.579 0 l 257
 768.373 200 l 257
 196.373 200 l 257
-137.898 -70 m 257
 -161.921 -136 l 257
 862.079 -136 l 257
 886.102 -70 l 257
 -137.898 -70 l 257
EndSplineSet
EndChar

StartChar: oslash
Encoding: 523 248 267
GlifName: oslash
Width: 1024
VWidth: 0
GlyphClass: 2
Flags: W
AnchorPoint: "top" 970 1125 basechar 0
AnchorPoint: "base" 510 -116 basechar 0
LayerCount: 2
Fore
SplineSet
1260.66 1164 m 257
 7.17969 -5 l 257
 133.511 -103 l 257
 1387.99 1066 l 257
 1260.66 1164 l 257
476.342 1023 m 257
 104 0 l 257
 304 0 l 257
 676.342 1023 l 257
 476.342 1023 l 257
1091.34 1023 m 257
 719 0 l 257
 921 0 l 257
 1293.34 1023 l 257
 1091.34 1023 l 257
599.342 1023 m 257
 526.184 822 l 257
 1112.18 822 l 257
 1185.34 1023 l 257
 599.342 1023 l 257
303.794 200 m 257
 231 0 l 257
 803 0 l 257
 875.794 200 l 257
 303.794 200 l 257
EndSplineSet
EndChar

StartChar: p
Encoding: 526 112 270
GlifName: p
Width: 1024
VWidth: 0
GlyphClass: 2
Flags: W
AnchorPoint: "base" 45 -475 basechar 0
AnchorPoint: "top" 594 1308 basechar 0
LayerCount: 2
Fore
SplineSet
519.071 1203 m 257
 -66.5566 -406 l 257
 133.443 -406 l 257
 719.071 1203 l 257
 519.071 1203 l 257
551.557 1023 m 257
 478.034 821 l 257
 1017.03 821 l 257
 1090.56 1023 l 257
 551.557 1023 l 257
256.737 202 m 257
 183.215 0 l 257
 723.215 0 l 257
 796.737 202 l 257
 256.737 202 l 257
840.053 876 m 257
 584.909 175 l 257
 782.909 175 l 257
 1038.05 876 l 257
 840.053 876 l 257
EndSplineSet
EndChar

StartChar: paragraph
Encoding: 527 182 271
GlifName: paragraph
Width: 1024
VWidth: 0
GlyphClass: 2
Flags: W
LayerCount: 2
Fore
SplineSet
39.8184 1130 m 257
 -12.957 985 l 257
 552.043 985 l 257
 604.818 1130 l 257
 39.8184 1130 l 257
191.957 1548 m 257
 -7.49805 1000 l 257
 152.502 1000 l 257
 351.957 1548 l 257
 191.957 1548 l 257
191.957 1548 m 257
 150.828 1435 l 257
 970.828 1435 l 257
 1011.96 1548 l 257
 191.957 1548 l 257
661.957 1548 m 257
 98.5312 0 l 257
 243.531 0 l 257
 806.957 1548 l 257
 661.957 1548 l 257
931.957 1548 m 257
 368.531 0 l 257
 473.531 0 l 257
 1036.96 1548 l 257
 931.957 1548 l 257
EndSplineSet
EndChar

StartChar: parenleft
Encoding: 528 40 272
GlifName: parenleft
Width: 1024
VWidth: 0
GlyphClass: 2
Flags: W
LayerCount: 2
Fore
SplineSet
379.311 1023 m 257
 72.1191 179 l 257
 262.119 179 l 257
 569.311 1023 l 257
 379.311 1023 l 257
919.332 1633 m 257
 381.131 1028 l 257
 569.131 1028 l 257
 951.881 1640 l 257
 919.332 1633 l 257
72.1191 179 m 257
 203.197 -406 l 257
 235.197 -406 l 257
 262.119 179 l 257
 72.1191 179 l 257
EndSplineSet
EndChar

StartChar: parenright
Encoding: 529 41 273
GlifName: parenright
Width: 1024
VWidth: 0
GlyphClass: 2
Flags: W
LayerCount: 2
Fore
SplineSet
748.057 1023 m 257
 440.865 179 l 257
 630.865 179 l 257
 938.057 1023 l 257
 748.057 1023 l 257
826.622 1629 m 257
 748.057 1023 l 257
 938.057 1023 l 257
 864.622 1629 l 257
 826.622 1629 l 257
440.865 179 m 257
 85.9434 -406 l 257
 113.943 -406 l 257
 630.865 179 l 257
 440.865 179 l 257
EndSplineSet
EndChar

StartChar: percent
Encoding: 530 37 274
GlifName: percent
Width: 1024
VWidth: 0
GlyphClass: 2
Flags: W
LayerCount: 2
Fore
SplineSet
42.877 522 m 257
 34.1016 377 l 257
 981.486 716 l 257
 989.898 860 l 257
 42.877 522 l 257
410.723 1148 m 257
 292.068 822 l 257
 370.068 822 l 257
 488.723 1148 l 257
 410.723 1148 l 257
412.178 1152 m 257
 377.602 1057 l 257
 725.602 1057 l 257
 760.178 1152 l 257
 412.178 1152 l 257
309.902 871 m 257
 280.057 789 l 257
 624.057 789 l 257
 653.902 871 l 257
 309.902 871 l 257
668.178 1152 m 257
 536.785 791 l 257
 628.785 791 l 257
 760.178 1152 l 257
 668.178 1152 l 257
479.576 436 m 257
 360.922 110 l 257
 438.922 110 l 257
 557.576 436 l 257
 479.576 436 l 257
481.031 440 m 257
 446.453 345 l 257
 792.453 345 l 257
 827.031 440 l 257
 481.031 440 l 257
378.756 159 m 257
 348.91 77 l 257
 692.91 77 l 257
 722.756 159 l 257
 378.756 159 l 257
735.031 440 m 257
 603.639 79 l 257
 695.639 79 l 257
 827.031 440 l 257
 735.031 440 l 257
EndSplineSet
EndChar

StartChar: period
Encoding: 531 46 275
GlifName: period
Width: 1024
VWidth: 0
GlyphClass: 2
Flags: W
LayerCount: 2
Fore
SplineSet
424.769 246 m 257
 335.231 0 l 257
 599.231 0 l 257
 688.769 246 l 257
 424.769 246 l 257
EndSplineSet
EndChar

StartChar: periodcentered
Encoding: 532 183 276
GlifName: periodcentered
Width: 1024
VWidth: 0
GlyphClass: 2
Flags: W
LayerCount: 2
Fore
SplineSet
424.451 1146 m 257
 334.549 899 l 257
 599.549 899 l 257
 689.451 1146 l 257
 424.451 1146 l 257
EndSplineSet
EndChar

StartChar: perthousand
Encoding: 533 8240 277
GlifName: perthousand
Width: 1024
VWidth: 0
GlyphClass: 2
Flags: W
LayerCount: 2
Fore
SplineSet
651.01 436 m 257
 532.355 110 l 257
 610.355 110 l 257
 729.01 436 l 257
 651.01 436 l 257
652.465 440 m 257
 617.888 345 l 257
 963.888 345 l 257
 998.465 440 l 257
 652.465 440 l 257
550.189 159 m 257
 520.344 77 l 257
 864.344 77 l 257
 894.189 159 l 257
 550.189 159 l 257
906.465 440 m 257
 775.072 79 l 257
 867.072 79 l 257
 998.465 440 l 257
 906.465 440 l 257
36.3105 522 m 257
 25.5352 377 l 257
 972.921 716 l 257
 981.333 860 l 257
 36.3105 522 l 257
404.156 1148 m 257
 285.502 822 l 257
 363.502 822 l 257
 482.156 1148 l 257
 404.156 1148 l 257
405.612 1152 m 257
 371.035 1057 l 257
 717.035 1057 l 257
 751.612 1152 l 257
 405.612 1152 l 257
303.337 871 m 257
 273.491 789 l 257
 617.491 789 l 257
 647.337 871 l 257
 303.337 871 l 257
659.612 1152 m 257
 528.219 791 l 257
 620.219 791 l 257
 751.612 1152 l 257
 659.612 1152 l 257
249.01 436 m 257
 130.355 110 l 257
 208.355 110 l 257
 327.01 436 l 257
 249.01 436 l 257
250.465 440 m 257
 215.888 345 l 257
 563.888 345 l 257
 598.465 440 l 257
 250.465 440 l 257
148.189 159 m 257
 118.344 77 l 257
 462.344 77 l 257
 492.189 159 l 257
 148.189 159 l 257
506.465 440 m 257
 375.072 79 l 257
 467.072 79 l 257
 598.465 440 l 257
 506.465 440 l 257
EndSplineSet
EndChar

StartChar: plus
Encoding: 534 43 278
GlifName: plus
Width: 1024
VWidth: 0
GlyphClass: 2
Flags: W
LayerCount: 2
Fore
SplineSet
567.441 1221 m 257
 183.088 165 l 257
 408.088 165 l 257
 792.441 1221 l 257
 567.441 1221 l 257
98.8535 821 m 257
 23.1465 613 l 257
 925.146 613 l 257
 1000.85 821 l 257
 98.8535 821 l 257
EndSplineSet
EndChar

StartChar: plusminus
Encoding: 535 177 279
GlifName: plusminus
Width: 1024
VWidth: 0
GlyphClass: 2
Flags: W
LayerCount: 2
Fore
SplineSet
-11.9023 108 m 257
 -87.6084 -100 l 257
 738.392 -100 l 257
 814.098 108 l 257
 -11.9023 108 l 257
678.196 1221 m 257
 293.844 165 l 257
 518.844 165 l 257
 903.196 1221 l 257
 678.196 1221 l 257
209.608 821 m 257
 133.902 613 l 257
 1035.9 613 l 257
 1111.61 821 l 257
 209.608 821 l 257
EndSplineSet
EndChar

StartChar: q
Encoding: 536 113 280
GlifName: q
Width: 1024
VWidth: 0
GlyphClass: 2
Flags: W
AnchorPoint: "top" 960 1297 basechar 0
AnchorPoint: "base" 401 -486 basechar 0
LayerCount: 2
Fore
SplineSet
867.064 1201 m 257
 282.164 -406 l 257
 481.164 -406 l 257
 1066.06 1201 l 257
 867.064 1201 l 257
329.277 1023 m 257
 256.484 823 l 257
 905.484 823 l 257
 978.277 1023 l 257
 329.277 1023 l 257
31.8223 203 m 257
 -42.0645 0 l 257
 573.936 0 l 257
 647.822 203 l 257
 31.8223 203 l 257
267.131 855 m 257
 -5.11914 107 l 257
 194.881 107 l 257
 467.131 855 l 257
 267.131 855 l 257
371.393 -268 m 257
 321.164 -406 l 257
 557.164 -406 l 257
 607.393 -268 l 257
 371.393 -268 l 257
EndSplineSet
EndChar

StartChar: question
Encoding: 537 63 281
GlifName: question
Width: 1024
VWidth: 0
GlyphClass: 2
Flags: W
LayerCount: 2
Fore
SplineSet
94.375 247 m 257
 4.47461 0 l 257
 250.475 0 l 257
 340.375 247 l 257
 94.375 247 l 257
381.346 1519 m 257
 313.646 1333 l 257
 949.646 1333 l 257
 1017.35 1519 l 257
 381.346 1519 l 257
825.525 1514 m 257
 626.07 966 l 257
 820.07 966 l 257
 1019.53 1514 l 257
 825.525 1514 l 257
373.904 1015 m 257
 301.475 816 l 257
 765.475 816 l 257
 837.904 1015 l 257
 373.904 1015 l 257
372.448 1011 m 257
 147.151 392 l 257
 395.151 392 l 257
 620.448 1011 l 257
 372.448 1011 l 257
EndSplineSet
EndChar

StartChar: questiondown
Encoding: 538 191 282
GlifName: questiondown
Width: 1024
VWidth: 0
GlyphClass: 2
Flags: W
LayerCount: 2
Fore
SplineSet
929.988 1273 m 257
 1019.53 1519 l 257
 769.525 1519 l 257
 679.624 1272 l 257
 929.988 1273 l 257
643.654 0 m 257
 711.353 186 l 257
 74.3525 186 l 257
 6.6543 0 l 257
 643.654 0 l 257
198.475 5 m 257
 397.93 553 l 257
 203.93 553 l 257
 4.47461 5 l 257
 198.475 5 l 257
650.096 504 m 257
 722.525 703 l 257
 258.525 703 l 257
 186.096 504 l 257
 650.096 504 l 257
651.551 508 m 257
 876.849 1127 l 257
 628.849 1127 l 257
 403.551 508 l 257
 651.551 508 l 257
EndSplineSet
EndChar

StartChar: quotedbl
Encoding: 539 34 283
GlifName: quotedbl
Width: 1024
VWidth: 0
GlyphClass: 2
Flags: W
LayerCount: 2
Fore
SplineSet
194.868 1326 m 257
 338.868 1326 l 257
 429.132 1574 l 257
 285.132 1574 l 257
 194.868 1326 l 257
594.868 1326 m 257
 738.868 1326 l 257
 829.132 1574 l 257
 685.132 1574 l 257
 594.868 1326 l 257
EndSplineSet
EndChar

StartChar: quotedblbase
Encoding: 540 8222 284
GlifName: quotedblbase
Width: 1024
VWidth: 0
GlyphClass: 2
Flags: W
LayerCount: 2
Fore
SplineSet
267.7 237 m 257
 184.352 8 l 257
 432.352 8 l 257
 515.7 237 l 257
 267.7 237 l 257
329.575 135 m 257
 109.3 -146 l 257
 230.462 -206 l 257
 427.439 0 l 257
 329.575 135 l 257
666.7 237 m 257
 583.352 8 l 257
 831.352 8 l 257
 914.7 237 l 257
 666.7 237 l 257
728.575 135 m 257
 508.3 -146 l 257
 629.462 -206 l 257
 826.439 0 l 257
 728.575 135 l 257
EndSplineSet
EndChar

StartChar: quotedblleft
Encoding: 541 8220 285
GlifName: quotedblleft
Width: 1024
VWidth: 0
GlyphClass: 2
Flags: W
LayerCount: 2
Fore
SplineSet
388.3 1842 m 257
 471.648 2071 l 257
 223.648 2071 l 257
 140.3 1842 l 257
 388.3 1842 l 257
327.425 1944 m 257
 547.7 2225 l 257
 425.538 2285 l 257
 227.104 2075 l 257
 327.425 1944 l 257
724.3 1842 m 257
 807.648 2071 l 257
 559.648 2071 l 257
 476.3 1842 l 257
 724.3 1842 l 257
663.425 1944 m 257
 883.7 2225 l 257
 761.538 2285 l 257
 563.104 2075 l 257
 663.425 1944 l 257
EndSplineSet
EndChar

StartChar: quotedblright
Encoding: 542 8221 286
GlifName: quotedblright
Width: 1024
VWidth: 0
GlyphClass: 2
Flags: W
LayerCount: 2
Fore
SplineSet
625.7 2285 m 257
 542.352 2056 l 257
 790.352 2056 l 257
 873.7 2285 l 257
 625.7 2285 l 257
688.575 2183 m 257
 468.3 1902 l 257
 588.462 1842 l 257
 786.896 2052 l 257
 688.575 2183 l 257
307.7 2285 m 257
 224.352 2056 l 257
 472.352 2056 l 257
 555.7 2285 l 257
 307.7 2285 l 257
370.575 2183 m 257
 150.3 1902 l 257
 270.462 1842 l 257
 468.896 2052 l 257
 370.575 2183 l 257
EndSplineSet
EndChar

StartChar: quoteleft
Encoding: 543 8216 287
GlifName: quoteleft
Width: 1024
VWidth: 0
GlyphClass: 2
Flags: W
LayerCount: 2
Fore
SplineSet
556.3 1842 m 257
 639.648 2071 l 257
 391.648 2071 l 257
 308.3 1842 l 257
 556.3 1842 l 257
495.425 1944 m 257
 715.7 2225 l 257
 593.538 2285 l 257
 395.104 2075 l 257
 495.425 1944 l 257
EndSplineSet
EndChar

StartChar: quoteright
Encoding: 544 8217 288
GlifName: quoteright
Width: 1024
VWidth: 0
GlyphClass: 2
Flags: W
LayerCount: 2
Fore
SplineSet
467.7 2285 m 257
 384.352 2056 l 257
 632.352 2056 l 257
 715.7 2285 l 257
 467.7 2285 l 257
528.575 2183 m 257
 308.3 1902 l 257
 430.462 1842 l 257
 628.896 2052 l 257
 528.575 2183 l 257
EndSplineSet
EndChar

StartChar: quotesinglbase
Encoding: 545 8218 289
GlifName: quotesinglbase
Width: 1024
VWidth: 0
GlyphClass: 2
Flags: W
LayerCount: 2
Fore
SplineSet
467.7 237 m 257
 384.352 8 l 257
 632.352 8 l 257
 715.7 237 l 257
 467.7 237 l 257
528.575 135 m 257
 308.3 -146 l 257
 430.462 -206 l 257
 627.439 0 l 257
 528.575 135 l 257
EndSplineSet
EndChar

StartChar: quotesingle
Encoding: 546 39 290
GlifName: quotesingle
Width: 1024
VWidth: 0
GlyphClass: 2
Flags: W
LayerCount: 2
Fore
SplineSet
489.221 1496 m 257
 404.779 1264 l 257
 534.779 1264 l 257
 619.221 1496 l 257
 489.221 1496 l 257
EndSplineSet
EndChar

StartChar: r
Encoding: 547 114 291
GlifName: r
Width: 1024
VWidth: 0
GlyphClass: 2
Flags: W
AnchorPoint: "top" 504 1174 basechar 0
AnchorPoint: "base" 157 -73 basechar 0
LayerCount: 2
Fore
SplineSet
224.171 1023 m 257
 150.648 821 l 257
 883.648 821 l 257
 957.171 1023 l 257
 224.171 1023 l 257
414.057 954 m 257
 66.8291 0 l 257
 266.829 0 l 257
 614.057 954 l 257
 414.057 954 l 257
740.064 976 m 257
 621.41 650 l 257
 821.41 650 l 257
 940.064 976 l 257
 740.064 976 l 257
EndSplineSet
EndChar

StartChar: registered
Encoding: 550 174 294
GlifName: registered
Width: 1024
VWidth: 0
GlyphClass: 2
Flags: W
LayerCount: 2
Fore
SplineSet
492.906 1032 m 257
 299.638 501 l 257
 367.638 501 l 257
 560.906 1032 l 257
 492.906 1032 l 257
517.906 1032 m 257
 492.792 963 l 257
 721.792 963 l 257
 746.906 1032 l 257
 517.906 1032 l 257
686.906 1032 m 257
 603.193 802 l 257
 672.193 802 l 257
 755.906 1032 l 257
 686.906 1032 l 257
456.763 875 m 257
 429.829 801 l 257
 667.829 801 l 257
 694.763 875 l 257
 456.763 875 l 257
479.741 809 m 257
 506.274 500 l 257
 589.274 500 l 257
 549.741 809 l 257
 479.741 809 l 257
320.711 1537 m 257
 -238.711 0 l 257
 -37.7109 0 l 257
 521.711 1537 l 257
 320.711 1537 l 257
1059.71 1537 m 257
 500.289 0 l 257
 703.289 0 l 257
 1262.71 1537 l 257
 1059.71 1537 l 257
461.711 1537 m 257
 388.917 1337 l 257
 1031.92 1337 l 257
 1104.71 1537 l 257
 461.711 1537 l 257
-47.4609 204 m 257
 -121.711 0 l 257
 551.289 0 l 257
 625.539 204 l 257
 -47.4609 204 l 257
EndSplineSet
EndChar

StartChar: ring
Encoding: 551 730 295
GlifName: ring
Width: 1024
VWidth: 0
GlyphClass: 2
Flags: W
LayerCount: 2
Fore
SplineSet
460.295 1756 m 257
 608.295 1756 l 257
 560.979 1626 l 257
 412.979 1626 l 257
 460.295 1756 l 257
388.416 1847 m 257
 275.584 1537 l 257
 635.584 1537 l 257
 748.416 1847 l 257
 388.416 1847 l 257
EndSplineSet
EndChar

StartChar: s
Encoding: 552 115 296
GlifName: s
Width: 1024
VWidth: 0
GlyphClass: 2
Flags: W
AnchorPoint: "top" 711 1124 basechar 0
AnchorPoint: "base" 304 -73 basechar 0
LayerCount: 2
Fore
SplineSet
393.171 1023 m 257
 321.469 826 l 257
 930.469 826 l 257
 1002.17 1023 l 257
 393.171 1023 l 257
393.171 1023 m 257
 288.711 736 l 257
 488.711 736 l 257
 593.171 1023 l 257
 393.171 1023 l 257
94.9873 201 m 257
 21.8291 0 l 257
 626.829 0 l 257
 699.987 201 l 257
 94.9873 201 l 257
532.473 293 m 257
 430.196 12 l 257
 630.196 12 l 257
 732.473 293 l 257
 532.473 293 l 257
289.711 736 m 257
 532.473 293 l 257
 732.473 293 l 257
 489.711 736 l 257
 289.711 736 l 257
EndSplineSet
EndChar

StartChar: section
Encoding: 557 167 301
GlifName: section
Width: 1024
VWidth: 0
GlyphClass: 2
Flags: W
LayerCount: 2
Fore
SplineSet
396.503 1238 m 257
 322.617 1035 l 257
 920.617 1035 l 257
 994.503 1238 l 257
 396.503 1238 l 257
397.596 1241 m 257
 166.11 605 l 257
 368.11 605 l 257
 599.596 1241 l 257
 397.596 1241 l 257
-39.2939 -61 m 257
 -111.724 -260 l 257
 596.276 -260 l 257
 668.706 -61 l 257
 -39.2939 -61 l 257
431.64 -259 m 257
 632.64 -259 l 257
 761.485 95 l 257
 560.485 95 l 257
 431.64 -259 l 257
166.11 605 m 257
 560.485 95 l 257
 761.485 95 l 257
 368.11 605 l 257
 166.11 605 l 257
537.724 1626 m 257
 463.838 1423 l 257
 1061.84 1423 l 257
 1135.72 1626 l 257
 537.724 1626 l 257
538.815 1629 m 257
 396.14 1237 l 257
 598.14 1237 l 257
 740.815 1629 l 257
 538.815 1629 l 257
78.0039 286 m 257
 5.57324 87 l 257
 713.573 87 l 257
 786.004 286 l 257
 78.0039 286 l 257
548.938 88 m 257
 749.938 88 l 257
 878.783 442 l 257
 677.783 442 l 257
 548.938 88 l 257
396.14 1237 m 257
 677.783 442 l 257
 878.783 442 l 257
 598.14 1237 l 257
 396.14 1237 l 257
EndSplineSet
EndChar

StartChar: semicolon
Encoding: 558 59 302
GlifName: semicolon
Width: 1024
VWidth: 0
GlyphClass: 2
Flags: W
LayerCount: 2
Fore
SplineSet
390.444 430 m 257
 307.096 201 l 257
 555.096 201 l 257
 638.444 430 l 257
 390.444 430 l 257
451.319 328 m 257
 231.044 47 l 257
 353.206 -13 l 257
 551.64 197 l 257
 451.319 328 l 257
526.956 871 m 257
 437.055 624 l 257
 703.055 624 l 257
 792.956 871 l 257
 526.956 871 l 257
EndSplineSet
EndChar

StartChar: seven
Encoding: 559 55 303
GlifName: seven
Width: 1024
VWidth: 0
GlyphClass: 2
Flags: W
LayerCount: 2
Fore
SplineSet
18.7393 1355 m 257
 728.739 1355 l 257
 235.56 0 l 257
 438.56 0 l 257
 1005.26 1557 l 257
 92.2607 1557 l 257
 18.7393 1355 l 257
EndSplineSet
EndChar

StartChar: six
Encoding: 560 54 304
GlifName: six
Width: 1024
VWidth: 0
GlyphClass: 2
Flags: W
LayerCount: 2
Fore
SplineSet
321.713 1548 m 257
 -168.555 201 l 257
 -241.713 0 l 257
 697.287 0 l 257
 1046.33 959 l 257
 310.335 959 l 257
 451.919 1348 l 257
 1192.92 1348 l 257
 1265.71 1548 l 257
 321.713 1548 l 257
765.54 759 m 257
 563.173 203 l 257
 41.1729 203 l 257
 243.54 759 l 257
 765.54 759 l 257
EndSplineSet
EndChar

StartChar: slash
Encoding: 561 47 305
GlifName: slash
Width: 1024
VWidth: 0
GlyphClass: 2
Flags: W
LayerCount: 2
Fore
SplineSet
985.076 1483 m 257
 -122.508 6 l 257
 38.9238 -67 l 257
 1146.51 1410 l 257
 985.076 1483 l 257
EndSplineSet
EndChar

StartChar: sterling
Encoding: 563 163 307
GlifName: sterling
Width: 1024
VWidth: 0
GlyphClass: 2
Flags: W
LayerCount: 2
Fore
SplineSet
756.803 1543 m 257
 684.373 1344 l 257
 975.373 1344 l 257
 1047.8 1543 l 257
 756.803 1543 l 257
148.453 770 m 257
 76.0234 571 l 257
 802.023 571 l 257
 874.453 770 l 257
 148.453 770 l 257
712.439 1542 m 257
 151.197 0 l 257
 349.197 0 l 257
 910.439 1542 l 257
 712.439 1542 l 257
49.7188 202 m 257
 -23.8027 0 l 257
 702.197 0 l 257
 775.719 202 l 257
 49.7188 202 l 257
EndSplineSet
EndChar

StartChar: t
Encoding: 564 116 308
GlifName: t
Width: 1024
VWidth: 0
GlyphClass: 2
Flags: W
AnchorPoint: "top" 805 1649 basechar 0
AnchorPoint: "base" 181 -82 basechar 0
LayerCount: 2
Fore
SplineSet
670.255 1548 m 257
 106.829 0 l 257
 306.829 0 l 257
 870.255 1548 l 257
 670.255 1548 l 257
187.259 199 m 257
 114.829 0 l 257
 505.829 0 l 257
 578.259 199 l 257
 187.259 199 l 257
243.171 1023 m 257
 170.74 824 l 257
 844.74 824 l 257
 917.171 1023 l 257
 243.171 1023 l 257
EndSplineSet
EndChar

StartChar: tcaron
Encoding: 565 357 309
GlifName: tcaron
Width: 1024
VWidth: 0
GlyphClass: 2
Flags: W
LayerCount: 2
Fore
SplineSet
898.511 1529 m 257
 342 0 l 257
 543 0 l 257
 1099.51 1529 l 257
 898.511 1529 l 257
567.43 199 m 257
 495 0 l 257
 886 0 l 257
 958.43 199 l 257
 567.43 199 l 257
442.342 1023 m 257
 369.911 824 l 257
 1148.91 824 l 257
 1221.34 1023 l 257
 442.342 1023 l 257
1216.5 1496 m 257
 1141.89 1291 l 257
 1271.89 1291 l 257
 1346.5 1496 l 257
 1216.5 1496 l 257
EndSplineSet
EndChar

StartChar: thorn
Encoding: 566 254 310
GlifName: thorn
Width: 1024
VWidth: 0
GlyphClass: 2
Flags: W
LayerCount: 2
Fore
SplineSet
173 1034 m 257
 173 -406 l 257
 373 -406 l 257
 373 1034 l 257
 173 1034 l 257
360 667 m 257
 360 468 l 257
 916 468 l 257
 916 667 l 257
 360 667 l 257
368 6 m 257
 368 -195 l 257
 914 -195 l 257
 914 6 l 257
 368 6 l 257
716 597 m 257
 716 -104 l 257
 914 -104 l 257
 914 597 l 257
 716 597 l 257
EndSplineSet
EndChar

StartChar: three
Encoding: 567 51 311
GlifName: three
Width: 1024
VWidth: 0
GlyphClass: 2
Flags: W
LayerCount: 2
Fore
SplineSet
88.7148 736 m 257
 746.715 736 l 257
 548.715 192 l 257
 -151.285 192 l 257
 -224.079 -8 l 257
 679.921 -8 l 257
 1248.08 1553 l 257
 374.079 1553 l 257
 301.285 1353 l 257
 969.285 1353 l 257
 817.509 936 l 257
 161.509 936 l 257
 88.7148 736 l 257
EndSplineSet
EndChar

StartChar: threequarters
Encoding: 568 190 312
GlifName: threequarters
Width: 1024
VWidth: 0
GlyphClass: 2
Flags: W
LayerCount: 2
Fore
SplineSet
985.076 1483 m 257
 -122.508 6 l 257
 38.9238 -67 l 257
 1146.51 1410 l 257
 985.076 1483 l 257
282.279 1272 m 257
 560.279 1272 l 257
 491.854 1084 l 257
 195.854 1084 l 257
 170.738 1015 l 257
 552.738 1015 l 257
 748.555 1553 l 257
 379.555 1553 l 257
 354.441 1484 l 257
 636.441 1484 l 257
 584.029 1340 l 257
 307.029 1340 l 257
 282.279 1272 l 257
509.059 340 m 257
 774.059 340 l 257
 652.857 7 l 257
 733.857 7 l 257
 981.357 687 l 257
 899.357 687 l 257
 805.088 428 l 257
 623.088 428 l 257
 718.084 689 l 257
 636.084 689 l 257
 509.059 340 l 257
EndSplineSet
EndChar

StartChar: tilde
Encoding: 569 732 313
GlifName: tilde
Width: 1024
VWidth: 0
GlyphClass: 2
Flags: W
LayerCount: 2
Fore
SplineSet
409.646 1607 m 257
 380.893 1528 l 257
 643.059 1479 l 257
 671.812 1558 l 257
 409.646 1607 l 257
202.541 1560 m 257
 186.15 1482 l 257
 380.893 1528 l 257
 409.646 1607 l 257
 202.541 1560 l 257
671.812 1558 m 257
 643.059 1479 l 257
 829.188 1592 l 257
 837.85 1668 l 257
 671.812 1558 l 257
EndSplineSet
EndChar

StartChar: tildecomb
Encoding: 570 771 314
GlifName: tildecomb
Width: 0
VWidth: 0
GlyphClass: 4
Flags: W
AnchorPoint: "top" -11 759 mark 0
LayerCount: 2
Fore
SplineSet
-164 969 m 257
 -200 870 l 257
 128 809 l 257
 164 908 l 257
 -164 969 l 257
-423 911 m 257
 -444 813 l 257
 -200 870 l 257
 -164 969 l 257
 -423 911 l 257
164 908 m 257
 128 809 l 257
 360 950 l 257
 371 1046 l 257
 164 908 l 257
EndSplineSet
EndChar

StartChar: two
Encoding: 572 50 316
GlifName: two
Width: 1024
VWidth: 0
GlyphClass: 2
Flags: W
LayerCount: 2
Fore
SplineSet
311.463 1344 m 257
 920.463 1344 l 257
 761.772 908 l 257
 159.772 908 l 257
 -170.713 0 l 257
 617.287 0 l 257
 690.081 200 l 257
 105.081 200 l 257
 289.614 707 l 257
 888.614 707 l 257
 1194.71 1548 l 257
 385.713 1548 l 257
 311.463 1344 l 257
EndSplineSet
EndChar

StartChar: u
Encoding: 573 117 317
GlifName: u
Width: 1024
VWidth: 0
GlyphClass: 2
Flags: W
AnchorPoint: "top" 703 1122 basechar 0
AnchorPoint: "base" 360 -60 basechar 0
LayerCount: 2
Fore
SplineSet
382.171 1023 m 257
 9.8291 0 l 257
 210.829 0 l 257
 583.171 1023 l 257
 382.171 1023 l 257
814.171 1023 m 257
 441.829 0 l 257
 641.829 0 l 257
 1014.17 1023 l 257
 814.171 1023 l 257
129.623 200 m 257
 56.8291 0 l 257
 758.829 0 l 257
 831.623 200 l 257
 129.623 200 l 257
EndSplineSet
EndChar

StartChar: underscore
Encoding: 582 95 326
GlifName: underscore
Width: 1024
VWidth: 0
GlyphClass: 2
Flags: W
LayerCount: 2
Fore
SplineSet
12.0107 -5 m 257
 -12.0107 -71 l 257
 1011.99 -71 l 257
 1036.01 -5 l 257
 12.0107 -5 l 257
EndSplineSet
EndChar

StartChar: uni00B2
Encoding: 584 178 328
GlifName: uni00B_2
Width: 1024
VWidth: 0
GlyphClass: 2
Flags: W
LayerCount: 2
Fore
SplineSet
371.995 1455 m 257
 719.995 1455 l 257
 648.656 1259 l 257
 304.656 1259 l 257
 156.156 851 l 257
 605.156 851 l 257
 637.55 940 l 257
 304.55 940 l 257
 387.535 1168 l 257
 729.535 1168 l 257
 867.844 1548 l 257
 405.844 1548 l 257
 371.995 1455 l 257
EndSplineSet
EndChar

StartChar: uni00B3
Encoding: 585 179 329
GlifName: uni00B_3
Width: 1024
VWidth: 0
GlyphClass: 2
Flags: W
LayerCount: 2
Fore
SplineSet
224.857 1215 m 257
 676.857 1215 l 257
 594.965 990 l 257
 113.965 990 l 257
 84.1191 908 l 257
 705.119 908 l 257
 939.881 1553 l 257
 339.881 1553 l 257
 310.035 1471 l 257
 769.035 1471 l 257
 706.068 1298 l 257
 255.068 1298 l 257
 224.857 1215 l 257
EndSplineSet
EndChar

StartChar: uni00B9
Encoding: 586 185 330
GlifName: uni00B_9
Width: 1024
VWidth: 0
GlyphClass: 2
Flags: W
LayerCount: 2
Fore
SplineSet
321.394 887 m 257
 420.894 887 l 257
 702.606 1661 l 257
 603.106 1661 l 257
 321.394 887 l 257
605.106 1661 m 257
 452.238 1513 l 257
 509.04 1463 l 257
 662.09 1611.5 l 257
 605.106 1661 l 257
EndSplineSet
EndChar

StartChar: uni018F
Encoding: 599 399 343
GlifName: uni018F_
Width: 1024
VWidth: 0
GlyphClass: 2
Flags: W
AnchorPoint: "top" 1161.27 1630 basechar 0
AnchorPoint: "base" 647.415 -117 basechar 0
LayerCount: 2
Fore
SplineSet
804 0 m 257
 880.798 211 l 257
 341.798 211 l 257
 265 0 l 257
 804 0 l 257
854 0 m 257
 1415.61 1543 l 257
 1213.61 1543 l 257
 652 0 l 257
 854 0 l 257
1240.45 1342 m 257
 1313.61 1543 l 257
 731.606 1543 l 257
 658.448 1342 l 257
 1240.45 1342 l 257
1034.78 689 m 257
 1099.93 868 l 257
 445.926 868 l 257
 380.775 689 l 257
 1034.78 689 l 257
472.919 30 m 257
 618.29 869 l 257
 423.29 869 l 257
 277.919 30 l 257
 472.919 30 l 257
EndSplineSet
EndChar

StartChar: uni0192
Encoding: 600 402 344
GlifName: uni0192
Width: 1024
VWidth: 0
GlyphClass: 2
Flags: W
LayerCount: 2
Fore
SplineSet
413 1023 m 257
 413 -406 l 257
 613 -406 l 257
 613 1023 l 257
 413 1023 l 257
475 1023 m 257
 475 831 l 257
 957 831 l 257
 957 1023 l 257
 475 1023 l 257
229 559 m 257
 229 356 l 257
 860 356 l 257
 860 559 l 257
 229 559 l 257
167 -201 m 257
 167 -406 l 257
 615 -406 l 257
 615 -201 l 257
 167 -201 l 257
EndSplineSet
EndChar

StartChar: uni0237
Encoding: 647 567 391
GlifName: uni0237
Width: 1024
VWidth: 0
GlyphClass: 2
Flags: W
AnchorPoint: "top" 1150.21 1182 basechar 0
LayerCount: 2
Fore
SplineSet
969.132 940 m 257
 477.408 -411 l 257
 676.408 -411 l 257
 1168.13 940 l 257
 969.132 940 l 257
120.931 -209 m 257
 49.2285 -406 l 257
 579.229 -406 l 257
 650.931 -209 l 257
 120.931 -209 l 257
195.816 -6 m 257
 70.2461 -351 l 257
 270.246 -351 l 257
 395.816 -6 l 257
 195.816 -6 l 257
EndSplineSet
EndChar

StartChar: uni0259
Encoding: 648 601 392
GlifName: uni0259
Width: 1024
VWidth: 0
GlyphClass: 2
Flags: W
LayerCount: 2
Fore
SplineSet
804 0 m 257
 804 211 l 257
 240 278 l 257
 240 67 l 257
 804 0 l 257
854 0 m 257
 854 1023 l 257
 652 1023 l 257
 652 0 l 257
 854 0 l 257
752 822 m 257
 752 1023 l 257
 170 1023 l 257
 170 822 l 257
 752 822 l 257
784 398 m 257
 784 577 l 257
 194 577 l 257
 194 398 l 257
 784 398 l 257
437 97 m 257
 366 578 l 257
 171 578 l 257
 242 97 l 257
 437 97 l 257
EndSplineSet
EndChar

StartChar: uni02C9
Encoding: 652 713 396
GlifName: uni02C_9
Width: 1024
VWidth: 0
GlyphClass: 2
Flags: W
LayerCount: 2
Fore
SplineSet
246.923 1630 m 257
 217.077 1548 l 257
 777.077 1548 l 257
 806.923 1630 l 257
 246.923 1630 l 257
EndSplineSet
EndChar

StartChar: uni02CA
Encoding: 653 714 397
GlifName: uni02C_A_
Width: 1024
VWidth: 0
GlyphClass: 2
Flags: W
LayerCount: 2
Fore
SplineSet
586.914 1346 m 257
 364.465 1092 l 257
 435.723 1046 l 257
 659.535 1301 l 257
 586.914 1346 l 257
EndSplineSet
EndChar

StartChar: uni02CB
Encoding: 654 715 398
GlifName: uni02C_B_
Width: 1024
VWidth: 0
GlyphClass: 2
Flags: W
LayerCount: 2
Fore
SplineSet
441.078 2107 m 257
 475.18 1871 l 257
 582.922 1917 l 257
 550.184 2154 l 257
 441.078 2107 l 257
EndSplineSet
EndChar

StartChar: uni0302
Encoding: 655 770 399
GlifName: uni0302
Width: 0
VWidth: 0
GlyphClass: 4
Flags: W
AnchorPoint: "top" 16 767 mark 0
LayerCount: 2
Fore
SplineSet
144 1060 m 257
 84 1060 l 257
 -112 813 l 257
 -61 788 l 257
 144 1060 l 257
68 1012 m 257
 90 788 l 257
 158 810 l 257
 144 1060 l 257
 68 1012 l 257
EndSplineSet
EndChar

StartChar: uni0304
Encoding: 656 772 400
GlifName: uni0304
Width: 0
VWidth: 0
GlyphClass: 4
Flags: W
AnchorPoint: "top" -5 776 mark 0
LayerCount: 2
Fore
SplineSet
-274 891 m 257
 -304 809 l 257
 256 809 l 257
 286 891 l 257
 -274 891 l 257
EndSplineSet
EndChar

StartChar: uni0305
Encoding: 657 773 401
GlifName: uni0305
Width: 0
VWidth: 0
GlyphClass: 4
Flags: W
AnchorPoint: "top" 538 1464 mark 0
LayerCount: 2
Fore
SplineSet
206.08 1602 m 257
 184.242 1542 l 257
 938.242 1542 l 257
 960.08 1602 l 257
 206.08 1602 l 257
EndSplineSet
EndChar

StartChar: uni0306
Encoding: 658 774 402
GlifName: uni0306
Width: 0
VWidth: 0
GlyphClass: 4
Flags: W
AnchorPoint: "top" -12 826 mark 0
LayerCount: 2
Fore
SplineSet
183 899 m 257
 158 831 l 257
 348 899 l 257
 383 996 l 257
 183 899 l 257
-141 899 m 257
 -166 831 l 257
 158 831 l 257
 183 899 l 257
 -141 899 l 257
-282 981 m 257
 -312 899 l 257
 -166 831 l 257
 -141 899 l 257
 -282 981 l 257
EndSplineSet
EndChar

StartChar: uni0307
Encoding: 659 775 403
GlifName: uni0307
Width: 0
VWidth: 0
GlyphClass: 4
Flags: W
AnchorPoint: "top" -6 790 mark 0
LayerCount: 2
Fore
SplineSet
-63 995 m 257
 -136 793 l 257
 88 793 l 257
 161 995 l 257
 -63 995 l 257
EndSplineSet
EndChar

StartChar: uni0308
Encoding: 660 776 404
GlifName: uni0308
Width: 0
VWidth: 0
GlyphClass: 4
Flags: W
AnchorPoint: "top" 560 1545.8 mark 0
LayerCount: 2
Fore
SplineSet
455.58 1738 m 257
 418.818 1637 l 257
 530.818 1637 l 257
 567.58 1738 l 257
 455.58 1738 l 257
697.58 1738 m 257
 660.818 1637 l 257
 772.818 1637 l 257
 809.58 1738 l 257
 697.58 1738 l 257
EndSplineSet
EndChar

StartChar: uni030A
Encoding: 661 778 405
GlifName: uni030A_
Width: 0
VWidth: 0
GlyphClass: 4
Flags: W
AnchorPoint: "top" 4 780 mark 0
LayerCount: 2
Fore
SplineSet
-3 1032 m 257
 145 1032 l 257
 97 902 l 257
 -51 902 l 257
 -3 1032 l 257
-75 1123 m 257
 -188 813 l 257
 172 813 l 257
 285 1123 l 257
 -75 1123 l 257
EndSplineSet
EndChar

StartChar: uni030B
Encoding: 662 779 406
GlifName: uni030B_
Width: 0
VWidth: 0
GlyphClass: 4
Flags: W
AnchorPoint: "top" 3 783 mark 0
LayerCount: 2
Fore
SplineSet
-285.508 815 m 257
 -141.508 815 l 257
 39.0208 1063 l 257
 -104.979 1063 l 257
 -285.508 815 l 257
114.492 815 m 257
 258.492 815 l 257
 439.021 1063 l 257
 295.021 1063 l 257
 114.492 815 l 257
EndSplineSet
EndChar

StartChar: uni030C
Encoding: 663 780 407
GlifName: uni030C_
Width: 0
VWidth: 0
GlyphClass: 4
Flags: W
AnchorPoint: "top" -18 757 mark 0
LayerCount: 2
Fore
SplineSet
17 807 m 257
 10 1079 l 257
 -59 1054 l 257
 -43 807 l 257
 17 807 l 257
-24 855 m 257
 17 807 l 257
 213 1057 l 257
 161 1079 l 257
 -24 855 l 257
EndSplineSet
EndChar

StartChar: uni030F
Encoding: 664 783 408
GlifName: uni030F_
Width: 0
VWidth: 0
GlyphClass: 4
Flags: W
AnchorPoint: "top" -2 773 mark 0
LayerCount: 2
Fore
SplineSet
31 1032 m 257
 65 796 l 257
 172 842 l 257
 140 1079 l 257
 31 1032 l 257
-187 1032 m 257
 -153 796 l 257
 -46 842 l 257
 -78 1079 l 257
 -187 1032 l 257
EndSplineSet
EndChar

StartChar: uni0311
Encoding: 665 785 409
GlifName: uni0311
Width: 0
VWidth: 0
GlyphClass: 4
Flags: W
AnchorPoint: "top" 0 786 mark 0
LayerCount: 2
Fore
SplineSet
-202 831 m 257
 -178 899 l 257
 -367 831 l 257
 -403 734 l 257
 -202 831 l 257
122 831 m 257
 146 899 l 257
 -178 899 l 257
 -202 831 l 257
 122 831 l 257
263 749 m 257
 293 831 l 257
 146 899 l 257
 122 831 l 257
 263 749 l 257
EndSplineSet
EndChar

StartChar: uni0326
Encoding: 666 806 410
GlifName: uni0326
Width: 0
VWidth: 0
GlyphClass: 4
Flags: W
AnchorPoint: "base" 22 -5 mark 0
LayerCount: 2
Fore
SplineSet
-114.5 0 m 257
 -198.213 -230 l 257
 49.7871 -230 l 257
 133.5 0 l 257
 -114.5 0 l 257
-52.9902 -103 m 257
 -273.266 -384 l 257
 -152.104 -444 l 257
 46.3301 -234 l 257
 -52.9902 -103 l 257
EndSplineSet
EndChar

StartChar: uni0327
Encoding: 667 807 411
GlifName: uni0327
Width: 0
VWidth: 0
GlyphClass: 4
Flags: W
AnchorPoint: "base" -446 90 mark 0
LayerCount: 2
Fore
SplineSet
-157.985 180 m 257
 -275.912 -144 l 257
 -119.912 -144 l 257
 -1.98535 180 l 257
 -157.985 180 l 257
-327.323 -288 m 257
 -370.271 -406 l 257
 75.7285 -406 l 257
 118.677 -288 l 257
 -327.323 -288 l 257
71.5 0 m 257
 -63.8965 -372 l 257
 88.1035 -372 l 257
 223.5 0 l 257
 71.5 0 l 257
-222.5 0 m 257
 -279.279 -156 l 257
 166.721 -156 l 257
 223.5 0 l 257
 -222.5 0 l 257
EndSplineSet
EndChar

StartChar: uni0328
Encoding: 668 808 412
GlifName: uni0328
Width: 0
VWidth: 0
GlyphClass: 4
Flags: W
AnchorPoint: "base" -167 0 mark 0
LayerCount: 2
Fore
SplineSet
-375.823 -288 m 257
 -418.771 -406 l 257
 123.229 -406 l 257
 166.177 -288 l 257
 -375.823 -288 l 257
-271 0 m 257
 -418.771 -406 l 257
 -300.771 -406 l 257
 -153 0 l 257
 -271 0 l 257
-271 0 m 257
 -315.04 -121 l 257
 226.96 -121 l 257
 271 0 l 257
 -271 0 l 257
EndSplineSet
EndChar

StartChar: uni0331
Encoding: 669 817 413
GlifName: uni0331
Width: 0
VWidth: 0
GlyphClass: 4
Flags: W
AnchorPoint: "base" 4 -163 mark 0
LayerCount: 2
Fore
SplineSet
-341.875 -170 m 257
 -370.266 -248 l 257
 189.734 -248 l 257
 218.125 -170 l 257
 -341.875 -170 l 257
EndSplineSet
EndChar

StartChar: uni0900
Encoding: 670 2304 414
GlifName: uni0900
Width: 0
VWidth: 0
GlyphClass: 4
Flags: W
AnchorPoint: "abvm_deva" 42 1648 mark 0
LayerCount: 2
Fore
SplineSet
371.073 2124 m 257
 194.547 1639 l 257
 393.547 1639 l 257
 570.073 2124 l 257
 371.073 2124 l 257
417.801 2126 m 257
 344.643 1925 l 257
 978.643 1925 l 257
 1051.8 2126 l 257
 417.801 2126 l 257
588.805 1865 m 257
 516.011 1665 l 257
 716.011 1665 l 257
 788.805 1865 l 257
 588.805 1865 l 257
976.165 2127 m 257
 797.455 1636 l 257
 997.455 1636 l 257
 1176.17 2127 l 257
 976.165 2127 l 257
EndSplineSet
EndChar

StartChar: uni0901
Encoding: 671 2305 415
GlifName: uni0901
Width: 0
VWidth: 0
GlyphClass: 4
Flags: W
AnchorPoint: "abvm_deva" 0 1618 mark 0
LayerCount: 2
Fore
SplineSet
371.074 2124 m 257
 194.547 1639 l 257
 393.547 1639 l 257
 570.074 2124 l 257
 371.074 2124 l 257
314.434 1842 m 257
 241.275 1641 l 257
 875.275 1641 l 257
 948.434 1842 l 257
 314.434 1842 l 257
662.518 2095 m 257
 589.725 1895 l 257
 789.725 1895 l 257
 862.518 2095 l 257
 662.518 2095 l 257
977.984 2132 m 257
 799.275 1641 l 257
 999.275 1641 l 257
 1177.98 2132 l 257
 977.984 2132 l 257
EndSplineSet
EndChar

StartChar: uni0902
Encoding: 672 2306 416
GlifName: uni0902
Width: 0
VWidth: 0
GlyphClass: 4
Flags: W
AnchorPoint: "abvm_deva" -318 1636 mark 0
LayerCount: 2
Fore
SplineSet
569.342 1839 m 257
 496.547 1639 l 257
 696.547 1639 l 257
 769.342 1839 l 257
 569.342 1839 l 257
EndSplineSet
EndChar

StartChar: uni0903
Encoding: 673 2307 417
GlifName: uni0903
Width: 1024
VWidth: 0
GlyphClass: 2
Flags: W
LayerCount: 2
Fore
SplineSet
326.831 649 m 257
 254.037 449 l 257
 454.037 449 l 257
 526.831 649 l 257
 326.831 649 l 257
569.963 1317 m 257
 497.169 1117 l 257
 697.169 1117 l 257
 769.963 1317 l 257
 569.963 1317 l 257
EndSplineSet
EndChar

StartChar: uni0904
Encoding: 674 2308 418
GlifName: uni0904
Width: 1024
VWidth: 0
GlyphClass: 2
Flags: W
AnchorPoint: "abvm_deva" 636 1972 basechar 0
LayerCount: 2
Fore
SplineSet
717.891 2155 m 257
 601.784 1836 l 257
 799.784 1836 l 257
 915.891 2155 l 257
 717.891 2155 l 257
648.465 1967 m 257
 576.034 1768 l 257
 1259.03 1768 l 257
 1331.46 1967 l 257
 648.465 1967 l 257
1128.46 1956 m 257
 968.314 1516 l 257
 1169.31 1516 l 257
 1329.46 1956 l 257
 1128.46 1956 l 257
946.961 1548 m 257
 873.803 1347 l 257
 1182.8 1347 l 257
 1255.96 1548 l 257
 946.961 1548 l 257
961.009 1419 m 257
 444.535 0 l 257
 643.535 0 l 257
 1160.01 1419 l 257
 961.009 1419 l 257
280.961 1548 m 257
 208.167 1348 l 257
 731.167 1348 l 257
 803.961 1548 l 257
 280.961 1548 l 257
629.961 1548 m 257
 117.491 140 l 257
 317.491 140 l 257
 829.961 1548 l 257
 629.961 1548 l 257
126.925 894 m 257
 53.7666 693 l 257
 750.767 693 l 257
 823.925 894 l 257
 126.925 894 l 257
-234.307 201 m 257
 -307.465 0 l 257
 266.535 0 l 257
 339.693 201 l 257
 -234.307 201 l 257
EndSplineSet
EndChar

StartChar: uni0905
Encoding: 675 2309 419
GlifName: uni0905
Width: 1024
VWidth: 0
GlyphClass: 2
Flags: W
AnchorPoint: "abvm_deva" 852 1618 basechar 0
LayerCount: 2
Fore
SplineSet
983.713 1548 m 257
 910.919 1348 l 257
 1221.92 1348 l 257
 1294.71 1548 l 257
 983.713 1548 l 257
997.761 1419 m 257
 481.287 0 l 257
 680.287 0 l 257
 1196.76 1419 l 257
 997.761 1419 l 257
317.713 1548 m 257
 244.919 1348 l 257
 767.919 1348 l 257
 840.713 1548 l 257
 317.713 1548 l 257
666.713 1548 m 257
 154.243 140 l 257
 354.243 140 l 257
 866.713 1548 l 257
 666.713 1548 l 257
163.677 894 m 257
 90.5186 693 l 257
 787.519 693 l 257
 860.677 894 l 257
 163.677 894 l 257
-197.555 201 m 257
 -270.713 0 l 257
 303.287 0 l 257
 376.445 201 l 257
 -197.555 201 l 257
EndSplineSet
EndChar

StartChar: uni0906
Encoding: 676 2310 420
GlifName: uni0906
Width: 1024
VWidth: 0
GlyphClass: 2
Flags: W
AnchorPoint: "abvm_deva" 762 1606 basechar 0
LayerCount: 2
Fore
SplineSet
809.213 1548 m 257
 736.419 1348 l 257
 1233.42 1348 l 257
 1306.21 1548 l 257
 809.213 1548 l 257
778.261 1419 m 257
 261.787 0 l 257
 460.787 0 l 257
 977.261 1419 l 257
 778.261 1419 l 257
306.213 1548 m 257
 233.419 1348 l 257
 593.419 1348 l 257
 666.213 1548 l 257
 306.213 1548 l 257
492.213 1548 m 257
 -20.2568 140 l 257
 179.743 140 l 257
 692.213 1548 l 257
 492.213 1548 l 257
152.177 894 m 257
 79.0186 693 l 257
 613.019 693 l 257
 686.177 894 l 257
 152.177 894 l 257
-209.055 201 m 257
 -282.213 0 l 257
 128.787 0 l 257
 201.945 201 l 257
 -209.055 201 l 257
1045.62 1420 m 257
 528.787 0 l 257
 727.787 0 l 257
 1244.62 1420 l 257
 1045.62 1420 l 257
EndSplineSet
EndChar

StartChar: uni0907
Encoding: 677 2311 421
GlifName: uni0907
Width: 1024
VWidth: 0
GlyphClass: 2
Flags: W
AnchorPoint: "abvm_deva" 630 1600 basechar 0
LayerCount: 2
Fore
SplineSet
196.117 1548 m 257
 123.323 1348 l 257
 1148.32 1348 l 257
 1221.12 1548 l 257
 196.117 1548 l 257
735.565 1530 m 257
 582.698 1110 l 257
 782.698 1110 l 257
 935.565 1530 l 257
 735.565 1530 l 257
236.275 1205 m 257
 163.117 1004 l 257
 744.117 1004 l 257
 817.275 1205 l 257
 236.275 1205 l 257
227.54 1181 m 257
 66.3018 738 l 257
 236.302 738 l 257
 397.54 1181 l 257
 227.54 1181 l 257
118.35 881 m 257
 45.5547 681 l 257
 640.555 681 l 257
 713.35 881 l 257
 118.35 881 l 257
592.35 881 m 257
 372.875 278 l 257
 571.875 278 l 257
 791.35 881 l 257
 592.35 881 l 257
-115.846 298 m 257
 -189.004 97 l 257
 505.996 97 l 257
 579.154 298 l 257
 -115.846 298 l 257
0.154297 298 m 257
 -197.117 -244 l 257
 2.88281 -244 l 257
 200.154 298 l 257
 0.154297 298 l 257
EndSplineSet
EndChar

StartChar: uni0908
Encoding: 678 2312 422
GlifName: uni0908
Width: 1024
VWidth: 0
GlyphClass: 2
Flags: W
AnchorPoint: "abvm_deva" 780 1624 basechar 0
LayerCount: 2
Fore
SplineSet
196.117 1548 m 257
 123.323 1348 l 257
 1148.32 1348 l 257
 1221.12 1548 l 257
 196.117 1548 l 257
742.117 1548 m 257
 580.515 1104 l 257
 780.515 1104 l 257
 942.117 1548 l 257
 742.117 1548 l 257
236.275 1205 m 257
 163.117 1004 l 257
 744.117 1004 l 257
 817.275 1205 l 257
 236.275 1205 l 257
227.54 1181 m 257
 66.3018 738 l 257
 266.302 738 l 257
 427.54 1181 l 257
 227.54 1181 l 257
118.35 881 m 257
 45.5547 681 l 257
 640.555 681 l 257
 713.35 881 l 257
 118.35 881 l 257
610.35 881 m 257
 393.423 285 l 257
 574.423 285 l 257
 791.35 881 l 257
 610.35 881 l 257
-115.846 298 m 257
 -189.004 97 l 257
 508.996 97 l 257
 582.154 298 l 257
 -115.846 298 l 257
0.154297 298 m 257
 -197.117 -244 l 257
 25.8828 -244 l 257
 223.154 298 l 257
 0.154297 298 l 257
544.919 1770 m 257
 665.621 1423 l 257
 870.113 1537 l 257
 749.14 1886 l 257
 544.919 1770 l 257
EndSplineSet
EndChar

StartChar: uni0909
Encoding: 679 2313 423
GlifName: uni0909
Width: 1024
VWidth: 0
GlyphClass: 2
Flags: W
AnchorPoint: "abvm_deva" 558 1606 basechar 0
LayerCount: 2
Fore
SplineSet
215.713 1548 m 257
 142.919 1348 l 257
 1168.92 1348 l 257
 1241.71 1548 l 257
 215.713 1548 l 257
689.161 1530 m 257
 496.621 1001 l 257
 695.621 1001 l 257
 888.161 1530 l 257
 689.161 1530 l 257
267.272 1044 m 257
 194.842 845 l 257
 836.842 845 l 257
 909.272 1044 l 257
 267.272 1044 l 257
692.073 994 m 257
 330.287 0 l 257
 530.287 0 l 257
 892.073 994 l 257
 692.073 994 l 257
-144.555 201 m 257
 -217.713 0 l 257
 519.287 0 l 257
 592.445 201 l 257
 -144.555 201 l 257
-85.5918 363 m 257
 -204.61 36 l 257
 -4.61035 36 l 257
 114.408 363 l 257
 -85.5918 363 l 257
EndSplineSet
EndChar

StartChar: uni090A
Encoding: 680 2314 424
GlifName: uni090A_
Width: 1024
VWidth: 0
GlyphClass: 2
Flags: W
AnchorPoint: "abvm_deva" 516 1612 basechar 0
LayerCount: 2
Fore
SplineSet
257.303 1548 m 257
 184.509 1348 l 257
 1209.51 1348 l 257
 1282.3 1548 l 257
 257.303 1548 l 257
558.751 1530 m 257
 366.211 1001 l 257
 565.211 1001 l 257
 757.751 1530 l 257
 558.751 1530 l 257
224.862 1044 m 257
 152.432 845 l 257
 975.432 845 l 257
 1047.86 1044 l 257
 224.862 1044 l 257
542.663 994 m 257
 184.881 11 l 257
 384.881 11 l 257
 742.663 994 l 257
 542.663 994 l 257
-185.873 204 m 257
 -258.303 5 l 257
 379.697 5 l 257
 452.127 204 l 257
 -185.873 204 l 257
-126.91 366 m 257
 -245.928 39 l 257
 -45.9277 39 l 257
 73.0898 366 l 257
 -126.91 366 l 257
813.192 946 m 257
 547.858 217 l 257
 746.858 217 l 257
 1012.19 946 l 257
 813.192 946 l 257
EndSplineSet
EndChar

StartChar: uni090B
Encoding: 681 2315 425
GlifName: uni090B_
Width: 1024
VWidth: 0
GlyphClass: 2
Flags: W
AnchorPoint: "abvm_deva" 600 1600 basechar 0
LayerCount: 2
Fore
SplineSet
161.34 1548 m 257
 87.8184 1346 l 257
 1114.82 1346 l 257
 1188.34 1548 l 257
 161.34 1548 l 257
670.969 1525 m 257
 115.914 0 l 257
 314.914 0 l 257
 869.969 1525 l 257
 670.969 1525 l 257
-0.100586 1044 m 257
 -72.5312 845 l 257
 231.469 845 l 257
 303.899 1044 l 257
 -0.100586 1044 l 257
289.443 496 m 257
 -164.34 329 l 257
 -152.586 136 l 257
 301.197 303 l 257
 289.443 496 l 257
303.899 1044 m 257
 231.833 846 l 257
 475.979 742 l 257
 549.502 944 l 257
 303.899 1044 l 257
619.396 897 m 257
 547.329 699 l 257
 862.329 699 l 257
 934.396 897 l 257
 619.396 897 l 257
712.396 897 m 257
 481.274 262 l 257
 680.274 262 l 257
 911.396 897 l 257
 712.396 897 l 257
630.068 462 m 257
 557.274 262 l 257
 721.274 262 l 257
 794.068 462 l 257
 630.068 462 l 257
EndSplineSet
EndChar

StartChar: uni090C
Encoding: 682 2316 426
GlifName: uni090C_
Width: 1024
VWidth: 0
GlyphClass: 2
Flags: W
AnchorPoint: "abvm_deva" 618 1588 basechar 0
LayerCount: 2
Fore
SplineSet
213.853 1548 m 257
 141.786 1350 l 257
 1167.79 1350 l 257
 1239.85 1548 l 257
 213.853 1548 l 257
762.117 1524 m 257
 458.202 689 l 257
 658.202 689 l 257
 962.117 1524 l 257
 762.117 1524 l 257
883.327 791 m 257
 -20.6729 791 l 257
 -93.8311 590 l 257
 810.169 590 l 257
 883.327 791 l 257
-24.7686 777 m 257
 -215.853 252 l 257
 -14.8525 252 l 257
 176.231 777 l 257
 -24.7686 777 l 257
331.327 791 m 257
 201.025 433 l 257
 402.025 433 l 257
 532.327 791 l 257
 331.327 791 l 257
683.327 791 m 257
 421.633 72 l 257
 621.633 72 l 257
 883.327 791 l 257
 683.327 791 l 257
565.059 260 m 257
 496.633 72 l 257
 697.633 72 l 257
 766.059 260 l 257
 565.059 260 l 257
EndSplineSet
EndChar

StartChar: uni090D
Encoding: 683 2317 427
GlifName: uni090D_
Width: 1024
VWidth: 0
GlyphClass: 2
Flags: W
AnchorPoint: "abvm_deva" 474 2104 basechar 0
LayerCount: 2
Fore
SplineSet
151.884 1548 m 257
 79.0898 1348 l 257
 1105.09 1348 l 257
 1177.88 1548 l 257
 151.884 1548 l 257
880.884 1548 m 257
 600.991 779 l 257
 799.991 779 l 257
 1079.88 1548 l 257
 880.884 1548 l 257
528.829 839 m 257
 456.035 639 l 257
 749.035 639 l 257
 821.829 839 l 257
 528.829 839 l 257
291.7 1542 m 257
 -146.521 338 l 257
 52.4795 338 l 257
 490.7 1542 l 257
 291.7 1542 l 257
-89.0127 496 m 257
 -161.442 297 l 257
 445.558 297 l 257
 517.987 496 l 257
 -89.0127 496 l 257
268.76 358 m 257
 102.789 -98 l 257
 301.789 -98 l 257
 467.76 358 l 257
 268.76 358 l 257
12.2188 101 m 257
 -60.2109 -98 l 257
 299.789 -98 l 257
 372.219 101 l 257
 12.2188 101 l 257
518.531 2124 m 257
 342.005 1639 l 257
 541.005 1639 l 257
 717.531 2124 l 257
 518.531 2124 l 257
461.163 1840 m 257
 388.733 1641 l 257
 982.733 1641 l 257
 1055.16 1840 l 257
 461.163 1840 l 257
986.442 2132 m 257
 807.733 1641 l 257
 1006.73 1641 l 257
 1185.44 2132 l 257
 986.442 2132 l 257
EndSplineSet
EndChar

StartChar: uni090E
Encoding: 684 2318 428
GlifName: uni090E_
Width: 1024
VWidth: 0
GlyphClass: 2
Flags: W
AnchorPoint: "abvm_deva" 732 1936 basechar 0
LayerCount: 2
Fore
SplineSet
159.542 1548 m 257
 86.748 1348 l 257
 1112.75 1348 l 257
 1185.54 1548 l 257
 159.542 1548 l 257
835.767 1403 m 257
 608.649 779 l 257
 807.649 779 l 257
 1034.77 1403 l 257
 835.767 1403 l 257
587.443 979 m 257
 514.649 779 l 257
 807.649 779 l 257
 880.443 979 l 257
 587.443 979 l 257
299.358 1542 m 257
 -138.862 338 l 257
 60.1377 338 l 257
 498.358 1542 l 257
 299.358 1542 l 257
-131.582 358 m 257
 -204.013 159 l 257
 395.987 159 l 257
 468.418 358 l 257
 -131.582 358 l 257
267.418 358 m 257
 101.447 -98 l 257
 302.447 -98 l 257
 468.418 358 l 257
 267.418 358 l 257
-35.7148 -38 m 257
 -108.509 -238 l 257
 251.491 -238 l 257
 324.285 -38 l 257
 -35.7148 -38 l 257
616.623 2062 m 257
 529.634 1823 l 257
 729.634 1823 l 257
 816.623 2062 l 257
 616.623 2062 l 257
545.013 1868 m 257
 471.854 1667 l 257
 1154.85 1667 l 257
 1228.01 1868 l 257
 545.013 1868 l 257
1022.37 1858 m 257
 905.538 1537 l 257
 1107.54 1537 l 257
 1224.37 1858 l 257
 1022.37 1858 l 257
EndSplineSet
EndChar

StartChar: uni090F
Encoding: 685 2319 429
GlifName: uni090F_
Width: 1024
VWidth: 0
GlyphClass: 2
Flags: W
AnchorPoint: "abvm_deva" 522 1630 basechar 0
LayerCount: 2
Fore
SplineSet
157.663 1548 m 257
 84.8691 1348 l 257
 1110.87 1348 l 257
 1183.66 1548 l 257
 157.663 1548 l 257
881.663 1548 m 257
 602.862 782 l 257
 802.862 782 l 257
 1081.66 1548 l 257
 881.663 1548 l 257
581.564 979 m 257
 508.771 779 l 257
 801.771 779 l 257
 874.564 979 l 257
 581.564 979 l 257
293.479 1542 m 257
 -144.741 338 l 257
 55.2588 338 l 257
 493.479 1542 l 257
 293.479 1542 l 257
-86.8691 497 m 257
 -159.663 297 l 257
 440.337 297 l 257
 513.131 497 l 257
 -86.8691 497 l 257
311.396 473 m 257
 103.568 -98 l 257
 303.568 -98 l 257
 511.396 473 l 257
 311.396 473 l 257
14.3623 102 m 257
 -58.4316 -98 l 257
 301.568 -98 l 257
 374.362 102 l 257
 14.3623 102 l 257
EndSplineSet
EndChar

StartChar: uni0910
Encoding: 686 2320 430
GlifName: uni0910
Width: 1024
VWidth: 0
GlyphClass: 2
Flags: W
AnchorPoint: "abvm_deva" 936 1702 basechar 0
LayerCount: 2
Fore
SplineSet
157.663 1548 m 257
 84.8691 1348 l 257
 1110.87 1348 l 257
 1183.66 1548 l 257
 157.663 1548 l 257
881.663 1548 m 257
 601.771 779 l 257
 801.771 779 l 257
 1081.66 1548 l 257
 881.663 1548 l 257
581.564 979 m 257
 508.771 779 l 257
 801.771 779 l 257
 874.564 979 l 257
 581.564 979 l 257
293.479 1542 m 257
 -144.741 338 l 257
 55.2588 338 l 257
 493.479 1542 l 257
 293.479 1542 l 257
-86.8691 497 m 257
 -159.663 297 l 257
 440.337 297 l 257
 513.131 497 l 257
 -86.8691 497 l 257
304.396 473 m 257
 96.5684 -98 l 257
 296.568 -98 l 257
 504.396 473 l 257
 304.396 473 l 257
14.3623 102 m 257
 -58.4316 -98 l 257
 301.568 -98 l 257
 374.362 102 l 257
 14.3623 102 l 257
721.593 1883 m 257
 873.807 1433 l 257
 1079.66 1548 l 257
 927.45 1998 l 257
 721.593 1883 l 257
EndSplineSet
EndChar

StartChar: uni0911
Encoding: 687 2321 431
GlifName: uni0911
Width: 1024
VWidth: 0
GlyphClass: 2
Flags: W
AnchorPoint: "abvm_deva" 774 2170 basechar 0
LayerCount: 2
Fore
SplineSet
712.851 1548 m 257
 640.057 1348 l 257
 1137.06 1348 l 257
 1209.85 1548 l 257
 712.851 1548 l 257
681.898 1419 m 257
 165.425 0 l 257
 364.425 0 l 257
 880.898 1419 l 257
 681.898 1419 l 257
209.851 1548 m 257
 137.057 1348 l 257
 497.057 1348 l 257
 569.851 1548 l 257
 209.851 1548 l 257
395.851 1548 m 257
 -116.619 140 l 257
 83.3809 140 l 257
 595.851 1548 l 257
 395.851 1548 l 257
55.8145 894 m 257
 -17.3438 693 l 257
 516.656 693 l 257
 589.814 894 l 257
 55.8145 894 l 257
-305.417 201 m 257
 -378.575 0 l 257
 32.4248 0 l 257
 105.583 201 l 257
 -305.417 201 l 257
949.263 1420 m 257
 432.425 0 l 257
 631.425 0 l 257
 1148.26 1420 l 257
 949.263 1420 l 257
912.303 2085 m 257
 749.972 1639 l 257
 949.972 1639 l 257
 1112.3 2085 l 257
 912.303 2085 l 257
822.766 1839 m 257
 749.608 1638 l 257
 1240.61 1638 l 257
 1313.77 1839 l 257
 822.766 1839 l 257
1202.58 2083 m 257
 1041.7 1641 l 257
 1241.7 1641 l 257
 1402.58 2083 l 257
 1202.58 2083 l 257
EndSplineSet
EndChar

StartChar: uni0912
Encoding: 688 2322 432
GlifName: uni0912
Width: 1024
VWidth: 0
GlyphClass: 2
Flags: W
AnchorPoint: "abvm_deva" 696 2056 basechar 0
LayerCount: 2
Fore
SplineSet
771.461 1548 m 257
 698.667 1348 l 257
 1195.67 1348 l 257
 1268.46 1548 l 257
 771.461 1548 l 257
745.509 1419 m 257
 229.035 0 l 257
 428.035 0 l 257
 944.509 1419 l 257
 745.509 1419 l 257
268.461 1548 m 257
 195.667 1348 l 257
 555.667 1348 l 257
 628.461 1548 l 257
 268.461 1548 l 257
454.461 1548 m 257
 -58.0088 140 l 257
 141.991 140 l 257
 654.461 1548 l 257
 454.461 1548 l 257
114.425 894 m 257
 41.2666 693 l 257
 575.267 693 l 257
 648.425 894 l 257
 114.425 894 l 257
-246.807 201 m 257
 -319.965 0 l 257
 91.0352 0 l 257
 164.193 201 l 257
 -246.807 201 l 257
1007.87 1420 m 257
 491.035 0 l 257
 690.035 0 l 257
 1206.87 1420 l 257
 1007.87 1420 l 257
730.391 2155 m 257
 614.284 1836 l 257
 812.284 1836 l 257
 928.391 2155 l 257
 730.391 2155 l 257
660.965 1967 m 257
 588.534 1768 l 257
 1271.53 1768 l 257
 1343.96 1967 l 257
 660.965 1967 l 257
1140.96 1956 m 257
 980.814 1516 l 257
 1181.81 1516 l 257
 1341.96 1956 l 257
 1140.96 1956 l 257
EndSplineSet
EndChar

StartChar: uni0913
Encoding: 689 2323 433
GlifName: uni0913
Width: 1024
VWidth: 0
GlyphClass: 2
Flags: W
AnchorPoint: "abvm_deva" 1032 1582 basechar 0
LayerCount: 2
Fore
SplineSet
806.713 1548 m 257
 733.919 1348 l 257
 1230.92 1348 l 257
 1303.71 1548 l 257
 806.713 1548 l 257
775.761 1419 m 257
 259.287 0 l 257
 458.287 0 l 257
 974.761 1419 l 257
 775.761 1419 l 257
303.713 1548 m 257
 230.919 1348 l 257
 590.919 1348 l 257
 663.713 1548 l 257
 303.713 1548 l 257
489.713 1548 m 257
 -22.7568 140 l 257
 177.243 140 l 257
 689.713 1548 l 257
 489.713 1548 l 257
149.677 894 m 257
 76.5186 693 l 257
 610.519 693 l 257
 683.677 894 l 257
 149.677 894 l 257
-206.555 201 m 257
 -279.713 0 l 257
 126.287 0 l 257
 199.445 201 l 257
 -206.555 201 l 257
1044.22 1423 m 257
 526.287 0 l 257
 725.287 0 l 257
 1243.22 1423 l 257
 1044.22 1423 l 257
997.786 1768 m 257
 1045.96 1458 l 257
 1256.71 1548 l 257
 1208.64 1861 l 257
 997.786 1768 l 257
EndSplineSet
EndChar

StartChar: uni0914
Encoding: 690 2324 434
GlifName: uni0914
Width: 1024
VWidth: 0
GlyphClass: 2
Flags: W
AnchorPoint: "abvm_deva" 1050 1564 basechar 0
LayerCount: 2
Fore
SplineSet
773.139 1548 m 257
 700.346 1348 l 257
 1197.35 1348 l 257
 1270.14 1548 l 257
 773.139 1548 l 257
742.188 1419 m 257
 225.713 0 l 257
 424.713 0 l 257
 941.188 1419 l 257
 742.188 1419 l 257
270.139 1548 m 257
 197.346 1348 l 257
 557.346 1348 l 257
 630.139 1548 l 257
 270.139 1548 l 257
456.139 1548 m 257
 -56.3301 140 l 257
 143.67 140 l 257
 656.139 1548 l 257
 456.139 1548 l 257
116.104 894 m 257
 42.9453 693 l 257
 576.945 693 l 257
 650.104 894 l 257
 116.104 894 l 257
-233.129 201 m 257
 -306.287 0 l 257
 92.7129 0 l 257
 165.871 201 l 257
 -233.129 201 l 257
1009.55 1420 m 257
 492.713 0 l 257
 691.713 0 l 257
 1208.55 1420 l 257
 1009.55 1420 l 257
657.662 1750 m 257
 864.139 1548 l 257
 1156.14 1548 l 257
 849.35 1903 l 257
 657.662 1750 l 257
1119.09 1949 m 257
 1026.68 1522 l 257
 1248.14 1548 l 257
 1330.29 1988 l 257
 1119.09 1949 l 257
EndSplineSet
EndChar

StartChar: uni0915
Encoding: 691 2325 435
GlifName: uni0915
Width: 1024
VWidth: 0
GlyphClass: 2
Flags: W
AnchorPoint: "abvm_deva" 636 1582 basechar 0
LayerCount: 2
Fore
SplineSet
134.594 1548 m 257
 61.7988 1348 l 257
 1086.8 1348 l 257
 1159.59 1548 l 257
 134.594 1548 l 257
644.947 1516 m 257
 96.8066 10 l 257
 296.807 10 l 257
 844.947 1516 l 257
 644.947 1516 l 257
77.6934 1029 m 257
 4.53516 828 l 257
 367.535 828 l 257
 440.693 1029 l 257
 77.6934 1029 l 257
63.1348 989 m 257
 -135.594 443 l 257
 62.4062 443 l 257
 261.135 989 l 257
 63.1348 989 l 257
-43.3438 647 m 257
 -117.594 443 l 257
 308.406 443 l 257
 382.656 647 l 257
 -43.3438 647 l 257
517.277 874 m 257
 444.848 675 l 257
 750.848 675 l 257
 823.277 874 l 257
 517.277 874 l 257
674.277 874 m 257
 567.998 582 l 257
 766.998 582 l 257
 873.277 874 l 257
 674.277 874 l 257
EndSplineSet
EndChar

StartChar: uni0915_uni0930_uni094D.vatu
Encoding: 692 -1 436
GlifName: uni0915_uni0930_uni094D_.vatu
Width: 1024
VWidth: 0
GlyphClass: 3
Flags: W
LayerCount: 2
Fore
SplineSet
248.213 1548 m 257
 175.055 1347 l 257
 1191.05 1347 l 257
 1264.21 1548 l 257
 248.213 1548 l 257
758.566 1516 m 257
 210.427 10 l 257
 410.427 10 l 257
 958.566 1516 l 257
 758.566 1516 l 257
191.312 1029 m 257
 118.154 828 l 257
 600.154 828 l 257
 673.312 1029 l 257
 191.312 1029 l 257
179.754 989 m 257
 -18.9736 443 l 257
 179.026 443 l 257
 377.754 989 l 257
 179.754 989 l 257
68.8203 643 m 257
 -5.42969 439 l 257
 420.57 439 l 257
 494.82 643 l 257
 68.8203 643 l 257
630.897 874 m 257
 558.467 675 l 257
 864.467 675 l 257
 936.897 874 l 257
 630.897 874 l 257
789.717 879 m 257
 683.438 587 l 257
 882.438 587 l 257
 988.717 879 l 257
 789.717 879 l 257
-240.213 0 m 257
 16.7871 0 l 257
 435.041 215 l 257
 508.198 416 l 257
 -240.213 0 l 257
EndSplineSet
Ligature2: "rkrfRakarVariantsinDevanagari2lookup0 subtable" uni0915 uni0930_uni094D.blwf
EndChar

StartChar: uni0915_uni094D.half
Encoding: 693 -1 437
GlifName: uni0915_uni094D_.half
Width: 1024
VWidth: 0
GlyphClass: 3
Flags: W
LayerCount: 2
Fore
SplineSet
137.594 1548 m 257
 64.4355 1347 l 257
 1080.44 1347 l 257
 1153.59 1548 l 257
 137.594 1548 l 257
647.947 1516 m 257
 99.8066 10 l 257
 299.807 10 l 257
 847.947 1516 l 257
 647.947 1516 l 257
80.6934 1029 m 257
 7.53516 828 l 257
 489.535 828 l 257
 562.693 1029 l 257
 80.6934 1029 l 257
69.1348 989 m 257
 -129.594 443 l 257
 68.4062 443 l 257
 267.135 989 l 257
 69.1348 989 l 257
-41.7988 643 m 257
 -116.049 439 l 257
 309.951 439 l 257
 384.201 643 l 257
 -41.7988 643 l 257
520.277 874 m 257
 447.848 675 l 257
 832.848 675 l 257
 905.277 874 l 257
 520.277 874 l 257
EndSplineSet
Ligature2: "halfHalfFormsinDevanagari2lookup0 subtable" uni0915 uni094D
EndChar

StartChar: uni0915_uni094D.haln
Encoding: 694 -1 438
GlifName: uni0915_uni094D_.haln
Width: 1024
VWidth: 0
GlyphClass: 3
Flags: W
LayerCount: 2
Fore
SplineSet
147.37 1548 m 257
 37.0469 1348 l 257
 1062.05 1348 l 257
 1172.37 1548 l 257
 147.37 1548 l 257
651.719 1516 m 257
 -179.012 10 l 257
 20.9883 10 l 257
 851.719 1516 l 257
 651.719 1516 l 257
-6.91699 1029 m 257
 -117.791 828 l 257
 245.209 828 l 257
 356.083 1029 l 257
 -6.91699 1029 l 257
-28.9814 989 m 257
 -330.163 443 l 257
 -132.163 443 l 257
 169.019 989 l 257
 -28.9814 989 l 257
-199.634 647 m 257
 -312.163 443 l 257
 113.837 443 l 257
 226.366 647 l 257
 -199.634 647 l 257
403.582 874 m 257
 293.812 675 l 257
 599.812 675 l 257
 709.582 874 l 257
 403.582 874 l 257
560.582 874 m 257
 399.512 582 l 257
 598.512 582 l 257
 759.582 874 l 257
 560.582 874 l 257
12.6885 -22 m 257
 -95.4277 -218 l 257
 261.572 -218 l 257
 369.688 -22 l 257
 12.6885 -22 l 257
139.88 -183 m 257
 253.476 -588 l 257
 487.389 -425 l 257
 372.24 -21 l 257
 139.88 -183 l 257
EndSplineSet
Ligature2: "halnHalantFormsinDevanagari2lookup0 subtable" uni0915 uni094D
EndChar

StartChar: uni0915_uni094D_uni0937.akhn
Encoding: 695 -1 439
GlifName: uni0915_uni094D__uni0937.akhn
Width: 1024
VWidth: 0
GlyphClass: 3
Flags: W
LayerCount: 2
Fore
SplineSet
837.504 1548 m 257
 765.801 1351 l 257
 1124.8 1351 l 257
 1196.5 1548 l 257
 837.504 1548 l 257
881.037 1511 m 257
 331.078 0 l 257
 530.078 0 l 257
 1080.04 1511 l 257
 881.037 1511 l 257
49.4375 1078 m 257
 -23.3574 878 l 257
 849.643 878 l 257
 922.438 1078 l 257
 49.4375 1078 l 257
28.4199 1023 m 257
 229.42 1023 l 257
 374.643 1422 l 257
 173.643 1422 l 257
 28.4199 1023 l 257
179.375 1435 m 257
 106.58 1235 l 257
 625.58 1235 l 257
 698.375 1435 l 257
 179.375 1435 l 257
494.643 1422 m 257
 298.1 882 l 257
 496.1 882 l 257
 692.643 1422 l 257
 494.643 1422 l 257
-1.80078 635 m 257
 195.199 635 l 257
 494.371 880 l 257
 296.371 880 l 257
 -1.80078 635 l 257
-1.80078 635 m 257
 -160.129 200 l 257
 38.8711 200 l 257
 197.199 635 l 257
 -1.80078 635 l 257
-99.3457 367 m 257
 -172.504 166 l 257
 551.496 166 l 257
 624.654 367 l 257
 -99.3457 367 l 257
EndSplineSet
Ligature2: "akhnAkhandinDevanagari2lookup0 subtable" uni0915 uni094D uni0937
EndChar

StartChar: uni0915_uni094D_uni0937.half
Encoding: 696 -1 440
GlifName: uni0915_uni094D__uni0937.half
Width: 1024
VWidth: 0
GlyphClass: 3
Flags: W
LayerCount: 2
Fore
SplineSet
837.504 1548 m 257
 765.801 1351 l 257
 1124.8 1351 l 257
 1196.5 1548 l 257
 837.504 1548 l 257
49.4375 1078 m 257
 -23.3574 878 l 257
 1049.64 878 l 257
 1122.44 1078 l 257
 49.4375 1078 l 257
28.4199 1023 m 257
 229.42 1023 l 257
 374.643 1422 l 257
 173.643 1422 l 257
 28.4199 1023 l 257
179.375 1435 m 257
 106.58 1235 l 257
 625.58 1235 l 257
 698.375 1435 l 257
 179.375 1435 l 257
494.643 1422 m 257
 298.1 882 l 257
 496.1 882 l 257
 692.643 1422 l 257
 494.643 1422 l 257
-1.80078 635 m 257
 195.199 635 l 257
 494.371 880 l 257
 296.371 880 l 257
 -1.80078 635 l 257
-1.80078 635 m 257
 -160.129 200 l 257
 38.8711 200 l 257
 197.199 635 l 257
 -1.80078 635 l 257
-99.3457 367 m 257
 -172.504 166 l 257
 751.496 166 l 257
 824.654 367 l 257
 -99.3457 367 l 257
EndSplineSet
Ligature2: "halfHalfFormsinDevanagari2lookup0 subtable" uni0915_uni094D_uni0937.akhn uni094D
EndChar

StartChar: uni0915_uni094D_uni0937_uni094D
Encoding: 697 -1 441
GlifName: uni0915_uni094D__uni0937_uni094D_
Width: 1024
VWidth: 0
GlyphClass: 3
Flags: W
LayerCount: 2
Fore
SplineSet
1089.01 1548 m 257
 945.603 1351 l 257
 1304.6 1351 l 257
 1448.01 1548 l 257
 1089.01 1548 l 257
1119.07 1511 m 257
 19.1562 0 l 257
 218.156 0 l 257
 1318.07 1511 l 257
 1119.07 1511 l 257
129.875 1078 m 257
 -15.7139 878 l 257
 857.286 878 l 257
 1002.88 1078 l 257
 129.875 1078 l 257
88.8389 1023 m 257
 289.839 1023 l 257
 580.286 1422 l 257
 379.286 1422 l 257
 88.8389 1023 l 257
389.75 1435 m 257
 244.161 1235 l 257
 763.161 1235 l 257
 908.75 1435 l 257
 389.75 1435 l 257
700.286 1422 m 257
 307.199 882 l 257
 505.199 882 l 257
 898.286 1422 l 257
 700.286 1422 l 257
-82.6016 635 m 257
 114.398 635 l 257
 502.743 880 l 257
 304.743 880 l 257
 -82.6016 635 l 257
-82.6016 635 m 257
 -399.257 200 l 257
 -200.257 200 l 257
 116.398 635 l 257
 -82.6016 635 l 257
-277.69 367 m 257
 -424.007 166 l 257
 299.993 166 l 257
 446.31 367 l 257
 -277.69 367 l 257
1005.58 -22 m 257
 862.905 -218 l 257
 1219.91 -218 l 257
 1362.58 -22 l 257
 1005.58 -22 l 257
1104.38 -183 m 257
 1146.57 -588 l 257
 1409.22 -425 l 257
 1365.31 -21 l 257
 1104.38 -183 l 257
EndSplineSet
Ligature2: "halnHalantFormsinDevanagari2lookup0 subtable" uni0915_uni094D_uni0937.akhn uni094D
EndChar

StartChar: uni0916
Encoding: 698 2326 442
GlifName: uni0916
Width: 1024
VWidth: 0
GlyphClass: 2
Flags: W
AnchorPoint: "abvm_deva" 606 1582 basechar 0
LayerCount: 2
Fore
SplineSet
205.975 1548 m 257
 133.545 1349 l 257
 1163.54 1349 l 257
 1235.97 1548 l 257
 205.975 1548 l 257
890.6 1514 m 257
 339.549 0 l 257
 539.549 0 l 257
 1090.6 1514 l 257
 890.6 1514 l 257
434.875 979 m 257
 362.082 779 l 257
 590.082 779 l 257
 662.875 979 l 257
 434.875 979 l 257
404.875 979 m 257
 214.883 457 l 257
 414.883 457 l 257
 604.875 979 l 257
 404.875 979 l 257
255.283 568 m 257
 182.49 368 l 257
 525.49 368 l 257
 598.283 568 l 257
 255.283 568 l 257
288.029 1441 m 257
 -192.775 120 l 257
 7.22461 120 l 257
 488.029 1441 l 257
 288.029 1441 l 257
-74.2969 734 m 257
 -147.092 534 l 257
 156.908 534 l 257
 229.703 734 l 257
 -74.2969 734 l 257
-139.18 270 m 257
 -211.975 70 l 257
 502.025 70 l 257
 574.82 270 l 257
 -139.18 270 l 257
EndSplineSet
EndChar

StartChar: uni0916_uni0930_uni094D.vatu
Encoding: 699 -1 443
GlifName: uni0916_uni0930_uni094D_.vatu
Width: 1024
VWidth: 0
GlyphClass: 3
Flags: W
LayerCount: 2
Fore
SplineSet
-243.713 0 m 257
 13.2871 0 l 257
 431.541 215 l 257
 504.698 416 l 257
 -243.713 0 l 257
237.713 1548 m 257
 165.283 1349 l 257
 1195.28 1349 l 257
 1267.71 1548 l 257
 237.713 1548 l 257
922.338 1514 m 257
 371.287 0 l 257
 571.287 0 l 257
 1122.34 1514 l 257
 922.338 1514 l 257
527.033 1145 m 257
 454.239 945 l 257
 682.239 945 l 257
 755.033 1145 l 257
 527.033 1145 l 257
497.033 1145 m 257
 307.041 623 l 257
 507.041 623 l 257
 697.033 1145 l 257
 497.033 1145 l 257
347.441 734 m 257
 274.647 534 l 257
 617.647 534 l 257
 690.441 734 l 257
 347.441 734 l 257
319.769 1441 m 257
 -100.617 286 l 257
 99.3828 286 l 257
 519.769 1441 l 257
 319.769 1441 l 257
17.8604 900 m 257
 -54.9336 700 l 257
 249.066 700 l 257
 321.86 900 l 257
 17.8604 900 l 257
-47.0215 436 m 257
 -119.815 236 l 257
 594.185 236 l 257
 666.979 436 l 257
 -47.0215 436 l 257
EndSplineSet
Ligature2: "rkrfRakarVariantsinDevanagari2lookup0 subtable" uni0916 uni0930_uni094D.blwf
EndChar

StartChar: uni0916_uni094D.half
Encoding: 700 -1 444
GlifName: uni0916_uni094D_.half
Width: 1024
VWidth: 0
GlyphClass: 3
Flags: W
LayerCount: 2
Fore
SplineSet
108.975 1548 m 257
 36.5449 1349 l 257
 1066.54 1349 l 257
 1138.97 1548 l 257
 108.975 1548 l 257
531.875 979 m 257
 459.082 779 l 257
 687.082 779 l 257
 759.875 979 l 257
 531.875 979 l 257
501.875 979 m 257
 311.883 457 l 257
 511.883 457 l 257
 701.875 979 l 257
 501.875 979 l 257
352.283 568 m 257
 279.49 368 l 257
 701.49 368 l 257
 774.283 568 l 257
 352.283 568 l 257
385.029 1441 m 257
 -95.7754 120 l 257
 104.225 120 l 257
 585.029 1441 l 257
 385.029 1441 l 257
22.7031 734 m 257
 -50.0918 534 l 257
 253.908 534 l 257
 326.703 734 l 257
 22.7031 734 l 257
-42.1797 270 m 257
 -114.975 70 l 257
 599.025 70 l 257
 671.82 270 l 257
 -42.1797 270 l 257
EndSplineSet
Ligature2: "halfHalfFormsinDevanagari2lookup0 subtable" uni0916 uni094D
EndChar

StartChar: uni0916_uni094D.haln
Encoding: 701 -1 445
GlifName: uni0916_uni094D_.haln
Width: 1024
VWidth: 0
GlyphClass: 3
Flags: W
LayerCount: 2
Fore
SplineSet
286.631 1548 m 257
 176.86 1349 l 257
 1206.86 1349 l 257
 1316.63 1548 l 257
 286.631 1548 l 257
964.876 1514 m 257
 129.733 0 l 257
 329.733 0 l 257
 1164.88 1514 l 257
 964.876 1514 l 257
408.763 979 m 257
 298.441 779 l 257
 526.441 779 l 257
 636.763 979 l 257
 408.763 979 l 257
378.763 979 m 257
 90.8203 457 l 257
 290.82 457 l 257
 578.763 979 l 257
 378.763 979 l 257
152.05 568 m 257
 41.7275 368 l 257
 384.728 368 l 257
 495.05 568 l 257
 152.05 568 l 257
348.607 1441 m 257
 -380.073 120 l 257
 -180.073 120 l 257
 548.607 1441 l 257
 348.607 1441 l 257
-146.382 734 m 257
 -256.705 534 l 257
 47.2949 534 l 257
 157.618 734 l 257
 -146.382 734 l 257
-298.331 270 m 257
 -408.654 70 l 257
 305.346 70 l 257
 415.669 270 l 257
 -298.331 270 l 257
-72.4326 -22 m 257
 -180.548 -218 l 257
 176.452 -218 l 257
 284.567 -22 l 257
 -72.4326 -22 l 257
54.7588 -183 m 257
 168.354 -588 l 257
 402.268 -425 l 257
 287.119 -21 l 257
 54.7588 -183 l 257
EndSplineSet
Ligature2: "halnHalantFormsinDevanagari2lookup0 subtable" uni0916 uni094D
EndChar

StartChar: uni0917
Encoding: 702 2327 446
GlifName: uni0917
Width: 1024
VWidth: 0
GlyphClass: 2
Flags: W
AnchorPoint: "abvm_deva" 780 1588 basechar 0
LayerCount: 2
Fore
SplineSet
-45.042 853 m 257
 153.958 853 l 257
 223.477 1044 l 257
 24.4766 1044 l 257
 -45.042 853 l 257
-34.4873 882 m 257
 -106.917 683 l 257
 369.083 683 l 257
 441.513 882 l 257
 -34.4873 882 l 257
484.917 1548 m 257
 217.035 812 l 257
 416.035 812 l 257
 683.917 1548 l 257
 484.917 1548 l 257
1130.92 1548 m 257
 366.917 1548 l 257
 294.123 1348 l 257
 1058.12 1348 l 257
 1130.92 1548 l 257
828.818 1523 m 257
 274.491 0 l 257
 473.491 0 l 257
 1027.82 1523 l 257
 828.818 1523 l 257
EndSplineSet
EndChar

StartChar: uni0917_uni0930_uni094D.vatu
Encoding: 703 -1 447
GlifName: uni0917_uni0930_uni094D_.vatu
Width: 1024
VWidth: 0
GlyphClass: 3
Flags: W
LayerCount: 2
Fore
SplineSet
-199.213 0 m 257
 57.7871 0 l 257
 476.041 215 l 257
 549.198 416 l 257
 -199.213 0 l 257
60.2539 853 m 257
 259.254 853 l 257
 328.772 1044 l 257
 129.772 1044 l 257
 60.2539 853 l 257
70.8086 882 m 257
 -1.62109 683 l 257
 474.379 683 l 257
 546.809 882 l 257
 70.8086 882 l 257
590.213 1548 m 257
 322.331 812 l 257
 521.331 812 l 257
 789.213 1548 l 257
 590.213 1548 l 257
1223.21 1548 m 257
 472.213 1548 l 257
 399.419 1348 l 257
 1150.42 1348 l 257
 1223.21 1548 l 257
934.114 1523 m 257
 379.787 0 l 257
 578.787 0 l 257
 1133.11 1523 l 257
 934.114 1523 l 257
EndSplineSet
Ligature2: "rkrfRakarVariantsinDevanagari2lookup0 subtable" uni0917 uni0930_uni094D.blwf
EndChar

StartChar: uni0917_uni094D.half
Encoding: 704 -1 448
GlifName: uni0917_uni094D_.half
Width: 1024
VWidth: 0
GlyphClass: 3
Flags: W
LayerCount: 2
Fore
SplineSet
-38.542 853 m 257
 160.458 853 l 257
 229.977 1044 l 257
 30.9766 1044 l 257
 -38.542 853 l 257
-27.9873 882 m 257
 -100.417 683 l 257
 375.583 683 l 257
 448.013 882 l 257
 -27.9873 882 l 257
491.417 1548 m 257
 223.535 812 l 257
 422.535 812 l 257
 690.417 1548 l 257
 491.417 1548 l 257
1124.42 1548 m 257
 373.417 1548 l 257
 300.623 1348 l 257
 1051.62 1348 l 257
 1124.42 1548 l 257
EndSplineSet
Ligature2: "halfHalfFormsinDevanagari2lookup0 subtable" uni0917 uni094D
EndChar

StartChar: uni0917_uni094D.haln
Encoding: 705 -1 449
GlifName: uni0917_uni094D_.haln
Width: 1024
VWidth: 0
GlyphClass: 3
Flags: W
LayerCount: 2
Fore
SplineSet
-206.354 853 m 257
 -7.35449 853 l 257
 98.0039 1044 l 257
 -100.996 1044 l 257
 -206.354 853 l 257
-190.358 882 m 257
 -300.129 683 l 257
 175.871 683 l 257
 285.642 882 l 257
 -190.358 882 l 257
454.017 1548 m 257
 48.0293 812 l 257
 247.029 812 l 257
 653.017 1548 l 257
 454.017 1548 l 257
1100.02 1548 m 257
 336.017 1548 l 257
 225.693 1348 l 257
 989.693 1348 l 257
 1100.02 1548 l 257
793.227 1523 m 257
 -46.8809 0 l 257
 152.119 0 l 257
 992.227 1523 l 257
 793.227 1523 l 257
26.0078 -22 m 257
 -82.1084 -218 l 257
 274.892 -218 l 257
 383.008 -22 l 257
 26.0078 -22 l 257
153.198 -183 m 257
 266.795 -588 l 257
 500.708 -425 l 257
 385.56 -21 l 257
 153.198 -183 l 257
EndSplineSet
Ligature2: "halnHalantFormsinDevanagari2lookup0 subtable" uni0917 uni094D
EndChar

StartChar: uni0918
Encoding: 706 2328 450
GlifName: uni0918
Width: 1024
VWidth: 0
GlyphClass: 2
Flags: W
AnchorPoint: "abvm_deva" 732 1618 basechar 0
LayerCount: 2
Fore
SplineSet
145.259 1548 m 257
 72.4648 1348 l 257
 1098.46 1348 l 257
 1171.26 1548 l 257
 145.259 1548 l 257
836.796 1522 m 257
 287.564 13 l 257
 487.564 13 l 257
 1036.8 1522 l 257
 836.796 1522 l 257
306.248 1515 m 257
 76.2188 883 l 257
 275.219 883 l 257
 505.248 1515 l 257
 306.248 1515 l 257
182.594 917 m 257
 109.8 717 l 257
 353.8 717 l 257
 426.594 917 l 257
 182.594 917 l 257
-68.4648 469 m 257
 -141.259 269 l 257
 556.741 269 l 257
 629.535 469 l 257
 -68.4648 469 l 257
-147.259 269 m 257
 51.7412 269 l 257
 231.906 764 l 257
 32.9062 764 l 257
 -147.259 269 l 257
EndSplineSet
EndChar

StartChar: uni0918_uni0930_uni094D.vatu
Encoding: 707 -1 451
GlifName: uni0918_uni0930_uni094D_.vatu
Width: 1024
VWidth: 0
GlyphClass: 3
Flags: W
LayerCount: 2
Fore
SplineSet
-217.305 0 m 257
 39.6953 0 l 257
 457.949 215 l 257
 531.106 416 l 257
 -217.305 0 l 257
219.305 1554 m 257
 146.511 1354 l 257
 1168.51 1354 l 257
 1241.3 1554 l 257
 219.305 1554 l 257
908.658 1522 m 257
 359.427 13 l 257
 559.427 13 l 257
 1108.66 1522 l 257
 908.658 1522 l 257
378.11 1515 m 257
 148.081 883 l 257
 347.081 883 l 257
 577.11 1515 l 257
 378.11 1515 l 257
254.456 917 m 257
 181.662 717 l 257
 425.662 717 l 257
 498.456 917 l 257
 254.456 917 l 257
3.39746 469 m 257
 -69.3965 269 l 257
 628.604 269 l 257
 701.397 469 l 257
 3.39746 469 l 257
-75.3965 269 m 257
 123.604 269 l 257
 303.769 764 l 257
 104.769 764 l 257
 -75.3965 269 l 257
EndSplineSet
Ligature2: "rkrfRakarVariantsinDevanagari2lookup0 subtable" uni0918 uni0930_uni094D.blwf
EndChar

StartChar: uni0918_uni094D.half
Encoding: 708 -1 452
GlifName: uni0918_uni094D_.half
Width: 1024
VWidth: 0
GlyphClass: 3
Flags: W
LayerCount: 2
Fore
SplineSet
148.351 1554 m 257
 75.5566 1354 l 257
 1097.56 1354 l 257
 1170.35 1554 l 257
 148.351 1554 l 257
307.156 1515 m 257
 77.127 883 l 257
 276.127 883 l 257
 506.156 1515 l 257
 307.156 1515 l 257
183.502 917 m 257
 110.708 717 l 257
 354.708 717 l 257
 427.502 917 l 257
 183.502 917 l 257
-67.5566 469 m 257
 -140.351 269 l 257
 694.649 269 l 257
 767.443 469 l 257
 -67.5566 469 l 257
-146.351 269 m 257
 52.6494 269 l 257
 232.814 764 l 257
 33.8145 764 l 257
 -146.351 269 l 257
EndSplineSet
Ligature2: "halfHalfFormsinDevanagari2lookup0 subtable" uni0918 uni094D
EndChar

StartChar: uni0918_uni094D.haln
Encoding: 709 -1 453
GlifName: uni0918_uni094D_.haln
Width: 1024
VWidth: 0
GlyphClass: 3
Flags: W
LayerCount: 2
Fore
SplineSet
189.7 1548 m 257
 79.3779 1348 l 257
 1105.38 1348 l 257
 1215.7 1548 l 257
 189.7 1548 l 257
876.358 1522 m 257
 43.9736 13 l 257
 243.974 13 l 257
 1076.36 1522 l 257
 876.358 1522 l 257
344.497 1515 m 257
 -4.12207 883 l 257
 194.878 883 l 257
 543.497 1515 l 257
 344.497 1515 l 257
108.633 917 m 257
 -1.69043 717 l 257
 242.31 717 l 257
 352.633 917 l 257
 108.633 917 l 257
-226.49 469 m 257
 -336.812 269 l 257
 361.188 269 l 257
 471.51 469 l 257
 -226.49 469 l 257
-342.812 269 m 257
 -143.812 269 l 257
 129.235 764 l 257
 -69.7646 764 l 257
 -342.812 269 l 257
20.3477 -22 m 257
 -87.7686 -218 l 257
 269.231 -218 l 257
 377.348 -22 l 257
 20.3477 -22 l 257
147.538 -183 m 257
 261.135 -588 l 257
 495.048 -425 l 257
 379.899 -21 l 257
 147.538 -183 l 257
EndSplineSet
Ligature2: "halnHalantFormsinDevanagari2lookup0 subtable" uni0918 uni094D
EndChar

StartChar: uni0919
Encoding: 710 2329 454
GlifName: uni0919
Width: 1024
VWidth: 0
GlyphClass: 2
Flags: W
AnchorPoint: "abvm_deva" 630 1582 basechar 0
LayerCount: 2
Fore
SplineSet
225.213 1548 m 257
 153.146 1350 l 257
 1178.15 1350 l 257
 1250.21 1548 l 257
 225.213 1548 l 257
732.394 1543 m 257
 543.129 1023 l 257
 743.129 1023 l 257
 932.394 1543 l 257
 732.394 1543 l 257
808.015 1226 m 257
 334.015 1226 l 257
 260.129 1023 l 257
 734.129 1023 l 257
 808.015 1226 l 257
280.967 1083 m 257
 115.725 629 l 257
 320.725 629 l 257
 485.967 1083 l 257
 280.967 1083 l 257
185.243 820 m 257
 112.448 620 l 257
 673.448 620 l 257
 746.243 820 l 257
 185.243 820 l 257
495.287 680 m 257
 258.342 29 l 257
 458.342 29 l 257
 695.287 680 l 257
 495.287 680 l 257
-153.055 201 m 257
 -226.213 0 l 257
 448.787 0 l 257
 521.945 201 l 257
 -153.055 201 l 257
-72.2539 423 m 257
 -223.301 8 l 257
 -22.3008 8 l 257
 128.746 423 l 257
 -72.2539 423 l 257
852.225 1037 m 257
 798.721 890 l 257
 955.721 890 l 257
 1009.22 1037 l 257
 852.225 1037 l 257
EndSplineSet
EndChar

StartChar: uni0919_uni0930_uni094D.vatu
Encoding: 711 -1 455
GlifName: uni0919_uni0930_uni094D_.vatu
Width: 1024
VWidth: 0
GlyphClass: 3
Flags: W
LayerCount: 2
Fore
SplineSet
121.869 112 m 257
 207.561 -268 l 257
 489.561 -268 l 257
 305.381 281 l 257
 121.869 112 l 257
305.381 281 m 257
 -304.715 -277 l 257
 -83.7148 -277 l 257
 360.326 116 l 257
 305.381 281 l 257
306.715 1554 m 257
 233.92 1354 l 257
 1255.92 1354 l 257
 1328.71 1554 l 257
 306.715 1554 l 257
811.711 1543 m 257
 646.105 1088 l 257
 846.105 1088 l 257
 1011.71 1543 l 257
 811.711 1543 l 257
909.898 1288 m 257
 435.898 1288 l 257
 363.105 1088 l 257
 837.105 1088 l 257
 909.898 1288 l 257
382.852 1145 m 257
 217.609 691 l 257
 422.609 691 l 257
 587.852 1145 l 257
 382.852 1145 l 257
287.127 882 m 257
 214.332 682 l 257
 775.332 682 l 257
 848.127 882 l 257
 287.127 882 l 257
597.17 742 m 257
 447.58 331 l 257
 647.58 331 l 257
 797.17 742 l 257
 597.17 742 l 257
36.1816 503 m 257
 -36.9766 302 l 257
 638.023 302 l 257
 711.182 503 l 257
 36.1816 503 l 257
85.6816 639 m 257
 -34.0645 310 l 257
 166.936 310 l 257
 286.682 639 l 257
 85.6816 639 l 257
954.107 1099 m 257
 900.605 952 l 257
 1057.61 952 l 257
 1111.11 1099 l 257
 954.107 1099 l 257
EndSplineSet
Ligature2: "rkrfRakarVariantsinDevanagari2lookup0 subtable" uni0919 uni0930_uni094D.blwf
EndChar

StartChar: uni0919_uni094D.half
Encoding: 712 -1 456
GlifName: uni0919_uni094D_.half
Width: 1024
VWidth: 0
GlyphClass: 3
Flags: W
LayerCount: 2
Fore
SplineSet
203.055 1554 m 257
 130.261 1354 l 257
 1152.26 1354 l 257
 1225.05 1554 l 257
 203.055 1554 l 257
708.052 1543 m 257
 518.787 1023 l 257
 718.787 1023 l 257
 908.052 1543 l 257
 708.052 1543 l 257
783.673 1226 m 257
 309.673 1226 l 257
 235.787 1023 l 257
 709.787 1023 l 257
 783.673 1226 l 257
256.625 1083 m 257
 91.3828 629 l 257
 296.383 629 l 257
 461.625 1083 l 257
 256.625 1083 l 257
160.901 820 m 257
 88.1064 620 l 257
 649.106 620 l 257
 721.901 820 l 257
 160.901 820 l 257
470.945 680 m 257
 283.5 165 l 257
 483.5 165 l 257
 670.945 680 l 257
 470.945 680 l 257
-127.896 337 m 257
 -201.055 136 l 257
 473.945 136 l 257
 547.104 337 l 257
 -127.896 337 l 257
-47.0957 559 m 257
 -198.143 144 l 257
 2.85742 144 l 257
 153.904 559 l 257
 -47.0957 559 l 257
827.883 1037 m 257
 774.379 890 l 257
 931.379 890 l 257
 984.883 1037 l 257
 827.883 1037 l 257
-3.53613 55 m 257
 -198.874 -141 l 257
 158.126 -141 l 257
 353.464 55 l 257
 -3.53613 55 l 257
147.864 -106 m 257
 337.456 -511 l 257
 540.783 -348 l 257
 349.828 56 l 257
 147.864 -106 l 257
EndSplineSet
Ligature2: "halfHalfFormsinDevanagari2lookup0 subtable" uni0919 uni094D
EndChar

StartChar: uni0919_uni094D.haln
Encoding: 713 -1 457
GlifName: uni0919_uni094D_.haln
Width: 1024
VWidth: 0
GlyphClass: 3
Flags: W
LayerCount: 2
Fore
SplineSet
318.608 1548 m 257
 209.389 1350 l 257
 1234.39 1350 l 257
 1343.61 1548 l 257
 318.608 1548 l 257
824.851 1543 m 257
 538.012 1023 l 257
 738.012 1023 l 257
 1024.85 1543 l 257
 824.851 1543 l 257
840.989 1226 m 257
 366.989 1226 l 257
 255.012 1023 l 257
 729.012 1023 l 257
 840.989 1226 l 257
287.108 1083 m 257
 36.6758 629 l 257
 241.676 629 l 257
 492.108 1083 l 257
 287.108 1083 l 257
142.034 820 m 257
 31.7109 620 l 257
 592.711 620 l 257
 703.034 820 l 257
 142.034 820 l 257
425.809 680 m 257
 66.707 29 l 257
 266.707 29 l 257
 625.809 680 l 257
 425.809 680 l 257
-312.414 201 m 257
 -423.289 0 l 257
 251.711 0 l 257
 362.586 201 l 257
 -312.414 201 l 257
-189.957 423 m 257
 -418.876 8 l 257
 -217.876 8 l 257
 11.043 423 l 257
 -189.957 423 l 257
849.734 1037 m 257
 768.647 890 l 257
 925.647 890 l 257
 1006.73 1037 l 257
 849.734 1037 l 257
-87.6924 -22 m 257
 -195.809 -218 l 257
 161.191 -218 l 257
 269.308 -22 l 257
 -87.6924 -22 l 257
39.498 -183 m 257
 153.095 -588 l 257
 387.008 -425 l 257
 271.859 -21 l 257
 39.498 -183 l 257
EndSplineSet
Ligature2: "halnHalantFormsinDevanagari2lookup0 subtable" uni0919 uni094D
EndChar

StartChar: uni091A
Encoding: 714 2330 458
GlifName: uni091A_
Width: 1024
VWidth: 0
GlyphClass: 2
Flags: W
AnchorPoint: "abvm_deva" 720 1624 basechar 0
LayerCount: 2
Fore
SplineSet
101.263 1548 m 257
 29.5605 1351 l 257
 1054.56 1351 l 257
 1126.26 1548 l 257
 101.263 1548 l 257
739.083 1553 m 257
 173.837 0 l 257
 373.837 0 l 257
 939.083 1553 l 257
 739.083 1553 l 257
442.749 280 m 257
 515.543 480 l 257
 8.54297 480 l 257
 -64.251 280 l 257
 442.749 280 l 257
138.48 837 m 257
 -12.9316 421 l 257
 187.068 421 l 257
 338.48 837 l 257
 138.48 837 l 257
-29.4688 991 m 257
 -102.263 791 l 257
 393.737 791 l 257
 466.531 991 l 257
 -29.4688 991 l 257
EndSplineSet
EndChar

StartChar: uni091A_uni0930_uni094D.vatu
Encoding: 715 -1 459
GlifName: uni091A__uni0930_uni094D_.vatu
Width: 1024
VWidth: 0
GlyphClass: 3
Flags: W
LayerCount: 2
Fore
SplineSet
-217.669 0 m 257
 39.3311 0 l 257
 457.585 215 l 257
 530.742 416 l 257
 -217.669 0 l 257
219.669 1556 m 257
 146.875 1356 l 257
 1168.88 1356 l 257
 1241.67 1556 l 257
 219.669 1556 l 257
854.577 1553 m 257
 289.331 0 l 257
 489.331 0 l 257
 1054.58 1553 l 257
 854.577 1553 l 257
558.243 280 m 257
 631.037 480 l 257
 124.037 480 l 257
 51.2432 280 l 257
 558.243 280 l 257
253.975 837 m 257
 102.562 421 l 257
 302.562 421 l 257
 453.975 837 l 257
 253.975 837 l 257
86.0254 991 m 257
 13.2314 791 l 257
 509.231 791 l 257
 582.025 991 l 257
 86.0254 991 l 257
EndSplineSet
Ligature2: "rkrfRakarVariantsinDevanagari2lookup0 subtable" uni091A uni0930_uni094D.blwf
EndChar

StartChar: uni091A_uni094D.half
Encoding: 716 -1 460
GlifName: uni091A__uni094D_.half
Width: 1024
VWidth: 0
GlyphClass: 3
Flags: W
LayerCount: 2
Fore
SplineSet
104.219 1556 m 257
 31.4248 1356 l 257
 1053.42 1356 l 257
 1126.22 1556 l 257
 104.219 1556 l 257
692.793 280 m 257
 765.587 480 l 257
 8.58691 480 l 257
 -64.207 280 l 257
 692.793 280 l 257
138.524 837 m 257
 -12.8877 421 l 257
 187.112 421 l 257
 338.524 837 l 257
 138.524 837 l 257
-29.4248 991 m 257
 -102.219 791 l 257
 393.781 791 l 257
 466.575 991 l 257
 -29.4248 991 l 257
EndSplineSet
Ligature2: "halfHalfFormsinDevanagari2lookup0 subtable" uni091A uni094D
EndChar

StartChar: uni091A_uni094D.haln
Encoding: 717 -1 461
GlifName: uni091A__uni094D_.haln
Width: 1024
VWidth: 0
GlyphClass: 3
Flags: W
LayerCount: 2
Fore
SplineSet
125.137 1548 m 257
 16.4697 1351 l 257
 1041.47 1351 l 257
 1150.14 1548 l 257
 125.137 1548 l 257
763.896 1553 m 257
 -92.7598 0 l 257
 107.24 0 l 257
 963.896 1553 l 257
 763.896 1553 l 257
228.692 280 m 257
 339.015 480 l 257
 -167.985 480 l 257
 -278.308 280 l 257
 228.692 280 l 257
28.9404 837 m 257
 -200.531 421 l 257
 -0.53125 421 l 257
 228.94 837 l 257
 28.9404 837 l 257
-110.111 991 m 257
 -220.435 791 l 257
 275.565 791 l 257
 385.889 991 l 257
 -110.111 991 l 257
89.7891 -22 m 257
 -18.3271 -218 l 257
 338.673 -218 l 257
 446.789 -22 l 257
 89.7891 -22 l 257
216.979 -183 m 257
 330.576 -588 l 257
 564.489 -425 l 257
 449.341 -21 l 257
 216.979 -183 l 257
EndSplineSet
Ligature2: "halnHalantFormsinDevanagari2lookup0 subtable" uni091A uni094D
EndChar

StartChar: uni091B
Encoding: 718 2331 462
GlifName: uni091B_
Width: 1024
VWidth: 0
GlyphClass: 2
Flags: W
AnchorPoint: "abvm_deva" 600 1600 basechar 0
LayerCount: 2
Fore
SplineSet
238.713 1548 m 257
 166.646 1350 l 257
 1192.65 1350 l 257
 1264.71 1548 l 257
 238.713 1548 l 257
519.573 1130 m 257
 178.573 1130 l 257
 106.144 931 l 257
 447.144 931 l 257
 519.573 1130 l 257
175.573 1130 m 257
 -23.1543 584 l 257
 176.846 584 l 257
 375.573 1130 l 257
 175.573 1130 l 257
74.8643 639 m 257
 2.07031 439 l 257
 252.07 439 l 257
 324.864 639 l 257
 74.8643 639 l 257
-61.2754 493 m 257
 -240.713 0 l 257
 -40.7129 0 l 257
 138.725 493 l 257
 -61.2754 493 l 257
-168.283 199 m 257
 -240.713 0 l 257
 394.287 0 l 257
 466.717 199 l 257
 -168.283 199 l 257
195.471 6 m 257
 396.471 6 l 257
 945.702 1515 l 257
 744.702 1515 l 257
 195.471 6 l 257
700.805 1007 m 257
 628.375 808 l 257
 966.375 808 l 257
 1038.8 1007 l 257
 700.805 1007 l 257
787.213 868 m 257
 642.717 471 l 257
 843.717 471 l 257
 988.213 868 l 257
 787.213 868 l 257
EndSplineSet
EndChar

StartChar: uni091B_uni0930_uni094D.vatu
Encoding: 719 -1 463
GlifName: uni091B__uni0930_uni094D_.vatu
Width: 1024
VWidth: 0
GlyphClass: 3
Flags: W
LayerCount: 2
Fore
SplineSet
-228.986 0 m 257
 28.0137 0 l 257
 446.268 215 l 257
 519.424 416 l 257
 -228.986 0 l 257
230.986 1555 m 257
 158.193 1355 l 257
 1180.19 1355 l 257
 1252.99 1555 l 257
 230.986 1555 l 257
542.961 1206 m 257
 201.961 1206 l 257
 129.531 1007 l 257
 470.531 1007 l 257
 542.961 1206 l 257
198.961 1206 m 257
 31.5352 746 l 257
 231.535 746 l 257
 398.961 1206 l 257
 198.961 1206 l 257
129.553 801 m 257
 56.7598 601 l 257
 306.76 601 l 257
 379.553 801 l 257
 129.553 801 l 257
-6.58594 655 m 257
 -159.818 234 l 257
 40.1816 234 l 257
 193.414 655 l 257
 -6.58594 655 l 257
-87.3887 433 m 257
 -159.818 234 l 257
 475.182 234 l 257
 547.611 433 l 257
 -87.3887 433 l 257
189.014 0 m 257
 390.014 0 l 257
 916.314 1446 l 257
 715.314 1446 l 257
 189.014 0 l 257
696.531 1007 m 257
 624.102 808 l 257
 962.102 808 l 257
 1034.53 1007 l 257
 696.531 1007 l 257
782.939 868 m 257
 638.443 471 l 257
 839.443 471 l 257
 983.939 868 l 257
 782.939 868 l 257
EndSplineSet
Ligature2: "rkrfRakarVariantsinDevanagari2lookup0 subtable" uni091B uni0930_uni094D.blwf
EndChar

StartChar: uni091B_uni094D.half
Encoding: 720 -1 464
GlifName: uni091B__uni094D_.half
Width: 1024
VWidth: 0
GlyphClass: 3
Flags: W
LayerCount: 2
Fore
SplineSet
113.986 1555 m 257
 41.1934 1355 l 257
 1063.19 1355 l 257
 1135.99 1555 l 257
 113.986 1555 l 257
648.299 1130 m 257
 307.299 1130 l 257
 234.869 931 l 257
 575.869 931 l 257
 648.299 1130 l 257
304.299 1130 m 257
 105.572 584 l 257
 305.572 584 l 257
 504.299 1130 l 257
 304.299 1130 l 257
203.59 639 m 257
 130.797 439 l 257
 380.797 439 l 257
 453.59 639 l 257
 203.59 639 l 257
67.4512 493 m 257
 -111.986 0 l 257
 88.0137 0 l 257
 267.451 493 l 257
 67.4512 493 l 257
-39.5566 199 m 257
 -111.986 0 l 257
 573.014 0 l 257
 645.443 199 l 257
 -39.5566 199 l 257
EndSplineSet
Ligature2: "halfHalfFormsinDevanagari2lookup0 subtable" uni091B uni094D
EndChar

StartChar: uni091B_uni094D.haln
Encoding: 721 -1 465
GlifName: uni091B__uni094D_.haln
Width: 1024
VWidth: 0
GlyphClass: 3
Flags: W
LayerCount: 2
Fore
SplineSet
332.901 1548 m 257
 223.682 1350 l 257
 1249.68 1350 l 257
 1358.9 1548 l 257
 332.901 1548 l 257
535.327 1130 m 257
 194.327 1130 l 257
 84.5566 931 l 257
 425.557 931 l 257
 535.327 1130 l 257
191.327 1130 m 257
 -109.854 584 l 257
 90.1465 584 l 257
 391.327 1130 l 257
 191.327 1130 l 257
-1.51465 639 m 257
 -111.838 439 l 257
 138.162 439 l 257
 248.485 639 l 257
 -1.51465 639 l 257
-165.051 493 m 257
 -436.996 0 l 257
 -236.996 0 l 257
 34.9492 493 l 257
 -165.051 493 l 257
-327.226 199 m 257
 -436.996 0 l 257
 198.004 0 l 257
 307.774 199 l 257
 -327.226 199 l 257
0.313477 6 m 257
 201.313 6 l 257
 1033.7 1515 l 257
 832.698 1515 l 257
 0.313477 6 l 257
693.479 1007 m 257
 583.708 808 l 257
 921.708 808 l 257
 1031.48 1007 l 257
 693.479 1007 l 257
753.804 868 m 257
 534.813 471 l 257
 735.813 471 l 257
 954.804 868 l 257
 753.804 868 l 257
-259.217 -13 m 257
 -367.332 -209 l 257
 -10.332 -209 l 257
 97.7832 -13 l 257
 -259.217 -13 l 257
-132.025 -174 m 257
 -18.4287 -579 l 257
 215.483 -416 l 257
 100.336 -12 l 257
 -132.025 -174 l 257
EndSplineSet
Ligature2: "halnHalantFormsinDevanagari2lookup0 subtable" uni091B uni094D
EndChar

StartChar: uni091C
Encoding: 722 2332 466
GlifName: uni091C_
Width: 1024
VWidth: 0
GlyphClass: 2
Flags: W
AnchorPoint: "abvm_deva" 762 1594 basechar 0
LayerCount: 2
Fore
SplineSet
193.424 1548 m 257
 120.631 1348 l 257
 1146.63 1348 l 257
 1219.42 1548 l 257
 193.424 1548 l 257
871.424 1548 m 257
 303.631 -12 l 257
 502.631 -12 l 257
 1070.42 1548 l 257
 871.424 1548 l 257
340.014 860 m 257
 268.311 663 l 257
 682.311 663 l 257
 754.014 860 l 257
 340.014 860 l 257
294.014 860 m 257
 131.318 413 l 257
 331.318 413 l 257
 494.014 860 l 257
 294.014 860 l 257
-122.631 567 m 257
 -195.424 367 l 257
 314.576 367 l 257
 387.369 567 l 257
 -122.631 567 l 257
-64.3945 727 m 257
 -143.74 509 l 257
 56.2598 509 l 257
 135.605 727 l 257
 -64.3945 727 l 257
EndSplineSet
EndChar

StartChar: uni091C_uni0930_uni094D.vatu
Encoding: 723 -1 467
GlifName: uni091C__uni0930_uni094D_.vatu
Width: 1024
VWidth: 0
GlyphClass: 3
Flags: W
LayerCount: 2
Fore
SplineSet
-217.213 0 m 257
 39.7871 0 l 257
 458.041 215 l 257
 531.198 416 l 257
 -217.213 0 l 257
183.213 1548 m 257
 111.146 1350 l 257
 1169.15 1350 l 257
 1241.21 1548 l 257
 183.213 1548 l 257
895.213 1548 m 257
 327.42 -12 l 257
 526.42 -12 l 257
 1094.21 1548 l 257
 895.213 1548 l 257
363.802 860 m 257
 292.1 663 l 257
 706.1 663 l 257
 777.802 860 l 257
 363.802 860 l 257
317.802 860 m 257
 155.106 413 l 257
 355.106 413 l 257
 517.802 860 l 257
 317.802 860 l 257
-98.8418 567 m 257
 -171.636 367 l 257
 338.364 367 l 257
 411.158 567 l 257
 -98.8418 567 l 257
-40.6064 727 m 257
 -119.952 509 l 257
 80.0479 509 l 257
 159.394 727 l 257
 -40.6064 727 l 257
EndSplineSet
Ligature2: "rkrfRakarVariantsinDevanagari2lookup0 subtable" uni091C uni0930_uni094D.blwf
EndChar

StartChar: uni091C_uni094D.half
Encoding: 724 -1 468
GlifName: uni091C__uni094D_.half
Width: 1024
VWidth: 0
GlyphClass: 3
Flags: W
LayerCount: 2
Fore
SplineSet
85.4238 1548 m 257
 13.3574 1350 l 257
 1071.36 1350 l 257
 1143.42 1548 l 257
 85.4238 1548 l 257
416.014 860 m 257
 344.311 663 l 257
 858.311 663 l 257
 930.014 860 l 257
 416.014 860 l 257
370.014 860 m 257
 207.318 413 l 257
 407.318 413 l 257
 570.014 860 l 257
 370.014 860 l 257
-46.6309 567 m 257
 -119.424 367 l 257
 390.576 367 l 257
 463.369 567 l 257
 -46.6309 567 l 257
11.6055 727 m 257
 -67.7402 509 l 257
 132.26 509 l 257
 211.605 727 l 257
 11.6055 727 l 257
EndSplineSet
Ligature2: "halfHalfFormsinDevanagari2lookup0 subtable" uni091C uni094D
EndChar

StartChar: uni091C_uni094D.haln
Encoding: 725 -1 469
GlifName: uni091C__uni094D_.haln
Width: 1024
VWidth: 0
GlyphClass: 3
Flags: W
LayerCount: 2
Fore
SplineSet
220.03 1548 m 257
 109.709 1348 l 257
 1135.71 1348 l 257
 1246.03 1548 l 257
 220.03 1548 l 257
898.03 1548 m 257
 37.5137 -12 l 257
 236.514 -12 l 257
 1097.03 1548 l 257
 898.03 1548 l 257
237.521 860 m 257
 128.853 663 l 257
 542.853 663 l 257
 651.521 860 l 257
 237.521 860 l 257
191.521 860 m 257
 -55.0498 413 l 257
 144.95 413 l 257
 391.521 860 l 257
 191.521 860 l 257
-280.103 567 m 257
 -390.424 367 l 257
 119.576 367 l 257
 229.897 567 l 257
 -280.103 567 l 257
-191.843 727 m 257
 -312.095 509 l 257
 -112.095 509 l 257
 8.15723 727 l 257
 -191.843 727 l 257
-93.4834 -22 m 257
 -201.6 -218 l 257
 155.4 -218 l 257
 263.517 -22 l 257
 -93.4834 -22 l 257
33.707 -183 m 257
 147.304 -588 l 257
 381.217 -425 l 257
 266.068 -21 l 257
 33.707 -183 l 257
EndSplineSet
Ligature2: "halnHalantFormsinDevanagari2lookup0 subtable" uni091C uni094D
EndChar

StartChar: uni091C_uni094D_uni091E.akhn
Encoding: 726 -1 470
GlifName: uni091C__uni094D__uni091E_.akhn
Width: 1024
VWidth: 0
GlyphClass: 3
Flags: W
LayerCount: 2
Fore
SplineSet
160.424 1548 m 257
 88.3574 1350 l 257
 1146.36 1350 l 257
 1218.42 1548 l 257
 160.424 1548 l 257
872.424 1548 m 257
 304.631 -12 l 257
 503.631 -12 l 257
 1071.42 1548 l 257
 872.424 1548 l 257
341.014 860 m 257
 269.311 663 l 257
 683.311 663 l 257
 755.014 860 l 257
 341.014 860 l 257
295.014 860 m 257
 132.318 413 l 257
 332.318 413 l 257
 495.014 860 l 257
 295.014 860 l 257
-121.631 567 m 257
 -194.424 367 l 257
 315.576 367 l 257
 388.369 567 l 257
 -121.631 567 l 257
-194.061 368 m 257
 -152.703 75 l 257
 105.297 75 l 257
 48.9395 368 l 257
 -194.061 368 l 257
EndSplineSet
Ligature2: "akhnAkhandinDevanagari2lookup0 subtable" uni091C uni094D uni091E
EndChar

StartChar: uni091C_uni094D_uni091E.half
Encoding: 727 -1 471
GlifName: uni091C__uni094D__uni091E_.half
Width: 1024
VWidth: 0
GlyphClass: 3
Flags: W
LayerCount: 2
Fore
SplineSet
62.4238 1548 m 257
 -9.64258 1350 l 257
 1048.36 1350 l 257
 1120.42 1548 l 257
 62.4238 1548 l 257
439.014 860 m 257
 367.311 663 l 257
 781.311 663 l 257
 853.014 860 l 257
 439.014 860 l 257
393.014 860 m 257
 230.318 413 l 257
 430.318 413 l 257
 593.014 860 l 257
 393.014 860 l 257
-23.6309 567 m 257
 -96.4238 367 l 257
 413.576 367 l 257
 486.369 567 l 257
 -23.6309 567 l 257
-96.0605 368 m 257
 -54.7031 75 l 257
 203.297 75 l 257
 146.939 368 l 257
 -96.0605 368 l 257
EndSplineSet
Ligature2: "halfHalfFormsinDevanagari2lookup0 subtable" uni091C_uni094D_uni091E.akhn uni094D
EndChar

StartChar: uni091C_uni094D_uni091E_uni094D
Encoding: 728 -1 472
GlifName: uni091C__uni094D__uni091E__uni094D_
Width: 1024
VWidth: 0
GlyphClass: 3
Flags: W
LayerCount: 2
Fore
SplineSet
219.311 1548 m 257
 110.091 1350 l 257
 1168.09 1350 l 257
 1277.31 1548 l 257
 219.311 1548 l 257
931.311 1548 m 257
 70.7939 -12 l 257
 269.794 -12 l 257
 1130.31 1548 l 257
 931.311 1548 l 257
270.802 860 m 257
 162.133 663 l 257
 576.133 663 l 257
 684.802 860 l 257
 270.802 860 l 257
224.802 860 m 257
 -21.7705 413 l 257
 178.229 413 l 257
 424.802 860 l 257
 224.802 860 l 257
-246.822 567 m 257
 -357.144 367 l 257
 152.856 367 l 257
 263.178 567 l 257
 -246.822 567 l 257
-356.593 368 m 257
 -370.215 75 l 257
 -112.215 75 l 257
 -113.593 368 l 257
 -356.593 368 l 257
936.798 -22 m 257
 828.682 -218 l 257
 1185.68 -218 l 257
 1293.8 -22 l 257
 936.798 -22 l 257
1063.99 -183 m 257
 1177.58 -588 l 257
 1411.5 -425 l 257
 1296.35 -21 l 257
 1063.99 -183 l 257
EndSplineSet
Ligature2: "halnHalantFormsinDevanagari2lookup0 subtable" uni091C_uni094D_uni091E.akhn uni094D
EndChar

StartChar: uni091D
Encoding: 729 2333 473
GlifName: uni091D_
Width: 1024
VWidth: 0
GlyphClass: 2
Flags: W
AnchorPoint: "abvm_deva" 762 1594 basechar 0
LayerCount: 2
Fore
SplineSet
245.146 1548 m 257
 172.717 1349 l 257
 1198.72 1349 l 257
 1271.15 1548 l 257
 245.146 1548 l 257
924.146 1548 m 257
 360.721 0 l 257
 561.721 0 l 257
 1125.15 1548 l 257
 924.146 1548 l 257
688.143 1537 m 257
 501.062 1023 l 257
 700.062 1023 l 257
 887.143 1537 l 257
 688.143 1537 l 257
251.856 1223 m 257
 179.062 1023 l 257
 700.062 1023 l 257
 772.856 1223 l 257
 251.856 1223 l 257
201.628 1085 m 257
 43.665 651 l 257
 243.665 651 l 257
 401.628 1085 l 257
 201.628 1085 l 257
111.364 837 m 257
 38.9336 638 l 257
 787.934 638 l 257
 860.364 837 l 257
 111.364 837 l 257
351.225 691 m 257
 102.269 7 l 257
 302.269 7 l 257
 551.225 691 l 257
 351.225 691 l 257
-120.485 200 m 257
 -193.279 0 l 257
 299.721 0 l 257
 372.515 200 l 257
 -120.485 200 l 257
-170.35 63 m 257
 -247.146 -148 l 257
 -47.1465 -148 l 257
 29.6504 63 l 257
 -170.35 63 l 257
EndSplineSet
EndChar

StartChar: uni091D_uni0930_uni094D.vatu
Encoding: 730 -1 474
GlifName: uni091D__uni0930_uni094D_.vatu
Width: 1024
VWidth: 0
GlyphClass: 3
Flags: W
LayerCount: 2
Fore
SplineSet
100.787 0 m 257
 266.787 0 l 257
 578.041 215 l 257
 678.133 490 l 257
 100.787 0 l 257
255.213 1548 m 257
 182.783 1349 l 257
 1223.78 1349 l 257
 1296.21 1548 l 257
 255.213 1548 l 257
1009.21 1537 m 257
 447.967 -5 l 257
 648.967 -5 l 257
 1210.21 1537 l 257
 1009.21 1537 l 257
716.209 1537 m 257
 529.129 1023 l 257
 728.129 1023 l 257
 915.209 1537 l 257
 716.209 1537 l 257
279.923 1223 m 257
 207.129 1023 l 257
 728.129 1023 l 257
 800.923 1223 l 257
 279.923 1223 l 257
195.103 1218 m 257
 -11.2686 651 l 257
 188.731 651 l 257
 395.103 1218 l 257
 195.103 1218 l 257
143.798 849 m 257
 71.3682 650 l 257
 820.368 650 l 257
 892.798 849 l 257
 143.798 849 l 257
182.291 691 m 257
 -15.709 147 l 257
 184.291 147 l 257
 382.291 691 l 257
 182.291 691 l 257
-144.823 350 m 257
 -218.709 147 l 257
 163.291 147 l 257
 237.177 350 l 257
 -144.823 350 l 257
-195.779 210 m 257
 -272.213 0 l 257
 -72.2129 0 l 257
 4.2207 210 l 257
 -195.779 210 l 257
EndSplineSet
Ligature2: "rkrfRakarVariantsinDevanagari2lookup0 subtable" uni091D uni0930_uni094D.blwf
EndChar

StartChar: uni091D_uni094D.half
Encoding: 731 -1 475
GlifName: uni091D__uni094D_.half
Width: 1024
VWidth: 0
GlyphClass: 3
Flags: W
LayerCount: 2
Fore
SplineSet
228.646 1548 m 257
 156.217 1349 l 257
 1197.22 1349 l 257
 1269.65 1548 l 257
 228.646 1548 l 257
689.643 1537 m 257
 502.562 1023 l 257
 701.562 1023 l 257
 888.643 1537 l 257
 689.643 1537 l 257
253.356 1223 m 257
 180.562 1023 l 257
 701.562 1023 l 257
 774.356 1223 l 257
 253.356 1223 l 257
203.128 1085 m 257
 45.165 651 l 257
 245.165 651 l 257
 403.128 1085 l 257
 203.128 1085 l 257
112.864 837 m 257
 40.4336 638 l 257
 989.434 638 l 257
 1061.86 837 l 257
 112.864 837 l 257
352.725 691 m 257
 103.769 7 l 257
 303.769 7 l 257
 552.725 691 l 257
 352.725 691 l 257
-117.894 203 m 257
 -191.779 0 l 257
 301.221 0 l 257
 375.106 203 l 257
 -117.894 203 l 257
-168.85 63 m 257
 -245.646 -148 l 257
 -45.6465 -148 l 257
 31.1504 63 l 257
 -168.85 63 l 257
EndSplineSet
Ligature2: "halfHalfFormsinDevanagari2lookup0 subtable" uni091D uni094D
EndChar

StartChar: uni091D_uni094D.haln
Encoding: 732 -1 476
GlifName: uni091D__uni094D_.haln
Width: 1024
VWidth: 0
GlyphClass: 3
Flags: W
LayerCount: 2
Fore
SplineSet
365.476 1548 m 257
 255.705 1349 l 257
 1281.71 1349 l 257
 1391.48 1548 l 257
 365.476 1548 l 257
1044.48 1548 m 257
 190.579 0 l 257
 391.579 0 l 257
 1245.48 1548 l 257
 1044.48 1548 l 257
806.408 1537 m 257
 522.879 1023 l 257
 721.879 1023 l 257
 1005.41 1537 l 257
 806.408 1537 l 257
311.202 1223 m 257
 200.879 1023 l 257
 721.879 1023 l 257
 832.202 1223 l 257
 311.202 1223 l 257
235.078 1085 m 257
 -4.32129 651 l 257
 195.679 651 l 257
 435.078 1085 l 257
 235.078 1085 l 257
98.2793 837 m 257
 -11.4922 638 l 257
 737.508 638 l 257
 847.279 837 l 257
 98.2793 837 l 257
310.744 691 m 257
 -66.5596 7 l 257
 133.44 7 l 257
 510.744 691 l 257
 310.744 691 l 257
-253.099 200 m 257
 -363.421 0 l 257
 129.579 0 l 257
 239.901 200 l 257
 -253.099 200 l 257
-328.67 63 m 257
 -445.06 -148 l 257
 -245.06 -148 l 257
 -128.67 63 l 257
 -328.67 63 l 257
-101.763 -22 m 257
 -209.878 -218 l 257
 147.122 -218 l 257
 255.237 -22 l 257
 -101.763 -22 l 257
25.4287 -183 m 257
 139.024 -588 l 257
 372.938 -425 l 257
 257.789 -21 l 257
 25.4287 -183 l 257
EndSplineSet
Ligature2: "halnHalantFormsinDevanagari2lookup0 subtable" uni091D uni094D
EndChar

StartChar: uni091E
Encoding: 733 2334 477
GlifName: uni091E_
Width: 1024
VWidth: 0
GlyphClass: 2
Flags: W
AnchorPoint: "abvm_deva" 834 1600 basechar 0
LayerCount: 2
Fore
SplineSet
202.896 1548 m 257
 130.104 1348 l 257
 1156.1 1348 l 257
 1228.9 1548 l 257
 202.896 1548 l 257
933.893 1537 m 257
 371.559 -8 l 257
 571.559 -8 l 257
 1133.89 1537 l 257
 933.893 1537 l 257
372.717 737 m 257
 299.924 537 l 257
 666.924 537 l 257
 739.717 737 l 257
 372.717 737 l 257
72.8828 960 m 257
 0.0878906 760 l 257
 358.088 760 l 257
 430.883 960 l 257
 72.8828 960 l 257
399.883 960 m 257
 165.486 316 l 257
 365.486 316 l 257
 599.883 960 l 257
 399.883 960 l 257
-132.102 460 m 257
 -204.896 260 l 257
 345.104 260 l 257
 417.898 460 l 257
 -132.102 460 l 257
EndSplineSet
EndChar

StartChar: uni091E_uni0930_uni094D.vatu
Encoding: 734 -1 478
GlifName: uni091E__uni0930_uni094D_.vatu
Width: 1024
VWidth: 0
GlyphClass: 3
Flags: W
LayerCount: 2
Fore
SplineSet
-200.213 0 m 257
 56.7871 0 l 257
 463.029 182 l 257
 536.188 383 l 257
 -200.213 0 l 257
190.213 1548 m 257
 117.419 1348 l 257
 1151.42 1348 l 257
 1224.21 1548 l 257
 190.213 1548 l 257
926.209 1537 m 257
 363.875 -8 l 257
 563.875 -8 l 257
 1126.21 1537 l 257
 926.209 1537 l 257
365.033 737 m 257
 292.239 537 l 257
 659.239 537 l 257
 732.033 737 l 257
 365.033 737 l 257
65.1982 960 m 257
 -7.5957 760 l 257
 350.404 760 l 257
 423.198 960 l 257
 65.1982 960 l 257
392.198 960 m 257
 157.802 316 l 257
 357.802 316 l 257
 592.198 960 l 257
 392.198 960 l 257
-121.588 510 m 257
 -194.382 310 l 257
 355.618 310 l 257
 428.412 510 l 257
 -121.588 510 l 257
EndSplineSet
Ligature2: "rkrfRakarVariantsinDevanagari2lookup0 subtable" uni091E uni0930_uni094D.blwf
EndChar

StartChar: uni091E_uni094D.half
Encoding: 735 -1 479
GlifName: uni091E__uni094D_.half
Width: 1024
VWidth: 0
GlyphClass: 3
Flags: W
LayerCount: 2
Fore
SplineSet
96.3965 1548 m 257
 23.6035 1348 l 257
 1057.6 1348 l 257
 1130.4 1548 l 257
 96.3965 1548 l 257
471.217 737 m 257
 398.424 537 l 257
 765.424 537 l 257
 838.217 737 l 257
 471.217 737 l 257
171.383 960 m 257
 98.5879 760 l 257
 456.588 760 l 257
 529.383 960 l 257
 171.383 960 l 257
498.383 960 m 257
 263.986 316 l 257
 463.986 316 l 257
 698.383 960 l 257
 498.383 960 l 257
-33.6016 460 m 257
 -106.396 260 l 257
 443.604 260 l 257
 516.398 460 l 257
 -33.6016 460 l 257
EndSplineSet
Ligature2: "halfHalfFormsinDevanagari2lookup0 subtable" uni091E uni094D
EndChar

StartChar: uni091E_uni094D.haln
Encoding: 736 -1 480
GlifName: uni091E__uni094D_.haln
Width: 1024
VWidth: 0
GlyphClass: 3
Flags: W
LayerCount: 2
Fore
SplineSet
248.976 1548 m 257
 138.654 1348 l 257
 1164.65 1348 l 257
 1274.98 1548 l 257
 248.976 1548 l 257
977.908 1537 m 257
 125.665 -8 l 257
 325.665 -8 l 257
 1177.91 1537 l 257
 977.908 1537 l 257
266.618 737 m 257
 156.296 537 l 257
 523.296 537 l 257
 633.618 737 l 257
 266.618 737 l 257
8.62793 960 m 257
 -101.695 760 l 257
 256.305 760 l 257
 366.628 960 l 257
 8.62793 960 l 257
335.628 960 m 257
 -19.6104 316 l 257
 180.39 316 l 257
 535.628 960 l 257
 335.628 960 l 257
-290.178 460 m 257
 -400.501 260 l 257
 149.499 260 l 257
 259.822 460 l 257
 -290.178 460 l 257
-93.0127 -22 m 257
 -201.128 -218 l 257
 155.872 -218 l 257
 263.987 -22 l 257
 -93.0127 -22 l 257
34.1787 -183 m 257
 147.774 -588 l 257
 381.688 -425 l 257
 266.539 -21 l 257
 34.1787 -183 l 257
EndSplineSet
Ligature2: "halnHalantFormsinDevanagari2lookup0 subtable" uni091E uni094D
EndChar

StartChar: uni091F
Encoding: 737 2335 481
GlifName: uni091F_
Width: 1024
VWidth: 0
GlyphClass: 2
Flags: W
AnchorPoint: "abvm_deva" 660 1582 basechar 0
LayerCount: 2
Fore
SplineSet
242.213 1548 m 257
 169.783 1349 l 257
 1183.78 1349 l 257
 1256.21 1548 l 257
 242.213 1548 l 257
793.934 1528 m 257
 597.39 988 l 257
 797.39 988 l 257
 993.934 1528 l 257
 793.934 1528 l 257
810.129 1023 m 257
 161.129 1023 l 257
 87.9707 822 l 257
 736.971 822 l 257
 810.129 1023 l 257
140.129 1023 m 257
 -230.393 5 l 257
 -30.3926 5 l 257
 340.129 1023 l 257
 140.129 1023 l 257
-159.055 201 m 257
 -232.213 0 l 257
 480.787 0 l 257
 553.945 201 l 257
 -159.055 201 l 257
EndSplineSet
EndChar

StartChar: uni091F_uni0930_uni094D.vatu
Encoding: 738 -1 482
GlifName: uni091F__uni0930_uni094D_.vatu
Width: 1024
VWidth: 0
GlyphClass: 3
Flags: W
LayerCount: 2
Fore
SplineSet
174.842 213 m 257
 260.533 -167 l 257
 542.533 -167 l 257
 358.354 382 l 257
 174.842 213 l 257
358.354 382 m 257
 -251.742 -176 l 257
 -30.7422 -176 l 257
 413.298 217 l 257
 358.354 382 l 257
249.742 1548 m 257
 176.948 1348 l 257
 1202.95 1348 l 257
 1275.74 1548 l 257
 249.742 1548 l 257
801.463 1528 m 257
 632.581 1064 l 257
 832.581 1064 l 257
 1001.46 1528 l 257
 801.463 1528 l 257
845.319 1099 m 257
 196.319 1099 l 257
 123.162 898 l 257
 772.162 898 l 257
 845.319 1099 l 257
175.684 1100 m 257
 -77.2754 405 l 257
 122.725 405 l 257
 375.684 1100 l 257
 175.684 1100 l 257
-5.9375 601 m 257
 -79.0957 400 l 257
 633.904 400 l 257
 707.062 601 l 257
 -5.9375 601 l 257
EndSplineSet
Ligature2: "rkrfRakarVariantsinDevanagari2lookup0 subtable" uni091F uni0930_uni094D.blwf
EndChar

StartChar: uni091F_uni094D.haln
Encoding: 739 -1 483
GlifName: uni091F__uni094D_.haln
Width: 1024
VWidth: 0
GlyphClass: 3
Flags: W
LayerCount: 2
Fore
SplineSet
335.608 1548 m 257
 225.838 1349 l 257
 1239.84 1349 l 257
 1349.61 1548 l 257
 335.608 1548 l 257
883.576 1528 m 257
 585.705 988 l 257
 785.705 988 l 257
 1083.58 1528 l 257
 883.576 1528 l 257
805.012 1023 m 257
 156.012 1023 l 257
 45.1377 822 l 257
 694.138 822 l 257
 805.012 1023 l 257
135.012 1023 m 257
 -426.53 5 l 257
 -226.53 5 l 257
 335.012 1023 l 257
 135.012 1023 l 257
-318.414 201 m 257
 -429.289 0 l 257
 283.711 0 l 257
 394.586 201 l 257
 -318.414 201 l 257
-99.6924 -22 m 257
 -207.809 -218 l 257
 149.191 -218 l 257
 257.308 -22 l 257
 -99.6924 -22 l 257
27.498 -183 m 257
 141.095 -588 l 257
 375.008 -425 l 257
 259.859 -21 l 257
 27.498 -183 l 257
EndSplineSet
Ligature2: "halnHalantFormsinDevanagari2lookup0 subtable" uni091F uni094D
EndChar

StartChar: uni0920
Encoding: 740 2336 484
GlifName: uni0920
Width: 1024
VWidth: 0
GlyphClass: 2
Flags: W
AnchorPoint: "abvm_deva" 552 1594 basechar 0
LayerCount: 2
Fore
SplineSet
244.713 1548 m 257
 172.283 1349 l 257
 1197.28 1349 l 257
 1269.71 1548 l 257
 244.713 1548 l 257
632.419 1484 m 257
 464.629 1023 l 257
 664.629 1023 l 257
 832.419 1484 l 257
 632.419 1484 l 257
142.996 1035 m 257
 69.8379 834 l 257
 947.838 834 l 257
 1021 1035 l 257
 142.996 1035 l 257
129.996 1035 m 257
 -241.981 13 l 257
 -41.9814 13 l 257
 329.996 1035 l 257
 129.996 1035 l 257
820.996 1035 m 257
 444.287 0 l 257
 644.287 0 l 257
 1021 1035 l 257
 820.996 1035 l 257
-173.646 198 m 257
 -245.713 0 l 257
 624.287 0 l 257
 696.354 198 l 257
 -173.646 198 l 257
EndSplineSet
EndChar

StartChar: uni0920_uni0930_uni094D.vatu
Encoding: 741 -1 485
GlifName: uni0920_uni0930_uni094D_.vatu
Width: 1024
VWidth: 0
GlyphClass: 3
Flags: W
LayerCount: 2
Fore
SplineSet
187.388 216 m 257
 273.079 -164 l 257
 555.079 -164 l 257
 370.899 385 l 257
 187.388 216 l 257
370.899 385 m 257
 -239.196 -173 l 257
 -18.1963 -173 l 257
 425.844 220 l 257
 370.899 385 l 257
237.196 1548 m 257
 165.13 1350 l 257
 1191.13 1350 l 257
 1263.2 1548 l 257
 237.196 1548 l 257
670.902 1484 m 257
 503.112 1023 l 257
 703.112 1023 l 257
 870.902 1484 l 257
 670.902 1484 l 257
135.479 1035 m 257
 62.3213 834 l 257
 940.321 834 l 257
 1013.48 1035 l 257
 135.479 1035 l 257
122.479 1035 m 257
 -103.91 413 l 257
 96.0898 413 l 257
 322.479 1035 l 257
 122.479 1035 l 257
813.479 1035 m 257
 581.631 398 l 257
 781.631 398 l 257
 1013.48 1035 l 257
 813.479 1035 l 257
-35.5752 598 m 257
 -108.733 397 l 257
 761.267 397 l 257
 834.425 598 l 257
 -35.5752 598 l 257
EndSplineSet
Ligature2: "rkrfRakarVariantsinDevanagari2lookup0 subtable" uni0920 uni0930_uni094D.blwf
EndChar

StartChar: uni0920_uni094D.haln
Encoding: 742 -1 486
GlifName: uni0920_uni094D_.haln
Width: 1024
VWidth: 0
GlyphClass: 3
Flags: W
LayerCount: 2
Fore
SplineSet
338.108 1548 m 257
 228.338 1349 l 257
 1253.34 1349 l 257
 1363.11 1548 l 257
 338.108 1548 l 257
713.805 1484 m 257
 459.512 1023 l 257
 659.512 1023 l 257
 913.805 1484 l 257
 713.805 1484 l 257
140.131 1035 m 257
 29.2559 834 l 257
 907.256 834 l 257
 1018.13 1035 l 257
 140.131 1035 l 257
127.131 1035 m 257
 -436.618 13 l 257
 -236.618 13 l 257
 327.131 1035 l 257
 127.131 1035 l 257
818.131 1035 m 257
 247.211 0 l 257
 447.211 0 l 257
 1018.13 1035 l 257
 818.131 1035 l 257
-333.569 198 m 257
 -442.789 0 l 257
 427.211 0 l 257
 536.431 198 l 257
 -333.569 198 l 257
-126.692 -22 m 257
 -234.809 -218 l 257
 122.191 -218 l 257
 230.308 -22 l 257
 -126.692 -22 l 257
0.498047 -183 m 257
 114.095 -588 l 257
 348.008 -425 l 257
 232.859 -21 l 257
 0.498047 -183 l 257
EndSplineSet
Ligature2: "halnHalantFormsinDevanagari2lookup0 subtable" uni0920 uni094D
EndChar

StartChar: uni0921
Encoding: 743 2337 487
GlifName: uni0921
Width: 1024
VWidth: 0
GlyphClass: 2
Flags: W
AnchorPoint: "abvm_deva" 864 1606 basechar 0
LayerCount: 2
Fore
SplineSet
249.713 1548 m 257
 176.919 1348 l 257
 1202.92 1348 l 257
 1275.71 1548 l 257
 249.713 1548 l 257
452.092 1049 m 257
 302.5 638 l 257
 501.5 638 l 257
 651.092 1049 l 257
 452.092 1049 l 257
341.809 746 m 257
 266.104 538 l 257
 809.104 538 l 257
 884.809 746 l 257
 341.809 746 l 257
670.158 703 m 257
 416.107 5 l 257
 615.107 5 l 257
 869.158 703 l 257
 670.158 703 l 257
-178.919 200 m 257
 -251.713 0 l 257
 613.287 0 l 257
 686.081 200 l 257
 -178.919 200 l 257
-131.238 331 m 257
 -249.893 5 l 257
 -49.8926 5 l 257
 68.7617 331 l 257
 -131.238 331 l 257
483.029 1134 m 257
 407.323 926 l 257
 950.323 926 l 257
 1026.03 1134 l 257
 483.029 1134 l 257
920.569 1391 m 257
 770.978 980 l 257
 969.978 980 l 257
 1119.57 1391 l 257
 920.569 1391 l 257
EndSplineSet
EndChar

StartChar: uni0921_uni0930_uni094D.vatu
Encoding: 744 -1 488
GlifName: uni0921_uni0930_uni094D_.vatu
Width: 1024
VWidth: 0
GlyphClass: 3
Flags: W
LayerCount: 2
Fore
SplineSet
147.584 134 m 257
 272.947 -137 l 257
 554.947 -137 l 257
 313.623 255 l 257
 147.584 134 l 257
313.623 255 m 257
 -238.236 -143 l 257
 -17.2363 -143 l 257
 385.676 137 l 257
 313.623 255 l 257
236.236 1548 m 257
 163.443 1348 l 257
 1189.44 1348 l 257
 1262.24 1548 l 257
 236.236 1548 l 257
467.734 1129 m 257
 331.973 756 l 257
 530.973 756 l 257
 666.734 1129 l 257
 467.734 1129 l 257
371.281 864 m 257
 295.576 656 l 257
 838.576 656 l 257
 914.281 864 l 257
 371.281 864 l 257
699.631 821 m 257
 493.26 254 l 257
 692.26 254 l 257
 898.631 821 l 257
 699.631 821 l 257
-101.766 449 m 257
 -174.561 249 l 257
 690.439 249 l 257
 763.234 449 l 257
 -101.766 449 l 257
-54.0859 580 m 257
 -172.74 254 l 257
 27.2598 254 l 257
 145.914 580 l 257
 -54.0859 580 l 257
498.672 1214 m 257
 422.965 1006 l 257
 965.965 1006 l 257
 1041.67 1214 l 257
 498.672 1214 l 257
907.094 1391 m 257
 786.619 1060 l 257
 985.619 1060 l 257
 1106.09 1391 l 257
 907.094 1391 l 257
EndSplineSet
Ligature2: "rkrfRakarVariantsinDevanagari2lookup0 subtable" uni0921 uni0930_uni094D.blwf
EndChar

StartChar: uni0921_uni094D.haln
Encoding: 745 -1 489
GlifName: uni0921_uni094D_.haln
Width: 1024
VWidth: 0
GlyphClass: 3
Flags: W
LayerCount: 2
Fore
SplineSet
343.108 1548 m 257
 232.786 1348 l 257
 1258.79 1348 l 257
 1369.11 1548 l 257
 343.108 1548 l 257
451.854 1049 m 257
 225.141 638 l 257
 424.141 638 l 257
 650.854 1049 l 257
 451.854 1049 l 257
284.714 746 m 257
 169.979 538 l 257
 712.979 538 l 257
 827.714 746 l 257
 284.714 746 l 257
604.995 703 m 257
 219.97 5 l 257
 418.97 5 l 257
 803.995 703 l 257
 604.995 703 l 257
-338.467 200 m 257
 -448.789 0 l 257
 416.211 0 l 257
 526.533 200 l 257
 -338.467 200 l 257
-266.204 331 m 257
 -446.03 5 l 257
 -246.03 5 l 257
 -66.2041 331 l 257
 -266.204 331 l 257
498.74 1134 m 257
 384.005 926 l 257
 927.005 926 l 257
 1041.74 1134 l 257
 498.74 1134 l 257
984.505 1391 m 257
 757.792 980 l 257
 956.792 980 l 257
 1183.5 1391 l 257
 984.505 1391 l 257
-138.692 -22 m 257
 -246.809 -218 l 257
 110.191 -218 l 257
 218.308 -22 l 257
 -138.692 -22 l 257
-11.502 -183 m 257
 102.095 -588 l 257
 336.008 -425 l 257
 220.859 -21 l 257
 -11.502 -183 l 257
EndSplineSet
Ligature2: "halnHalantFormsinDevanagari2lookup0 subtable" uni0921 uni094D
EndChar

StartChar: uni0922
Encoding: 746 2338 490
GlifName: uni0922
Width: 1024
VWidth: 0
GlyphClass: 2
Flags: W
AnchorPoint: "abvm_deva" 696 1588 basechar 0
LayerCount: 2
Fore
SplineSet
231.713 1548 m 257
 158.919 1348 l 257
 1183.92 1348 l 257
 1256.71 1548 l 257
 231.713 1548 l 257
793.434 1528 m 257
 596.89 988 l 257
 796.89 988 l 257
 993.434 1528 l 257
 793.434 1528 l 257
809.629 1023 m 257
 160.629 1023 l 257
 87.4707 822 l 257
 736.471 822 l 257
 809.629 1023 l 257
139.629 1023 m 257
 -230.893 5 l 257
 -30.8926 5 l 257
 339.629 1023 l 257
 139.629 1023 l 257
-159.555 201 m 257
 -232.713 0 l 257
 480.287 0 l 257
 553.445 201 l 257
 -159.555 201 l 257
479.287 544 m 257
 281.287 0 l 257
 482.287 0 l 257
 680.287 544 l 257
 479.287 544 l 257
427.379 547 m 257
 354.585 347 l 257
 606.585 347 l 257
 679.379 547 l 257
 427.379 547 l 257
EndSplineSet
EndChar

StartChar: uni0922_uni0930_uni094D.vatu
Encoding: 747 -1 491
GlifName: uni0922_uni0930_uni094D_.vatu
Width: 1024
VWidth: 0
GlyphClass: 3
Flags: W
LayerCount: 2
Fore
SplineSet
186.436 230 m 257
 272.127 -150 l 257
 554.127 -150 l 257
 369.947 399 l 257
 186.436 230 l 257
369.947 399 m 257
 -240.148 -159 l 257
 -19.1484 -159 l 257
 424.892 234 l 257
 369.947 399 l 257
250.148 1548 m 257
 177.354 1348 l 257
 1191.35 1348 l 257
 1264.15 1548 l 257
 250.148 1548 l 257
801.869 1528 m 257
 605.325 988 l 257
 805.325 988 l 257
 1001.87 1528 l 257
 801.869 1528 l 257
871.204 1169 m 257
 222.204 1169 l 257
 149.046 968 l 257
 798.046 968 l 257
 871.204 1169 l 257
200.84 1168 m 257
 -76.8691 405 l 257
 123.131 405 l 257
 400.84 1168 l 257
 200.84 1168 l 257
-5.53125 601 m 257
 -78.6895 400 l 257
 634.311 400 l 257
 707.469 601 l 257
 -5.53125 601 l 257
596.913 844 m 257
 434.583 398 l 257
 635.583 398 l 257
 797.913 844 l 257
 596.913 844 l 257
545.006 847 m 257
 472.211 647 l 257
 724.211 647 l 257
 797.006 847 l 257
 545.006 847 l 257
EndSplineSet
Ligature2: "rkrfRakarVariantsinDevanagari2lookup0 subtable" uni0922 uni0930_uni094D.blwf
EndChar

StartChar: uni0922_uni094D.haln
Encoding: 748 -1 492
GlifName: uni0922_uni094D_.haln
Width: 1024
VWidth: 0
GlyphClass: 3
Flags: W
LayerCount: 2
Fore
SplineSet
325.108 1548 m 257
 214.786 1348 l 257
 1239.79 1348 l 257
 1350.11 1548 l 257
 325.108 1548 l 257
883.076 1528 m 257
 585.205 988 l 257
 785.205 988 l 257
 1083.08 1528 l 257
 883.076 1528 l 257
804.512 1023 m 257
 155.512 1023 l 257
 44.6377 822 l 257
 693.638 822 l 257
 804.512 1023 l 257
134.512 1023 m 257
 -427.03 5 l 257
 -227.03 5 l 257
 334.512 1023 l 257
 134.512 1023 l 257
-318.914 201 m 257
 -429.789 0 l 257
 283.211 0 l 257
 394.086 201 l 257
 -318.914 201 l 257
384.289 544 m 257
 84.2109 0 l 257
 285.211 0 l 257
 585.289 544 l 257
 384.289 544 l 257
332.943 547 m 257
 222.621 347 l 257
 474.621 347 l 257
 584.943 547 l 257
 332.943 547 l 257
-100.692 -22 m 257
 -208.809 -218 l 257
 148.191 -218 l 257
 256.308 -22 l 257
 -100.692 -22 l 257
26.498 -183 m 257
 140.095 -588 l 257
 374.008 -425 l 257
 258.859 -21 l 257
 26.498 -183 l 257
EndSplineSet
Ligature2: "halnHalantFormsinDevanagari2lookup0 subtable" uni0922 uni094D
EndChar

StartChar: uni0923
Encoding: 749 2339 493
GlifName: uni0923
Width: 1024
VWidth: 0
GlyphClass: 2
Flags: W
AnchorPoint: "abvm_deva" 846 1588 basechar 0
LayerCount: 2
Fore
SplineSet
76.5752 1548 m 257
 3.78125 1348 l 257
 1028.78 1348 l 257
 1101.58 1548 l 257
 76.5752 1548 l 257
791.023 1530 m 257
 234.149 0 l 257
 434.149 0 l 257
 991.023 1530 l 257
 791.023 1530 l 257
183.756 1543 m 257
 -66.6562 855 l 257
 133.344 855 l 257
 383.756 1543 l 257
 183.756 1543 l 257
534.296 1528 m 257
 285.34 844 l 257
 485.34 844 l 257
 734.296 1528 l 257
 534.296 1528 l 257
-5.50879 1023 m 257
 -77.5752 825 l 257
 478.425 825 l 257
 550.491 1023 l 257
 -5.50879 1023 l 257
EndSplineSet
EndChar

StartChar: uni0923_uni0930_uni094D.vatu
Encoding: 750 -1 494
GlifName: uni0923_uni0930_uni094D_.vatu
Width: 1024
VWidth: 0
GlyphClass: 3
Flags: W
LayerCount: 2
Fore
SplineSet
-219.713 0 m 257
 37.2871 0 l 257
 455.541 215 l 257
 528.698 416 l 257
 -219.713 0 l 257
214.713 1548 m 257
 142.646 1350 l 257
 1171.65 1350 l 257
 1243.71 1548 l 257
 214.713 1548 l 257
929.161 1530 m 257
 372.287 0 l 257
 572.287 0 l 257
 1129.16 1530 l 257
 929.161 1530 l 257
321.894 1543 m 257
 71.4814 855 l 257
 271.481 855 l 257
 521.894 1543 l 257
 321.894 1543 l 257
672.434 1528 m 257
 423.478 844 l 257
 623.478 844 l 257
 872.434 1528 l 257
 672.434 1528 l 257
132.629 1023 m 257
 60.5625 825 l 257
 616.562 825 l 257
 688.629 1023 l 257
 132.629 1023 l 257
EndSplineSet
Ligature2: "rkrfRakarVariantsinDevanagari2lookup0 subtable" uni0923 uni0930_uni094D.blwf
EndChar

StartChar: uni0923_uni094D.half
Encoding: 751 -1 495
GlifName: uni0923_uni094D_.half
Width: 1024
VWidth: 0
GlyphClass: 3
Flags: W
LayerCount: 2
Fore
SplineSet
33.5332 1548 m 257
 -38.5332 1350 l 257
 990.467 1350 l 257
 1062.53 1548 l 257
 33.5332 1548 l 257
340.714 1543 m 257
 90.3018 855 l 257
 290.302 855 l 257
 540.714 1543 l 257
 340.714 1543 l 257
691.254 1528 m 257
 442.298 844 l 257
 642.298 844 l 257
 891.254 1528 l 257
 691.254 1528 l 257
151.449 1023 m 257
 79.3828 825 l 257
 635.383 825 l 257
 707.449 1023 l 257
 151.449 1023 l 257
EndSplineSet
Ligature2: "halfHalfFormsinDevanagari2lookup0 subtable" uni0923 uni094D
EndChar

StartChar: uni0923_uni094D.haln
Encoding: 752 -1 496
GlifName: uni0923_uni094D_.haln
Width: 1024
VWidth: 0
GlyphClass: 3
Flags: W
LayerCount: 2
Fore
SplineSet
19.834 1548 m 257
 -90.4893 1348 l 257
 934.511 1348 l 257
 1044.83 1548 l 257
 19.834 1548 l 257
730.904 1530 m 257
 -113.063 0 l 257
 86.9365 0 l 257
 930.904 1530 l 257
 730.904 1530 l 257
126.076 1543 m 257
 -253.435 855 l 257
 -53.4346 855 l 257
 326.076 1543 l 257
 126.076 1543 l 257
473.802 1528 m 257
 96.4971 844 l 257
 296.497 844 l 257
 673.802 1528 l 257
 473.802 1528 l 257
-160.763 1023 m 257
 -269.982 825 l 257
 286.018 825 l 257
 395.237 1023 l 257
 -160.763 1023 l 257
59.1689 -22 m 257
 -48.9473 -218 l 257
 308.053 -218 l 257
 416.169 -22 l 257
 59.1689 -22 l 257
186.359 -183 m 257
 299.956 -588 l 257
 533.869 -425 l 257
 418.721 -21 l 257
 186.359 -183 l 257
EndSplineSet
Ligature2: "halnHalantFormsinDevanagari2lookup0 subtable" uni0923 uni094D
EndChar

StartChar: uni0924
Encoding: 753 2340 497
GlifName: uni0924
Width: 1024
VWidth: 0
GlyphClass: 2
Flags: W
AnchorPoint: "abvm_deva" 744 1582 basechar 0
LayerCount: 2
Fore
SplineSet
167.713 1548 m 257
 94.9189 1348 l 257
 1119.92 1348 l 257
 1192.71 1548 l 257
 167.713 1548 l 257
784.246 1511 m 257
 234.287 0 l 257
 433.287 0 l 257
 983.246 1511 l 257
 784.246 1511 l 257
675.096 788 m 257
 -3.9043 788 l 257
 -76.6982 588 l 257
 602.302 588 l 257
 675.096 788 l 257
-76.6982 588 m 257
 -168.713 0 l 257
 31.2871 0 l 257
 123.302 588 l 257
 -76.6982 588 l 257
EndSplineSet
EndChar

StartChar: uni0924_uni0930_uni094D.vatu
Encoding: 754 -1 498
GlifName: uni0924_uni0930_uni094D_.vatu
Width: 1024
VWidth: 0
GlyphClass: 3
Flags: W
LayerCount: 2
Fore
SplineSet
-217.761 0 m 257
 136.239 0 l 257
 496.438 322 l 257
 569.596 523 l 257
 -217.761 0 l 257
191.761 1562 m 257
 118.967 1362 l 257
 1168.97 1362 l 257
 1241.76 1562 l 257
 191.761 1562 l 257
851.761 1562 m 257
 283.239 0 l 257
 482.239 0 l 257
 1050.76 1562 l 257
 851.761 1562 l 257
608.967 546 m 257
 353.552 935 l 257
 47.5518 935 l 257
 415.647 405 l 257
 608.967 546 l 257
EndSplineSet
Ligature2: "rkrfRakarVariantsinDevanagari2lookup0 subtable" uni0924 uni0930_uni094D.blwf
EndChar

StartChar: uni0924_uni094D.half
Encoding: 755 -1 499
GlifName: uni0924_uni094D_.half
Width: 1024
VWidth: 0
GlyphClass: 3
Flags: W
LayerCount: 2
Fore
SplineSet
23.3965 1562 m 257
 -49.3965 1362 l 257
 1000.6 1362 l 257
 1073.4 1562 l 257
 23.3965 1562 l 257
855.684 788 m 257
 176.684 788 l 257
 103.891 588 l 257
 782.891 588 l 257
 855.684 788 l 257
103.891 588 m 257
 28.875 0 l 257
 228.875 0 l 257
 303.891 588 l 257
 103.891 588 l 257
EndSplineSet
Ligature2: "halfHalfFormsinDevanagari2lookup0 subtable" uni0924 uni094D
EndChar

StartChar: uni0924_uni094D.haln
Encoding: 756 -1 500
GlifName: uni0924_uni094D_.haln
Width: 1024
VWidth: 0
GlyphClass: 3
Flags: W
LayerCount: 2
Fore
SplineSet
261.108 1548 m 257
 150.786 1348 l 257
 1175.79 1348 l 257
 1286.11 1548 l 257
 261.108 1548 l 257
870.698 1511 m 257
 37.2109 0 l 257
 236.211 0 l 257
 1069.7 1511 l 257
 870.698 1511 l 257
625.883 788 m 257
 -53.1172 788 l 257
 -163.44 588 l 257
 515.56 588 l 257
 625.883 788 l 257
-163.44 588 m 257
 -365.789 0 l 257
 -165.789 0 l 257
 36.5596 588 l 257
 -163.44 588 l 257
27.3076 -22 m 257
 -80.8086 -218 l 257
 276.191 -218 l 257
 384.308 -22 l 257
 27.3076 -22 l 257
154.498 -183 m 257
 268.095 -588 l 257
 502.008 -425 l 257
 386.859 -21 l 257
 154.498 -183 l 257
EndSplineSet
Ligature2: "halnHalantFormsinDevanagari2lookup0 subtable" uni0924 uni094D
EndChar

StartChar: uni0924_uni094D_uni0924.pres
Encoding: 757 -1 501
GlifName: uni0924_uni094D__uni0924.pres
Width: 1024
VWidth: 0
GlyphClass: 3
Flags: W
LayerCount: 2
Fore
SplineSet
148.805 1554 m 257
 76.0107 1354 l 257
 1126.01 1354 l 257
 1198.8 1554 l 257
 148.805 1554 l 257
793.154 1511 m 257
 243.195 0 l 257
 442.195 0 l 257
 992.154 1511 l 257
 793.154 1511 l 257
684.004 788 m 257
 5.00391 788 l 257
 -67.79 588 l 257
 611.21 588 l 257
 684.004 788 l 257
-67.79 588 m 257
 -174.805 0 l 257
 25.1953 0 l 257
 131.21 588 l 257
 -67.79 588 l 257
685.996 1038 m 257
 6.99609 1038 l 257
 -65.7979 838 l 257
 613.202 838 l 257
 685.996 1038 l 257
EndSplineSet
Ligature2: "presPreBaseSubstitutionsinDevanagari2lookup0 subtable" uni0924_uni094D.half uni0924
EndChar

StartChar: uni0925
Encoding: 758 2341 502
GlifName: uni0925
Width: 1024
VWidth: 0
GlyphClass: 2
Flags: W
AnchorPoint: "abvm_deva" 768 1600 basechar 0
LayerCount: 2
Fore
SplineSet
883.691 1548 m 257
 810.896 1348 l 257
 1190.9 1348 l 257
 1263.69 1548 l 257
 883.691 1548 l 257
1015.69 1537 m 257
 449.713 -18 l 257
 648.713 -18 l 257
 1214.69 1537 l 257
 1015.69 1537 l 257
271.691 1548 m 257
 198.896 1348 l 257
 643.896 1348 l 257
 716.691 1548 l 257
 271.691 1548 l 257
466.555 1413 m 257
 289.666 927 l 257
 489.666 927 l 257
 666.555 1413 l 257
 466.555 1413 l 257
523.787 1018 m 257
 82.7871 1018 l 257
 7.08008 810 l 257
 448.08 810 l 257
 523.787 1018 l 257
56.5801 946 m 257
 -239.691 132 l 257
 -40.6914 132 l 257
 255.58 946 l 257
 56.5801 946 l 257
-167.26 331 m 257
 -239.691 132 l 257
 703.309 132 l 257
 775.74 331 l 257
 -167.26 331 l 257
EndSplineSet
EndChar

StartChar: uni0925_uni0930_uni094D.vatu
Encoding: 759 -1 503
GlifName: uni0925_uni0930_uni094D_.vatu
Width: 1024
VWidth: 0
GlyphClass: 3
Flags: W
LayerCount: 2
Fore
SplineSet
-165.936 0 m 257
 91.0645 0 l 257
 509.318 215 l 257
 582.477 416 l 257
 -165.936 0 l 257
861.49 1548 m 257
 789.424 1350 l 257
 1173.42 1350 l 257
 1245.49 1548 l 257
 861.49 1548 l 257
993.486 1537 m 257
 427.514 -18 l 257
 626.514 -18 l 257
 1192.49 1537 l 257
 993.486 1537 l 257
249.49 1548 m 257
 177.424 1350 l 257
 622.424 1350 l 257
 694.49 1548 l 257
 249.49 1548 l 257
444.355 1413 m 257
 267.465 927 l 257
 467.465 927 l 257
 644.355 1413 l 257
 444.355 1413 l 257
501.586 1018 m 257
 60.5859 1018 l 257
 -15.1191 810 l 257
 425.881 810 l 257
 501.586 1018 l 257
34.3809 946 m 257
 -221.49 243 l 257
 -22.4902 243 l 257
 233.381 946 l 257
 34.3809 946 l 257
-149.061 442 m 257
 -221.49 243 l 257
 721.51 243 l 257
 793.939 442 l 257
 -149.061 442 l 257
EndSplineSet
Ligature2: "rkrfRakarVariantsinDevanagari2lookup0 subtable" uni0925 uni0930_uni094D.blwf
EndChar

StartChar: uni0925_uni094D.half
Encoding: 760 -1 504
GlifName: uni0925_uni094D_.half
Width: 1024
VWidth: 0
GlyphClass: 3
Flags: W
LayerCount: 2
Fore
SplineSet
881.691 1548 m 257
 809.625 1350 l 257
 1193.62 1350 l 257
 1265.69 1548 l 257
 881.691 1548 l 257
269.691 1548 m 257
 197.625 1350 l 257
 642.625 1350 l 257
 714.691 1548 l 257
 269.691 1548 l 257
464.555 1413 m 257
 287.666 927 l 257
 487.666 927 l 257
 664.555 1413 l 257
 464.555 1413 l 257
521.787 1018 m 257
 80.7871 1018 l 257
 5.08008 810 l 257
 446.08 810 l 257
 521.787 1018 l 257
54.5801 946 m 257
 -241.691 132 l 257
 -42.6914 132 l 257
 253.58 946 l 257
 54.5801 946 l 257
-169.26 331 m 257
 -241.691 132 l 257
 701.309 132 l 257
 773.74 331 l 257
 -169.26 331 l 257
EndSplineSet
Ligature2: "halfHalfFormsinDevanagari2lookup0 subtable" uni0925 uni094D
EndChar

StartChar: uni0925_uni094D.haln
Encoding: 761 -1 505
GlifName: uni0925_uni094D_.haln
Width: 1024
VWidth: 0
GlyphClass: 3
Flags: W
LayerCount: 2
Fore
SplineSet
953.064 1548 m 257
 842.741 1348 l 257
 1222.74 1348 l 257
 1333.06 1548 l 257
 953.064 1548 l 257
1083 1537 m 257
 225.237 -18 l 257
 424.237 -18 l 257
 1282 1537 l 257
 1083 1537 l 257
341.064 1548 m 257
 230.741 1348 l 257
 675.741 1348 l 257
 786.064 1548 l 257
 341.064 1548 l 257
510.597 1413 m 257
 242.513 927 l 257
 442.513 927 l 257
 710.597 1413 l 257
 510.597 1413 l 257
493.71 1018 m 257
 52.71 1018 l 257
 -62.0273 810 l 257
 378.973 810 l 257
 493.71 1018 l 257
12.9922 946 m 257
 -436.021 132 l 257
 -237.021 132 l 257
 211.992 946 l 257
 12.9922 946 l 257
-326.248 331 m 257
 -436.021 132 l 257
 506.979 132 l 257
 616.752 331 l 257
 -326.248 331 l 257
-138.712 -22 m 257
 -246.828 -218 l 257
 110.172 -218 l 257
 218.288 -22 l 257
 -138.712 -22 l 257
-11.5215 -183 m 257
 102.075 -588 l 257
 335.988 -425 l 257
 220.84 -21 l 257
 -11.5215 -183 l 257
EndSplineSet
Ligature2: "halnHalantFormsinDevanagari2lookup0 subtable" uni0925 uni094D
EndChar

StartChar: uni0926
Encoding: 762 2342 506
GlifName: uni0926
Width: 1024
VWidth: 0
GlyphClass: 2
Flags: W
AnchorPoint: "abvm_deva" 582 1594 basechar 0
LayerCount: 2
Fore
SplineSet
226.143 1548 m 257
 153.35 1348 l 257
 1178.35 1348 l 257
 1251.14 1548 l 257
 226.143 1548 l 257
695.949 1509 m 257
 482.662 923 l 257
 682.662 923 l 257
 895.949 1509 l 257
 695.949 1509 l 257
718.059 1023 m 257
 96.0586 1023 l 257
 22.5371 821 l 257
 644.537 821 l 257
 718.059 1023 l 257
82.2324 996 m 257
 -200.572 219 l 257
 -0.572266 219 l 257
 282.232 996 l 257
 82.2324 996 l 257
-154.35 346 m 257
 -227.143 146 l 257
 524.857 146 l 257
 597.65 346 l 257
 -154.35 346 l 257
423.488 406 m 257
 273.17 -7 l 257
 473.17 -7 l 257
 623.488 406 l 257
 423.488 406 l 257
EndSplineSet
EndChar

StartChar: uni0926_uni0930_uni094D.vatu
Encoding: 763 -1 507
GlifName: uni0926_uni0930_uni094D_.vatu
Width: 1024
VWidth: 0
GlyphClass: 3
Flags: W
LayerCount: 2
Fore
SplineSet
-163.792 0 m 257
 93.208 0 l 257
 511.462 215 l 257
 584.619 416 l 257
 -163.792 0 l 257
224.634 1548 m 257
 152.567 1350 l 257
 1167.57 1350 l 257
 1239.63 1548 l 257
 224.634 1548 l 257
687.439 1509 m 257
 474.152 923 l 257
 674.152 923 l 257
 887.439 1509 l 257
 687.439 1509 l 257
709.55 1023 m 257
 87.5498 1023 l 257
 14.0273 821 l 257
 636.027 821 l 257
 709.55 1023 l 257
73.7227 996 m 257
 -189.064 274 l 257
 10.9355 274 l 257
 273.723 996 l 257
 73.7227 996 l 257
-142.84 401 m 257
 -215.634 201 l 257
 536.366 201 l 257
 609.16 401 l 257
 -142.84 401 l 257
434.998 461 m 257
 264.66 -7 l 257
 464.66 -7 l 257
 634.998 461 l 257
 434.998 461 l 257
EndSplineSet
Ligature2: "rkrfRakarVariantsinDevanagari2lookup0 subtable" uni0926 uni0930_uni094D.blwf
EndChar

StartChar: uni0926_uni094D.half
Encoding: 764 -1 508
GlifName: uni0926_uni094D_.half
Width: 1024
VWidth: 0
GlyphClass: 3
Flags: W
LayerCount: 2
Fore
SplineSet
226.143 1548 m 257
 153.35 1348 l 257
 1178.35 1348 l 257
 1251.14 1548 l 257
 226.143 1548 l 257
695.949 1509 m 257
 482.662 923 l 257
 682.662 923 l 257
 895.949 1509 l 257
 695.949 1509 l 257
718.059 1023 m 257
 96.0586 1023 l 257
 22.5371 821 l 257
 644.537 821 l 257
 718.059 1023 l 257
82.2324 996 m 257
 -200.572 219 l 257
 -0.572266 219 l 257
 282.232 996 l 257
 82.2324 996 l 257
-154.35 346 m 257
 -227.143 146 l 257
 524.857 146 l 257
 597.65 346 l 257
 -154.35 346 l 257
423.488 406 m 257
 273.17 -7 l 257
 473.17 -7 l 257
 623.488 406 l 257
 423.488 406 l 257
1.70898 -22 m 257
 -69.6289 -218 l 257
 287.371 -218 l 257
 358.709 -22 l 257
 1.70898 -22 l 257
159.111 -183 m 257
 348.703 -588 l 257
 552.029 -425 l 257
 361.074 -21 l 257
 159.111 -183 l 257
EndSplineSet
Ligature2: "halfHalfFormsinDevanagari2lookup0 subtable" uni0926 uni094D
EndChar

StartChar: uni0926_uni094D.haln
Encoding: 765 -1 509
GlifName: uni0926_uni094D_.haln
Width: 1024
VWidth: 0
GlyphClass: 3
Flags: W
LayerCount: 2
Fore
SplineSet
292.968 1548 m 257
 182.646 1348 l 257
 1207.65 1348 l 257
 1317.97 1548 l 257
 292.968 1548 l 257
755.456 1509 m 257
 432.211 923 l 257
 632.211 923 l 257
 955.456 1509 l 257
 755.456 1509 l 257
686.371 1023 m 257
 64.3711 1023 l 257
 -47.0537 821 l 257
 574.946 821 l 257
 686.371 1023 l 257
45.4785 996 m 257
 -383.124 219 l 257
 -183.124 219 l 257
 245.479 996 l 257
 45.4785 996 l 257
-313.071 346 m 257
 -423.393 146 l 257
 328.607 146 l 257
 438.929 346 l 257
 -313.071 346 l 257
276.025 406 m 257
 48.21 -7 l 257
 248.21 -7 l 257
 476.025 406 l 257
 276.025 406 l 257
-116.263 -22 m 257
 -224.378 -218 l 257
 132.622 -218 l 257
 240.737 -22 l 257
 -116.263 -22 l 257
10.9287 -183 m 257
 124.524 -588 l 257
 358.438 -425 l 257
 243.289 -21 l 257
 10.9287 -183 l 257
EndSplineSet
Ligature2: "halnHalantFormsinDevanagari2lookup0 subtable" uni0926 uni094D
EndChar

StartChar: uni0926_uni094D_uni0926.pres
Encoding: 766 -1 510
GlifName: uni0926_uni094D__uni0926.pres
Width: 1024
VWidth: 0
GlyphClass: 3
Flags: W
LayerCount: 2
Fore
SplineSet
234.643 1548 m 257
 162.576 1350 l 257
 1177.58 1350 l 257
 1249.64 1548 l 257
 234.643 1548 l 257
697.449 1509 m 257
 548.584 1100 l 257
 748.584 1100 l 257
 897.449 1509 l 257
 697.449 1509 l 257
782.891 1197 m 257
 160.891 1197 l 257
 88.459 998 l 257
 710.459 998 l 257
 782.891 1197 l 257
148.154 1173 m 257
 -2.89258 758 l 257
 197.107 758 l 257
 348.154 1173 l 257
 148.154 1173 l 257
-152.85 346 m 257
 -225.643 146 l 257
 526.357 146 l 257
 599.15 346 l 257
 -152.85 346 l 257
424.988 406 m 257
 274.67 -7 l 257
 474.67 -7 l 257
 624.988 406 l 257
 424.988 406 l 257
637.666 798 m 257
 156.666 798 l 257
 84.2363 599 l 257
 565.236 599 l 257
 637.666 798 l 257
-41.8379 651 m 257
 -177.234 279 l 257
 22.7656 279 l 257
 158.162 651 l 257
 -41.8379 651 l 257
EndSplineSet
Ligature2: "presPreBaseSubstitutionsinDevanagari2lookup0 subtable" uni0926_uni094D.half uni0926
EndChar

StartChar: uni0926_uni094D_uni0927.pres
Encoding: 767 -1 511
GlifName: uni0926_uni094D__uni0927.pres
Width: 1024
VWidth: 0
GlyphClass: 3
Flags: W
LayerCount: 2
Fore
SplineSet
249.917 1548 m 257
 177.851 1350 l 257
 1192.85 1350 l 257
 1264.92 1548 l 257
 249.917 1548 l 257
859.723 1509 m 257
 646.436 923 l 257
 846.436 923 l 257
 1059.72 1509 l 257
 859.723 1509 l 257
881.833 1023 m 257
 432.833 1023 l 257
 359.311 821 l 257
 808.311 821 l 257
 881.833 1023 l 257
423.006 996 m 257
 140.201 219 l 257
 340.201 219 l 257
 623.006 996 l 257
 423.006 996 l 257
587.263 406 m 257
 436.943 -7 l 257
 636.943 -7 l 257
 787.263 406 l 257
 587.263 406 l 257
86.0459 1117 m 257
 13.6162 918 l 257
 315.616 918 l 257
 388.046 1117 l 257
 86.0459 1117 l 257
25.2627 950 m 257
 -59.1777 718 l 257
 135.822 718 l 257
 220.263 950 l 257
 25.2627 950 l 257
-63.8145 719 m 257
 -136.973 518 l 257
 262.027 518 l 257
 335.186 719 l 257
 -63.8145 719 l 257
-46.1924 674 m 257
 -212.163 218 l 257
 -12.1631 218 l 257
 153.808 674 l 257
 -46.1924 674 l 257
-168.123 339 m 257
 -240.917 139 l 257
 577.083 139 l 257
 649.877 339 l 257
 -168.123 339 l 257
EndSplineSet
Ligature2: "presPreBaseSubstitutionsinDevanagari2lookup0 subtable" uni0926_uni094D.half uni0927
EndChar

StartChar: uni0926_uni094D_uni092F.pres
Encoding: 768 -1 512
GlifName: uni0926_uni094D__uni092F_.pres
Width: 1024
VWidth: 0
GlyphClass: 3
Flags: W
LayerCount: 2
Fore
SplineSet
1007.35 1531 m 257
 450.112 0 l 257
 651.112 0 l 257
 1208.35 1531 l 257
 1007.35 1531 l 257
478.892 428 m 257
 406.462 229 l 257
 450.112 0 l 257
 574.531 166 l 257
 478.892 428 l 257
207.538 1548 m 257
 135.472 1350 l 257
 1162.47 1350 l 257
 1234.54 1548 l 257
 207.538 1548 l 257
682.344 1509 m 257
 469.057 923 l 257
 669.057 923 l 257
 882.344 1509 l 257
 682.344 1509 l 257
478.892 428 m 257
 -138.108 428 l 257
 -210.538 229 l 257
 406.462 229 l 257
 478.892 428 l 257
68.627 996 m 257
 -188.336 290 l 257
 11.6641 290 l 257
 268.627 996 l 257
 68.627 996 l 257
705.454 1023 m 257
 77.4541 1023 l 257
 3.93164 821 l 257
 631.932 821 l 257
 705.454 1023 l 257
EndSplineSet
Ligature2: "presPreBaseSubstitutionsinDevanagari2lookup0 subtable" uni0926_uni094D.half uni092F
EndChar

StartChar: uni0926_uni094D_uni0935.pres
Encoding: 769 -1 513
GlifName: uni0926_uni094D__uni0935.pres
Width: 1024
VWidth: 0
GlyphClass: 3
Flags: W
LayerCount: 2
Fore
SplineSet
237.746 1548 m 257
 165.68 1350 l 257
 1180.68 1350 l 257
 1252.75 1548 l 257
 237.746 1548 l 257
700.552 1509 m 257
 568.431 1146 l 257
 768.431 1146 l 257
 900.552 1509 l 257
 700.552 1509 l 257
802.735 1243 m 257
 180.735 1243 l 257
 108.306 1044 l 257
 730.306 1044 l 257
 802.735 1243 l 257
176.735 1243 m 257
 -35.8232 659 l 257
 164.177 659 l 257
 376.735 1243 l 257
 176.735 1243 l 257
24.5957 825 m 257
 -48.1982 625 l 257
 703.802 625 l 257
 776.596 825 l 257
 24.5957 825 l 257
588.239 846 m 257
 277.772 -7 l 257
 477.772 -7 l 257
 788.239 846 l 257
 588.239 846 l 257
-79.0625 488 m 257
 -219.555 102 l 257
 -19.5547 102 l 257
 120.938 488 l 257
 -79.0625 488 l 257
-155.952 274 m 257
 -228.746 74 l 257
 506.254 74 l 257
 579.048 274 l 257
 -155.952 274 l 257
-56.4043 553 m 257
 -129.562 352 l 257
 306.438 352 l 257
 379.596 553 l 257
 -56.4043 553 l 257
EndSplineSet
Ligature2: "presPreBaseSubstitutionsinDevanagari2lookup0 subtable" uni0926_uni094D.half uni0935
EndChar

StartChar: uni0927
Encoding: 770 2343 514
GlifName: uni0927
Width: 1024
VWidth: 0
GlyphClass: 2
Flags: W
AnchorPoint: "abvm_deva" 882 1600 basechar 0
LayerCount: 2
Fore
SplineSet
914.283 1548 m 257
 841.488 1348 l 257
 1142.49 1348 l 257
 1215.28 1548 l 257
 914.283 1548 l 257
923.975 1440 m 257
 397.674 -6 l 257
 596.674 -6 l 257
 1122.97 1440 l 257
 923.975 1440 l 257
293.283 1548 m 257
 220.488 1348 l 257
 606.488 1348 l 257
 679.283 1548 l 257
 293.283 1548 l 257
276.176 1501 m 257
 23.9453 808 l 257
 222.945 808 l 257
 475.176 1501 l 257
 276.176 1501 l 257
49.8789 882 m 257
 -23.2793 681 l 257
 375.721 681 l 257
 448.879 882 l 257
 49.8789 882 l 257
21.6406 711 m 257
 -162.529 205 l 257
 37.4707 205 l 257
 221.641 711 l 257
 21.6406 711 l 257
-118.488 326 m 257
 -191.283 126 l 257
 511.717 126 l 257
 584.512 326 l 257
 -118.488 326 l 257
EndSplineSet
EndChar

StartChar: uni0927_uni0930_uni094D.vatu
Encoding: 771 -1 515
GlifName: uni0927_uni0930_uni094D_.vatu
Width: 1024
VWidth: 0
GlyphClass: 3
Flags: W
LayerCount: 2
Fore
SplineSet
-196.213 0 m 257
 60.7871 0 l 257
 479.041 215 l 257
 552.198 416 l 257
 -196.213 0 l 257
919.213 1548 m 257
 846.419 1348 l 257
 1147.42 1348 l 257
 1220.21 1548 l 257
 919.213 1548 l 257
928.904 1440 m 257
 402.604 -6 l 257
 601.604 -6 l 257
 1127.9 1440 l 257
 928.904 1440 l 257
304.213 1548 m 257
 230.691 1346 l 257
 616.691 1346 l 257
 690.213 1548 l 257
 304.213 1548 l 257
281.106 1501 m 257
 28.875 808 l 257
 227.875 808 l 257
 480.106 1501 l 257
 281.106 1501 l 257
54.8086 882 m 257
 -18.3496 681 l 257
 380.65 681 l 257
 453.809 882 l 257
 54.8086 882 l 257
26.5703 711 m 257
 -119.382 310 l 257
 80.6182 310 l 257
 226.57 711 l 257
 26.5703 711 l 257
-75.3418 431 m 257
 -148.136 231 l 257
 554.864 231 l 257
 627.658 431 l 257
 -75.3418 431 l 257
EndSplineSet
Ligature2: "rkrfRakarVariantsinDevanagari2lookup0 subtable" uni0927 uni0930_uni094D.blwf
EndChar

StartChar: uni0927_uni094D.half
Encoding: 772 -1 516
GlifName: uni0927_uni094D_.half
Width: 1024
VWidth: 0
GlyphClass: 3
Flags: W
LayerCount: 2
Fore
SplineSet
564.283 1548 m 257
 490.762 1346 l 257
 876.762 1346 l 257
 950.283 1548 l 257
 564.283 1548 l 257
541.176 1501 m 257
 288.945 808 l 257
 487.945 808 l 257
 740.176 1501 l 257
 541.176 1501 l 257
314.879 882 m 257
 241.721 681 l 257
 640.721 681 l 257
 713.879 882 l 257
 314.879 882 l 257
286.641 711 m 257
 102.471 205 l 257
 302.471 205 l 257
 486.641 711 l 257
 286.641 711 l 257
146.512 326 m 257
 73.7168 126 l 257
 776.717 126 l 257
 849.512 326 l 257
 146.512 326 l 257
EndSplineSet
Ligature2: "halfHalfFormsinDevanagari2lookup0 subtable" uni0927 uni094D
EndChar

StartChar: uni0927_uni094D.haln
Encoding: 773 -1 517
GlifName: uni0927_uni094D_.haln
Width: 1024
VWidth: 0
GlyphClass: 3
Flags: W
LayerCount: 2
Fore
SplineSet
984.749 1548 m 257
 874.425 1348 l 257
 1175.42 1348 l 257
 1285.75 1548 l 257
 984.749 1548 l 257
974.175 1440 m 257
 176.542 -6 l 257
 375.542 -6 l 257
 1173.17 1440 l 257
 974.175 1440 l 257
363.749 1548 m 257
 253.425 1348 l 257
 639.425 1348 l 257
 749.749 1548 l 257
 363.749 1548 l 257
337.822 1501 m 257
 -44.4453 808 l 257
 154.555 808 l 257
 536.822 1501 l 257
 337.822 1501 l 257
-4.62598 882 m 257
 -115.5 681 l 257
 283.5 681 l 257
 394.374 882 l 257
 -4.62598 882 l 257
-64.9512 711 m 257
 -344.068 205 l 257
 -144.068 205 l 257
 135.049 711 l 257
 -64.9512 711 l 257
-277.322 326 m 257
 -387.646 126 l 257
 315.354 126 l 257
 425.678 326 l 257
 -277.322 326 l 257
-41.6221 -22 m 257
 -149.738 -218 l 257
 207.262 -218 l 257
 315.378 -22 l 257
 -41.6221 -22 l 257
85.5684 -183 m 257
 199.165 -588 l 257
 433.078 -425 l 257
 317.93 -21 l 257
 85.5684 -183 l 257
EndSplineSet
Ligature2: "halnHalantFormsinDevanagari2lookup0 subtable" uni0927 uni094D
EndChar

StartChar: uni0928
Encoding: 774 2344 518
GlifName: uni0928
Width: 1024
VWidth: 0
GlyphClass: 2
Flags: W
AnchorPoint: "abvm_deva" 786 1612 basechar 0
LayerCount: 2
Fore
SplineSet
147.228 1548 m 257
 74.4336 1348 l 257
 1099.43 1348 l 257
 1172.23 1548 l 257
 147.228 1548 l 257
853.228 1548 m 257
 289.802 0 l 257
 488.802 0 l 257
 1052.23 1548 l 257
 853.228 1548 l 257
-44.4043 744 m 257
 -117.198 544 l 257
 656.802 544 l 257
 729.596 744 l 257
 -44.4043 744 l 257
-44.4961 741 m 257
 -148.228 456 l 257
 52.7725 456 l 257
 156.504 741 l 257
 -44.4961 741 l 257
EndSplineSet
EndChar

StartChar: uni0928_uni0930_uni094D.vatu
Encoding: 775 -1 519
GlifName: uni0928_uni0930_uni094D_.vatu
Width: 1024
VWidth: 0
GlyphClass: 3
Flags: W
LayerCount: 2
Fore
SplineSet
-189.213 0 m 257
 67.7871 0 l 257
 486.041 215 l 257
 559.198 416 l 257
 -189.213 0 l 257
198.213 1548 m 257
 125.055 1347 l 257
 1140.05 1347 l 257
 1213.21 1548 l 257
 198.213 1548 l 257
898.213 1548 m 257
 334.787 0 l 257
 533.787 0 l 257
 1097.21 1548 l 257
 898.213 1548 l 257
0.581055 744 m 257
 -72.2129 544 l 257
 701.787 544 l 257
 774.581 744 l 257
 0.581055 744 l 257
0.489258 741 m 257
 -103.242 456 l 257
 97.7578 456 l 257
 201.489 741 l 257
 0.489258 741 l 257
EndSplineSet
Ligature2: "rkrfRakarVariantsinDevanagari2lookup0 subtable" uni0928 uni0930_uni094D.blwf
EndChar

StartChar: uni0928_uni094D.half
Encoding: 776 -1 520
GlifName: uni0928_uni094D_.half
Width: 1024
VWidth: 0
GlyphClass: 3
Flags: W
LayerCount: 2
Fore
SplineSet
65.2275 1548 m 257
 -7.93066 1347 l 257
 1007.07 1347 l 257
 1080.23 1548 l 257
 65.2275 1548 l 257
47.5957 744 m 257
 -25.1982 544 l 257
 748.802 544 l 257
 821.596 744 l 257
 47.5957 744 l 257
47.5039 741 m 257
 -56.2275 456 l 257
 144.772 456 l 257
 248.504 741 l 257
 47.5039 741 l 257
EndSplineSet
Ligature2: "halfHalfFormsinDevanagari2lookup0 subtable" uni0928 uni094D
EndChar

StartChar: uni0928_uni094D.haln
Encoding: 777 -1 521
GlifName: uni0928_uni094D_.haln
Width: 1024
VWidth: 0
GlyphClass: 3
Flags: W
LayerCount: 2
Fore
SplineSet
157.638 1548 m 257
 47.3154 1348 l 257
 1072.32 1348 l 257
 1182.64 1548 l 257
 157.638 1548 l 257
863.638 1548 m 257
 9.74121 0 l 257
 208.741 0 l 257
 1062.64 1548 l 257
 863.638 1548 l 257
-184.859 744 m 257
 -295.182 544 l 257
 478.818 544 l 257
 589.141 744 l 257
 -184.859 744 l 257
-185.514 741 m 257
 -342.724 456 l 257
 -141.724 456 l 257
 15.4863 741 l 257
 -185.514 741 l 257
-14.6826 -22 m 257
 -122.798 -218 l 257
 234.202 -218 l 257
 342.317 -22 l 257
 -14.6826 -22 l 257
112.509 -183 m 257
 226.104 -588 l 257
 460.018 -425 l 257
 344.869 -21 l 257
 112.509 -183 l 257
EndSplineSet
Ligature2: "halnHalantFormsinDevanagari2lookup0 subtable" uni0928 uni094D
EndChar

